<?xml version="1.0" encoding="utf-8"?>
<!-- Generator: Adobe Illustrator 18.0.0, SVG Export Plug-In . SVG Version: 6.00 Build 0)  -->
<!DOCTYPE svg PUBLIC "-//W3C//DTD SVG 1.1//EN" "http://www.w3.org/Graphics/SVG/1.1/DTD/svg11.dtd">
<svg version="1.1" id="Слой_1" xmlns="http://www.w3.org/2000/svg" xmlns:xlink="http://www.w3.org/1999/xlink" x="0px" y="0px"
	 viewBox="210.4 344.3 160.5 180.9" enable-background="new 210.4 344.3 160.5 180.9" xml:space="preserve">
<g>
	<path fill="#FFFFFF" d="M225.5,378.7c1.7,0,3.4,0.3,5,0.9c-0.4,0.5-0.8,1.1-1.1,1.6c-1.2-0.4,9.3,24,9.3,24l1.9,2l0,0v2.4h-15.1
		c-8.3,0-15.1-6.9-15.1-15.4C210.4,385.5,217.1,378.7,225.5,378.7z"/>
	<ellipse fill="#FFFFFF" stroke="#231300" stroke-width="2" stroke-miterlimit="10" cx="262.7" cy="435.6" rx="35.7" ry="33.2"/>
	<g>
		<g>
			<path fill="#231300" d="M281.4,406.3c-0.3-2.6-0.3-5.4,0.5-7.9c0.5-1.6,1.7-2.9,3.4-3.1c0.8-0.1,2.5-0.1,2,1.1
				c1,0,1.3-0.1,0.6-0.4c-0.3-0.3-0.6-0.5-0.9-0.8c-0.5,0.2-1,0.5-1.5,0.7c0.6,0.1,1.2,0.2,1.8,0.3c0.4,0.1,2.2-0.7,1.2-0.8
				c-0.6-0.1-1.2-0.2-1.8-0.3c-0.2,0-1.9,0.3-1.5,0.7c1.7,1.7,3.5,1.7,4.3-0.8c0-0.1,0-0.2-0.2-0.2c-3-0.6-6.3-0.4-8.4,2
				c-2.2,2.6-2,6.9-1.7,10C279.5,407.2,281.5,406.8,281.4,406.3L281.4,406.3z"/>
		</g>
	</g>
	<path fill="#FFFFFF" stroke="#231300" stroke-width="2" stroke-miterlimit="10" d="M266.4,409.9c4.3,0,8.2,2,10.7,5
		c1.9-3,5.3-5,9.3-5c6,0,10.9,4.7,10.9,10.5c0,5.8-4.9,10.5-10.9,10.5c-2.8,0-5.3-1-7.2-2.7c-2,4.9-6.9,8.4-12.7,8.4
		c-7.6,0-13.7-6-13.7-13.3C252.8,415.8,258.9,409.9,266.4,409.9z"/>
	<ellipse fill="#231300" stroke="#231300" stroke-miterlimit="10" cx="284.5" cy="420.1" rx="2" ry="2.1"/>
	<ellipse fill="#231300" stroke="#231300" stroke-miterlimit="10" cx="270.6" cy="420.1" rx="2" ry="2.1"/>
	<g>
		<g>
			<path fill="#231300" d="M301.7,412.5c-0.4-1.6-1.6-2.8-2.9-3.8c-0.3-0.2-0.9-0.1-1.3,0.1c-0.1,0-0.9,0.4-0.6,0.6
				c1.3,0.9,2.4,2,2.8,3.6C299.9,413.5,301.8,413,301.7,412.5L301.7,412.5z"/>
		</g>
	</g>
	<g>
		<g>
			<path fill="#231300" d="M251.7,406.6c-2.1,1.1-3.8,2.5-5,4.5c-0.5,0.8,1.5,0.7,1.8,0.1c1-1.6,2.3-2.9,4-3.7
				C253.7,406.8,252.6,406.1,251.7,406.6L251.7,406.6z"/>
		</g>
	</g>
	<path fill="#231300" stroke="#231300" stroke-miterlimit="10" d="M269.7,403.4c1.6,0,3.3,0.1,4.8,0.4c3.8,1.3,7.4,3.2,10.5,5.6
		c-3.9-2.1-8.3-3.3-13.1-3.3c-14.4,0-26,10.7-26,23.9c0,13.2,11.7,23.9,26,23.9c13.6,0,24.7-9.5,25.9-21.7c0,0.1,0,0.2,0,0.3
		c-1.2,13.9-13.3,24.9-28.1,24.9c-15.6,0-28.2-12.1-28.2-27.1C241.5,415.6,254.1,403.4,269.7,403.4z"/>
	<g>
		<g>
			<path fill="#231300" d="M273.6,405.3c0.3-3.1,0.4-6.5-1.1-9.3c-1.6-2.9-5.1-3.1-8-2.5c-0.3,0.1-1.3,0.3-1.1,0.7
				c0.8,2.7,2.6,1.8,4.2,0.2c0.5-0.5-0.2-0.7-0.6-0.6c-0.6,0.1-1.2,0.2-1.8,0.3c-0.9,0.1-1.6,1.2-0.3,1c0.6-0.1,1.2-0.2,1.8-0.3
				c-0.2-0.2-0.4-0.4-0.6-0.6c-0.3,0.3-0.6,0.6-0.9,0.8c0.2,0,0.4,0,0.6,0c-0.2-0.4-0.4-0.8-0.5-1.3c-0.4,0.2-0.7,0.5-1.1,0.7
				c7.3-1.4,8,5.6,7.5,11C271.6,406.2,273.6,405.9,273.6,405.3L273.6,405.3z"/>
		</g>
	</g>
	<path fill="#231300" stroke="#231300" stroke-miterlimit="10" d="M229.3,428.7c0-0.9,0.8-4,0.8-4.9c2.1-6.9,5.9-10.9,11.9-15.1
		c-5.4,5.8-8.6,13.4-8.6,21.6c0,18.3,16,33.2,35.7,33.2c7.2,0,14-2,19.6-5.4c-4.5,4.4-10.2,7.6-16.6,9.2c-1.1,0.1-2.3,0.2-3.5,0.2
		C246.9,467.4,229.3,450.1,229.3,428.7z"/>
	<path fill="#231300" d="M229.9,398.6l10.7,10.9l10.3-10.5l0.4-0.4c5.9-6,5.9-15.8,0-21.8c-5.9-6-15.4-6-21.3,0
		C224,382.8,224,392.6,229.9,398.6z M231.3,378.2c5.2-5.2,13.5-5.2,18.6,0c5.2,5.2,5.2,13.8,0,19l-0.4,0.4l-8.9,9.1l-9.3-9.5l0,0
		C226.1,392,226.1,383.5,231.3,378.2z"/>
	<path fill="#231300" d="M225.5,378.7c1.7,0,3.4,0.3,5,0.9c-0.4,0.5-0.8,1.1-1.1,1.6c-1.2-0.4-2.5-0.6-3.8-0.6
		c-7.3,0-13.2,6-13.2,13.4c0,7.4,5.9,13.5,13.2,13.5h0.1h13.1v-2.3l1.9,2l0,0v2.4h-15.1c-8.3,0-15.1-6.9-15.1-15.4
		C210.4,385.5,217.1,378.7,225.5,378.7z"/>
	<g>
		<g>
			<path fill="#231300" d="M273.9,436.8c1.4,0.4,2.4,1.6,3.6,2.3c1,0.6,2.2,0.5,3.3,0.2c2.9-0.8,2.8-3.8,3.9-6.1
				c0.1-0.3-1.7-0.1-1.9,0.3c-0.8,1.6-0.8,3.6-2,4.9c-0.8,0.9-2.4-0.8-3-1.3c-0.7-0.6-1.4-1-2.2-1.2
				C275.1,435.9,273.4,436.6,273.9,436.8L273.9,436.8z"/>
		</g>
	</g>
	<path fill="#FFFFFF" d="M250,397.3L250,397.3l-9.3,9.5l-9-9.1l-0.4-0.4c-5.2-5.2-5.2-13.8-0.1-19.1c5.2-5.3,13.5-5.3,18.8-0.1
		C255.1,383.4,255.1,392,250,397.3z"/>
</g>
<g>
	<polygon fill="#FFFFFF" stroke="#000000" stroke-miterlimit="10" points="369.8,524.3 304.8,484.4 305.4,345.2 370.5,385.2 	"/>
	<polygon fill="#FFFFFF" stroke="#000000" stroke-miterlimit="10" points="361.3,428.8 315.7,400.8 315.9,363.9 361.5,391.9 	"/>
	<polygon fill="#FFFFFF" stroke="#000000" stroke-miterlimit="10" points="361,501.3 315.4,473.3 315.6,427 361.2,455 	"/>
	<path fill="#FFFFFF" stroke="#000000" stroke-miterlimit="10" d="M319,418.5c0,2.5-1.5,3.5-3.4,2.4l0,0c-1.8-1.1-3.3-4-3.3-6.5l0,0
		c0-2.5,1.5-3.5,3.4-2.4l0,0C317.5,413.1,319,416.1,319,418.5L319,418.5z"/>
</g>
<g>
	<g>
		<path d="M291.7,450.4c3.3,0.7,7.4,1.5,10.4-0.5c1.9-1.2,3.2-2.9,4.5-4.7c0.5-0.6,2.8-3.7,3.9-1.6c0.9,1.9-1.5,1.9-1.9-0.4
			c-0.1-0.4-2,0-1.9,0.5c0.3,2.1,2.4,3.1,4.3,2.4c1.6-0.6,2.8-3.4,0.5-4.2c-1.8-0.6-3.6,0.5-5,1.6c-1.5,1.2-2.4,2.9-3.6,4.3
			c-2.6,3-6.2,2.5-9.6,1.7C292.9,449.6,291.2,450.3,291.7,450.4L291.7,450.4z"/>
	</g>
</g>
<g>
	<g>
		<path d="M275.6,460.1c8.1,0,14.9,7.9,23.1,4c1.2-0.6,0.1-1.6-0.8-1.1c-7.1,3.4-14.7-4.3-22-4.2
			C274.7,458.8,274.3,460.2,275.6,460.1L275.6,460.1z"/>
	</g>
</g>
<g>
	<g>
		<path d="M301.5,429.9c2,1.7,3.5,3.9,5.3,5.7c0.5,0.5,2.3-0.2,1.8-0.7c-1.8-1.9-3.4-4-5.3-5.7C302.8,428.7,301,429.4,301.5,429.9
			L301.5,429.9z"/>
	</g>
</g>
<g>
	<g>
		<path d="M307.6,428.7c1.4,2,1.5,4.5,2,6.8c0.2,0.9,2.1,0.4,1.9-0.5c-0.5-2.4-0.6-5-2.1-7.1C308.9,427.2,307.1,427.9,307.6,428.7
			L307.6,428.7z"/>
	</g>
</g>
<g>
	<g>
		<path d="M314.4,435.9c0.5-2.8,1.8-5.5,3.6-7.7c0.4-0.5-1.5-0.2-1.8,0.1c-1.9,2.2-3.2,5-3.8,7.9
			C312.4,436.7,314.3,436.4,314.4,435.9L314.4,435.9z"/>
	</g>
</g>
</svg>
