<?xml version="1.0" encoding="utf-8"?>
<!-- Generator: Adobe Illustrator 18.0.0, SVG Export Plug-In . SVG Version: 6.00 Build 0)  -->
<!DOCTYPE svg PUBLIC "-//W3C//DTD SVG 1.1//EN" "http://www.w3.org/Graphics/SVG/1.1/DTD/svg11.dtd">
<svg version="1.1" id="Слой_1" xmlns="http://www.w3.org/2000/svg" xmlns:xlink="http://www.w3.org/1999/xlink" x="0px" y="0px"
	 viewBox="0 0 206.8 201.4" enable-background="new 0 0 206.8 201.4" xml:space="preserve">
<polygon fill="#FFFFFF" stroke="#000000" stroke-miterlimit="10" points="136.4,134.9 122,125.2 98.3,128.9 95.3,126.9 81,118.9 
	55.5,123.1 44.2,133.1 40.5,136.4 14.3,141.2 0.5,154.2 1.3,159.4 13,164.2 1.3,174.7 2,187.7 17.5,195.6 43.5,191.9 43.8,191.7 
	56.4,200.9 82.5,197.2 95.5,184.7 121.3,181.1 137.8,166.4 136.4,156.1 127.4,149.6 137.8,139.1 "/>
<radialGradient id="SVGID_1_" cx="109.2554" cy="161.4203" r="28.8378" gradientTransform="matrix(0.9832 -0.1826 9.638475e-002 0.519 -13.7219 97.5894)" gradientUnits="userSpaceOnUse">
	<stop  offset="0" style="stop-color:#FFFFFF"/>
	<stop  offset="0.1197" style="stop-color:#FBFBFB"/>
	<stop  offset="0.2445" style="stop-color:#EEEEEE"/>
	<stop  offset="0.3718" style="stop-color:#D9D9D9"/>
	<stop  offset="0.5007" style="stop-color:#BCBCBC"/>
	<stop  offset="0.6309" style="stop-color:#969696"/>
	<stop  offset="0.7622" style="stop-color:#686868"/>
	<stop  offset="0.8918" style="stop-color:#333333"/>
	<stop  offset="1" style="stop-color:#000000"/>
</radialGradient>
<polygon fill="url(#SVGID_1_)" stroke="#000000" stroke-miterlimit="10" points="96.9,173 84.4,165.4 96.8,153.9 121.6,149.9 
	134.1,157.4 121.7,169 "/>
<radialGradient id="SVGID_2_" cx="28.5093" cy="150.6319" r="28.8378" gradientTransform="matrix(0.9832 -0.1826 9.638475e-002 0.519 -14.0394 77.6572)" gradientUnits="userSpaceOnUse">
	<stop  offset="0" style="stop-color:#FFFFFF"/>
	<stop  offset="0.1197" style="stop-color:#FBFBFB"/>
	<stop  offset="0.2445" style="stop-color:#EEEEEE"/>
	<stop  offset="0.3718" style="stop-color:#D9D9D9"/>
	<stop  offset="0.5007" style="stop-color:#BCBCBC"/>
	<stop  offset="0.6309" style="stop-color:#969696"/>
	<stop  offset="0.7622" style="stop-color:#686868"/>
	<stop  offset="0.8918" style="stop-color:#333333"/>
	<stop  offset="1" style="stop-color:#000000"/>
</radialGradient>
<polygon fill="url(#SVGID_2_)" stroke="#000000" stroke-miterlimit="10" points="16.1,162.2 3.7,154.7 16,143.1 40.9,139.1 
	53.3,146.6 41,158.2 "/>
<radialGradient id="SVGID_3_" cx="28.5093" cy="172.9872" r="28.8378" gradientTransform="matrix(0.9832 -0.1826 9.638475e-002 0.519 -16.1941 88.4098)" gradientUnits="userSpaceOnUse">
	<stop  offset="0" style="stop-color:#FFFFFF"/>
	<stop  offset="0.1197" style="stop-color:#FBFBFB"/>
	<stop  offset="0.2445" style="stop-color:#EEEEEE"/>
	<stop  offset="0.3718" style="stop-color:#D9D9D9"/>
	<stop  offset="0.5007" style="stop-color:#BCBCBC"/>
	<stop  offset="0.6309" style="stop-color:#969696"/>
	<stop  offset="0.7622" style="stop-color:#686868"/>
	<stop  offset="0.8918" style="stop-color:#333333"/>
	<stop  offset="1" style="stop-color:#000000"/>
</radialGradient>
<polygon fill="url(#SVGID_3_)" stroke="#000000" stroke-miterlimit="10" points="16.1,184.6 3.7,177 16,165.4 40.9,161.4 53.3,169 
	41,180.5 "/>
<radialGradient id="SVGID_4_" cx="69.1772" cy="133.1152" r="28.8379" gradientTransform="matrix(0.9832 -0.1826 9.638475e-002 0.519 -11.6674 76.6573)" gradientUnits="userSpaceOnUse">
	<stop  offset="0" style="stop-color:#FFFFFF"/>
	<stop  offset="0.1197" style="stop-color:#FBFBFB"/>
	<stop  offset="0.2445" style="stop-color:#EEEEEE"/>
	<stop  offset="0.3718" style="stop-color:#D9D9D9"/>
	<stop  offset="0.5007" style="stop-color:#BCBCBC"/>
	<stop  offset="0.6309" style="stop-color:#969696"/>
	<stop  offset="0.7622" style="stop-color:#686868"/>
	<stop  offset="0.8918" style="stop-color:#333333"/>
	<stop  offset="1" style="stop-color:#000000"/>
</radialGradient>
<polygon fill="url(#SVGID_4_)" stroke="#000000" stroke-miterlimit="10" points="56.8,144.7 44.3,137.1 56.7,125.6 81.5,121.5 
	94,129.1 81.6,140.7 "/>
<radialGradient id="SVGID_5_" cx="69.0093" cy="156.1152" r="28.8378" gradientTransform="matrix(0.9832 -0.1826 9.638475e-002 0.519 -13.8871 87.6893)" gradientUnits="userSpaceOnUse">
	<stop  offset="0" style="stop-color:#FFFFFF"/>
	<stop  offset="0.1197" style="stop-color:#FBFBFB"/>
	<stop  offset="0.2445" style="stop-color:#EEEEEE"/>
	<stop  offset="0.3718" style="stop-color:#D9D9D9"/>
	<stop  offset="0.5007" style="stop-color:#BCBCBC"/>
	<stop  offset="0.6309" style="stop-color:#969696"/>
	<stop  offset="0.7622" style="stop-color:#686868"/>
	<stop  offset="0.8918" style="stop-color:#333333"/>
	<stop  offset="1" style="stop-color:#000000"/>
</radialGradient>
<polygon fill="url(#SVGID_5_)" stroke="#000000" stroke-miterlimit="10" points="56.6,167.7 44.2,160.1 56.5,148.6 81.4,144.5 
	93.8,152.1 81.5,163.7 "/>
<radialGradient id="SVGID_6_" cx="69.1772" cy="177.9834" r="28.8379" gradientTransform="matrix(0.9832 -0.1826 9.638475e-002 0.519 -15.992 98.2382)" gradientUnits="userSpaceOnUse">
	<stop  offset="0" style="stop-color:#FFFFFF"/>
	<stop  offset="0.1197" style="stop-color:#FBFBFB"/>
	<stop  offset="0.2445" style="stop-color:#EEEEEE"/>
	<stop  offset="0.3718" style="stop-color:#D9D9D9"/>
	<stop  offset="0.5007" style="stop-color:#BCBCBC"/>
	<stop  offset="0.6309" style="stop-color:#969696"/>
	<stop  offset="0.7622" style="stop-color:#686868"/>
	<stop  offset="0.8918" style="stop-color:#333333"/>
	<stop  offset="1" style="stop-color:#000000"/>
</radialGradient>
<polygon fill="url(#SVGID_6_)" stroke="#000000" stroke-miterlimit="10" points="56.8,189.6 44.3,182 56.7,170.4 81.5,166.4 94,174 
	81.6,185.5 "/>
<radialGradient id="SVGID_7_" cx="109.2554" cy="139.065" r="28.8378" gradientTransform="matrix(0.9832 -0.1826 9.638475e-002 0.519 -11.5672 86.8367)" gradientUnits="userSpaceOnUse">
	<stop  offset="0" style="stop-color:#FFFFFF"/>
	<stop  offset="0.1197" style="stop-color:#FBFBFB"/>
	<stop  offset="0.2445" style="stop-color:#EEEEEE"/>
	<stop  offset="0.3718" style="stop-color:#D9D9D9"/>
	<stop  offset="0.5007" style="stop-color:#BCBCBC"/>
	<stop  offset="0.6309" style="stop-color:#969696"/>
	<stop  offset="0.7622" style="stop-color:#686868"/>
	<stop  offset="0.8918" style="stop-color:#333333"/>
	<stop  offset="1" style="stop-color:#000000"/>
</radialGradient>
<polygon fill="url(#SVGID_7_)" stroke="#000000" stroke-miterlimit="10" points="96.9,150.6 84.4,143.1 96.8,131.5 121.6,127.5 
	134.1,135 121.7,146.6 "/>
<g>
	<ellipse fill="#FFFFFF" stroke="#000000" stroke-width="2" stroke-miterlimit="10" cx="121.8" cy="103" rx="58" ry="54"/>
	<g>
		<g>
			<path d="M94,55.4c0.5-5.1,0.7-10.9-2.1-15.4c-2.7-4.1-7.9-4.1-12.1-3.2c-0.2,0-1.3,0.3-1.1,0.6c1.2,4,3.4,2.6,5.8,0.2
				c0.4-0.4-0.6-0.3-0.7-0.3c-1,0.1-2,0.4-3,0.5c-0.8,0.1-1.7,0.9-0.3,0.8c-0.9,0.1,1.7-0.3,1.5-0.1c-1,1-1.3-1.2-1.4-1.6
				c-0.4,0.2-0.8,0.4-1.1,0.6c12.2-2.4,13.6,9.2,12.7,18.4C92,56.2,93.9,56,94,55.4L94,55.4z"/>
		</g>
	</g>
	<path fill="#FFFFFF" stroke="#000000" stroke-width="2" stroke-miterlimit="10" d="M115.8,61.1c-7,0-13.3,3.2-17.3,8.1
		c-3.1-4.9-8.7-8.1-15-8.1c-9.8,0-17.7,7.6-17.7,17c0,9.4,7.9,17,17.7,17c4.5,0,8.6-1.6,11.7-4.3c3.3,8,11.3,13.6,20.6,13.6
		c12.3,0,22.2-9.7,22.2-21.7C138,70.8,128.1,61.1,115.8,61.1z"/>
	<ellipse stroke="#000000" stroke-miterlimit="10" cx="86.4" cy="77.7" rx="3.2" ry="3.4"/>
	<ellipse stroke="#000000" stroke-miterlimit="10" cx="109" cy="77.7" rx="3.2" ry="3.4"/>
	<g>
		<g>
			<path d="M91,103.2c1.2,2.3,3.9,3.4,6.3,4c0.5,0.1,2.2-0.6,1.6-0.8c-2.2-0.6-4.8-1.6-5.9-3.8C92.7,102.2,90.9,102.9,91,103.2
				L91,103.2z"/>
		</g>
	</g>
	<g>
		<g>
			<path d="M61,65.6c0.7-2.5,2.4-4.4,4.5-5.8c0.8-0.5-1.1-0.3-1.5-0.1c-2.2,1.5-4.1,3.5-4.9,6.2C59,66.3,60.9,66.1,61,65.6L61,65.6z
				"/>
		</g>
	</g>
	<g>
		<g>
			<path d="M138.3,56.9c3,1.5,5.4,3.7,7.2,6.6c0.4,0.6,2.3,0,1.8-0.8c-1.8-3-4.4-5.2-7.5-6.8C139.2,55.6,137.4,56.5,138.3,56.9
				L138.3,56.9z"/>
		</g>
	</g>
	<path stroke="#000000" stroke-miterlimit="10" d="M110.5,50.6c-2.7,0-5.3,0.2-7.8,0.6c-6.3,2.1-12,5.2-17,9.1
		c6.3-3.4,13.5-5.3,21.3-5.3c23.4,0,42.3,17.4,42.3,38.9c0,21.5-18.9,38.9-42.3,38.9c-22,0-40.1-15.5-42.1-35.3c0,0.2,0,0.3,0,0.5
		c1.9,22.7,21.6,40.5,45.7,40.5c25.3,0,45.9-19.7,45.9-44C156.4,70.3,135.9,50.6,110.5,50.6z"/>
	<g>
		<g>
			<path d="M106.6,53.5c-0.4-4.1-0.5-8.2,0.7-12.2c0.7-2.4,2.2-4.4,4.5-5.4c1.5-0.7,3.3-0.6,4.9-0.4c0.1,0.9,0.5,1.4,1.1,1.5
				c-0.6-0.5-1.2-1.1-1.8-1.7c-0.4,0.3-0.8,0.7-1.3,1c1,0.1,2,0.4,3,0.5c0.8,0.1,2-1,0.7-1.2c-1-0.1-2-0.4-3-0.5
				c-0.3,0-1.8,0.4-1.3,1c2.7,2.7,4.6,3,5.9-1c0.1-0.2-0.2-0.4-0.4-0.5c-4.8-1-9.7-0.6-12.8,3.6c-3.2,4.2-2.7,10.8-2.2,15.7
				C104.7,54.8,106.7,54.3,106.6,53.5L106.6,53.5z"/>
		</g>
	</g>
	<path stroke="#000000" stroke-miterlimit="10" d="M176.1,91.7c0-1.5-1.3-6.4-1.4-7.9c-3.5-11.3-9.6-17.7-19.4-24.6
		c8.7,9.4,14,21.7,14,35.1c0,29.8-26,54-58,54c-11.8,0-22.7-3.3-31.8-8.9c7.3,7.1,16.6,12.4,27,15c1.9,0.2,3.7,0.3,5.6,0.3
		C147.5,154.6,176.1,126.4,176.1,91.7z"/>
	<path d="M175.2,7.3c-9.6-9.8-25.2-9.8-34.7,0c-9.6,9.8-9.6,25.6,0,35.4l0.7,0.6l16.7,17l17.3-17.7C184.7,33,184.7,17.1,175.2,7.3z
		 M173,40.6L173,40.6L157.8,56l-14.5-14.8l-0.6-0.7c-8.4-8.5-8.4-22.4,0-30.9c8.4-8.5,21.9-8.5,30.3,0C181.3,18.2,181.3,32,173,40.6
		z"/>
	<path d="M182.4,10.4c-2.8,0-5.5,0.5-8.1,1.4c0.7,0.8,1.3,1.7,1.8,2.6c2-0.6,4.1-0.9,6.3-0.9c11.8,0,21.4,9.8,21.4,21.8
		c0,12.1-9.6,21.9-21.4,21.9h-0.1H161v-3.7l-3.1,3.2l0,0v3.9h24.6c13.5,0,24.5-11.2,24.5-25C206.8,21.5,195.9,10.4,182.4,10.4z"/>
</g>
<g>
	<g>
		<path d="M81.6,135.2c-6.1-0.1-11.7-1.2-16.6-4.9c-0.6-0.4-2.3,0.4-1.5,1c5.1,3.9,11.1,5,17.4,5.1
			C81.7,136.4,82.9,135.2,81.6,135.2L81.6,135.2z"/>
	</g>
</g>
<g>
	<g>
		<path d="M118.5,141.7c-4.4,3.3-9.5,4.4-14.5,1.7c-0.5-0.3-2.3,0.5-1.6,0.9c5.9,3.2,12.4,1.6,17.5-2.3
			C120.8,141.3,118.9,141.4,118.5,141.7L118.5,141.7z"/>
	</g>
</g>
</svg>
