<?xml version="1.0" encoding="utf-8"?>
<!-- Generator: Adobe Illustrator 18.0.0, SVG Export Plug-In . SVG Version: 6.00 Build 0)  -->
<!DOCTYPE svg PUBLIC "-//W3C//DTD SVG 1.1//EN" "http://www.w3.org/Graphics/SVG/1.1/DTD/svg11.dtd">
<svg version="1.1" id="Слой_1" xmlns="http://www.w3.org/2000/svg" xmlns:xlink="http://www.w3.org/1999/xlink" x="0px" y="0px"
	 viewBox="210.5 331.8 169.5 175.1" enable-background="new 210.5 331.8 169.5 175.1" xml:space="preserve">
<path fill="#FFFFFF" d="M315.4,373.4l0.6,0.6l16.2,16.6h23.9c13.1,0,23.8-10.9,23.8-24.3c0-13.4-10.6-24.3-23.8-24.3
	c-1.5,0-2.9,0.1-4.3,0.4c-0.8-1.2-1.7-2.3-2.7-3.4c-9.3-9.5-24.5-9.5-33.7,0C306.1,348.4,306.1,363.8,315.4,373.4z"/>
<g>
	<g>
		<ellipse fill="#FFFFFF" stroke="#231300" stroke-width="2" stroke-miterlimit="10" cx="297.3" cy="432" rx="56.4" ry="52.5"/>
		<g>
			<g>
				<path fill="#231300" d="M270.3,385.9c0.5-4.7,0.9-10.5-1.8-14.7c-2.8-4.4-7.7-4.6-12.4-3.7c-0.3,0.1-1,0.4-0.8,0.8
					c1.2,3.9,3.2,2.8,5.6,0.4c0.5-0.5-0.2-0.8-0.7-0.7c-1,0.1-1.9,0.4-2.9,0.5c-1,0.1-1.6,1.3-0.3,1.1c1-0.1,1.9-0.4,2.9-0.5
					c-0.2-0.2-0.4-0.5-0.7-0.7c-1.4,1.4-1.5,1.4-2.1-0.6c-0.3,0.3-0.6,0.5-0.8,0.8c11.6-2.3,12.9,8.9,12,17.6
					C268.3,386.9,270.2,386.6,270.3,385.9L270.3,385.9z"/>
			</g>
		</g>
		<path fill="#FFFFFF" stroke="#231300" stroke-width="2" stroke-miterlimit="10" d="M291.5,391.3c-6.8,0-12.9,3.1-16.9,7.9
			c-3-4.7-8.4-7.9-14.6-7.9c-9.5,0-17.2,7.4-17.2,16.5c0,9.1,7.7,16.5,17.2,16.5c4.4,0,8.4-1.6,11.4-4.2c3.2,7.8,11,13.3,20.1,13.3
			c11.9,0,21.6-9.4,21.6-21.1C313.1,400.7,303.4,391.3,291.5,391.3z"/>
		<ellipse fill="#231300" stroke="#231300" stroke-miterlimit="10" cx="262.9" cy="407.5" rx="3.2" ry="3.3"/>
		<ellipse fill="#231300" stroke="#231300" stroke-miterlimit="10" cx="284.9" cy="407.5" rx="3.2" ry="3.3"/>
		<g>
			<g>
				<path fill="#231300" d="M267.4,432.3c1.1,2.3,3.8,3.3,6.1,3.9c0.5,0.1,2.2-0.6,1.6-0.8c-2.2-0.6-4.7-1.5-5.8-3.6
					C269,431.3,267.2,431.9,267.4,432.3L267.4,432.3z"/>
			</g>
		</g>
		<g>
			<g>
				<path fill="#231300" d="M238.2,395.7c0.7-2.4,2.3-4.2,4.3-5.6c0.3-0.2,0.2-0.5-0.1-0.5c-0.5,0-1,0.1-1.4,0.4
					c-2.2,1.5-4,3.5-4.7,6.1C236.2,396.5,238.1,396.2,238.2,395.7L238.2,395.7z"/>
			</g>
		</g>
		<g>
			<g>
				<path fill="#231300" d="M313.2,387.1c2.9,1.5,5.3,3.6,7.1,6.4c0.3,0.5,2.1-0.2,1.9-0.5c-1.8-2.9-4.2-5-7.2-6.6
					C314.5,386.1,312.9,386.9,313.2,387.1L313.2,387.1z"/>
			</g>
		</g>
		<path fill="#231300" stroke="#231300" stroke-miterlimit="10" d="M286.3,381.1c-2.6,0-5.2,0.2-7.6,0.6c-6.1,2.1-11.7,5.1-16.6,8.9
			c6.1-3.3,13.2-5.1,20.7-5.1c22.7,0,41.1,16.9,41.1,37.8c0,20.9-18.4,37.8-41.1,37.8c-21.4,0-39-15.1-40.9-34.3c0,0.2,0,0.3,0,0.5
			c1.8,22,21,39.4,44.5,39.4c24.6,0,44.6-19.2,44.6-42.8C330.9,400.3,311,381.1,286.3,381.1z"/>
		<g>
			<g>
				<path fill="#231300" d="M282.6,383.9c-0.4-4-0.5-8,0.7-11.8c0.7-2.3,2.1-4.3,4.3-5.3c1.7-0.8,3.8-0.5,5.6-0.3
					c0.5,0.5,0.5,0.9,0,1.1c-0.5-0.4-0.9-0.9-1.4-1.3c-0.5,0.3-1,0.6-1.5,0.9c1,0.1,1.9,0.4,2.9,0.5c0.6,0.1,2.3-0.9,1.2-1
					c-1-0.1-1.9-0.4-2.9-0.5c-0.3,0-2,0.3-1.5,0.9c2.6,2.6,4.6,2.8,5.8-1c0.1-0.2-0.2-0.3-0.4-0.4c-4.6-0.9-9.5-0.5-12.5,3.5
					c-3.1,4.1-2.6,10.4-2.2,15.2C280.7,385,282.6,384.6,282.6,383.9L282.6,383.9z"/>
			</g>
		</g>
		<path fill="#231300" stroke="#231300" stroke-miterlimit="10" d="M350.1,421c0-1.5-1.2-6.3-1.3-7.7c-3.4-11-9.3-17.2-18.8-23.9
			c8.5,9.2,13.6,21.1,13.6,34.1c0,29-25.2,52.5-56.4,52.5c-11.4,0-22.1-3.2-30.9-8.6c7.1,6.9,16.1,12,26.3,14.5
			c1.8,0.2,3.6,0.3,5.5,0.3C322.3,482.2,350.1,454.8,350.1,421z"/>
		<path fill="#231300" d="M349.2,339c-9.3-9.5-24.5-9.5-33.7,0c-9.3,9.5-9.3,24.9,0,34.4l0.6,0.6l16.2,16.6l16.9-17.2
			C358.5,363.9,358.5,348.5,349.2,339z M347.1,371.4L347.1,371.4l-14.7,15L318.2,372l-0.6-0.6c-8.2-8.3-8.2-21.8,0-30
			c8.2-8.3,21.3-8.3,29.5,0C355.2,349.6,355.2,363.1,347.1,371.4z"/>
		<path fill="#231300" d="M356.2,342c-2.7,0-5.4,0.5-7.8,1.3c0.7,0.8,1.2,1.7,1.8,2.5c1.9-0.6,4-0.9,6.1-0.9
			c11.5,0,20.8,9.5,20.8,21.2c0,11.7-9.3,21.3-20.8,21.3h-0.1h-20.7v-3.6l-3,3.1l0,0v3.8h23.9c13.1,0,23.8-10.9,23.8-24.3
			C380,352.8,369.3,342,356.2,342z"/>
	</g>
	<path fill="none" stroke="#231300" stroke-width="5" stroke-miterlimit="10" d="M276,408.6c0,6.4-4,11.7-8.9,11.7h-23.5
		c-4.9,0-8.9-5.2-8.9-11.7v-2.2c0-6.4,4-11.7,8.9-11.7H267c4.9,0,8.9,5.2,8.9,11.7V408.6z"/>
	<path fill="none" stroke="#231300" stroke-width="5" stroke-miterlimit="10" d="M321,408.6c0,6.4-4.5,11.7-10,11.7h-26.2
		c-5.5,0-10-5.2-10-11.7v-2.2c0-6.4,4.5-11.7,10-11.7h26.2c5.5,0,10,5.2,10,11.7V408.6z"/>
	<g>
		<g>
			<path fill="#231300" d="M324.6,407c0.1-1.5,0.8-2.7,2-3.7c0.3-0.2,0.9-0.4,0.4-0.3c0.2,0,0.9,0,1.3,0.1c3.8,0.6,2.9,4.3,1.3,6.6
				c-0.6,0.8,2.1,0.5,2.3,0.5c1.1-0.2,2.7-0.6,3.4-1.5c1.2-1.7,2.4-4,1.1-5.9c-1.1-1.6-3.4-1.9-5.2-2c-4.8-0.1-11.8,2.2-12.3,7.8
				C318.7,409.3,324.4,408.7,324.6,407L324.6,407z"/>
		</g>
	</g>
	<g>
		<g>
			<path fill="#231300" d="M238.3,407c1.5-1,2.9-1.9,4.4-2.9c0.2-0.2,0.8-0.5,0.7-0.9c-0.1-0.4-0.7-0.4-1-0.4
				c-1.4-0.1-3,0.3-4.1,1.1c-1.5,1-2.9,1.9-4.4,2.9c-0.2,0.2-0.8,0.5-0.7,0.9c0.1,0.4,0.7,0.4,1,0.4
				C235.6,408.1,237.2,407.7,238.3,407L238.3,407z"/>
		</g>
	</g>
</g>
<g>
	<g id="XMLID_3_">
		<g>
			<path fill="#FFFFFF" d="M281.6,501.9c3.5,2.5,7.7,4.1,12.3,4.3c0,0-0.1,0-0.1,0l-49.2,0.2c-6-0.4-12.3-1.9-17.2-5.7
				c-11.1-8.8-6.3-21.9-2.7-33c1.1-3.3,2.1-7.1,2.4-10.6h41.3c-3.4,0-6.2-2.8-6.2-6.2c0-3.4,2.7-6.1,6.1-6.2
				c4.5-1,11.3,2.9,11.3,8.8c0,9.7-4.9,16.5-6.8,26.3c-1.1,5.2-0.2,10.3,2.1,14.6C276.5,497.3,278.8,499.9,281.6,501.9z"/>
			<path fill="#FFFFFF" d="M275,494.3l19.4,0v0.1c-0.1,0-0.3,0-0.4,0c-2.3,0.2-4,2.3-3.7,4.6c0.2,1.7,1.6,3,3.3,3l-11.8,0
				C278.8,499.9,276.5,497.3,275,494.3L275,494.3z"/>
			<path fill="#FFFFFF" d="M294.3,494.4c2.7-0.1,5,1.9,5.3,4.7c0.4,3.5-2.2,6.7-5.7,7.1c-4.6-0.2-8.8-1.7-12.3-4.3l11.8,0
				c-1.7,0-3.1-1.3-3.3-3c-0.2-2.3,1.4-4.3,3.7-4.6C294,494.4,294.2,494.4,294.3,494.4z"/>
			<path fill="#FFFFFF" d="M268.4,457h-41.3c0.6-6.5-1.4-12.1-10.1-12.3c0.1,0,0.1,0,0.2,0h51.2c-3.4,0-6.1,2.8-6.1,6.2
				C262.2,454.3,265,457,268.4,457z"/>
			<path fill="#FFFFFF" d="M217,444.7c8.8,0.3,10.7,5.8,10.1,12.3h-10c-3.4,0-6.2-2.8-6.2-6.2C211,447.5,213.6,444.8,217,444.7z"/>
		</g>
		<g>
			<path fill="none" stroke="#231300" stroke-miterlimit="10" d="M227.1,457c-0.3,3.5-1.3,7.3-2.4,10.6c-3.6,11.1-8.4,24.3,2.7,33
				c4.8,3.8,11.1,5.4,17.2,5.7"/>
			<path fill="none" stroke="#231300" stroke-miterlimit="10" d="M216.3,444.7c0.2,0,0.4,0,0.7,0"/>
			<path fill="none" stroke="#231300" stroke-miterlimit="10" d="M268.4,444.7C268.4,444.7,268.4,444.7,268.4,444.7h-51.3
				c-0.1,0-0.1,0-0.2,0c-3.3,0.1-6,2.8-6,6.1c0,3.4,2.8,6.2,6.2,6.2h10h41.3c-3.4,0-6.2-2.8-6.2-6.2
				C262.2,447.5,265,444.7,268.4,444.7"/>
			<path fill="none" stroke="#231300" stroke-miterlimit="10" d="M294.4,506.2c-0.2,0-0.3,0-0.5,0c-4.6-0.2-8.8-1.7-12.3-4.3
				c-2.8-2-5.1-4.6-6.7-7.7c-2.3-4.3-3.2-9.4-2.1-14.6c1.9-9.7,6.8-16.5,6.8-26.3c0-5.8-6.8-9.7-11.3-8.8"/>
			<polyline fill="none" stroke="#231300" stroke-miterlimit="10" points="244.6,506.4 293.8,506.2 294.4,506.2 			"/>
			<path fill="none" stroke="#231300" stroke-miterlimit="10" d="M293.5,502c0.1,0,0.2,0,0.3,0c1.5-0.1,2.5-1.5,2.4-2.9
				c-0.1-1.2-1.2-2-2.4-1.9c-0.9,0.1-1.6,0.9-1.5,1.9c0.1,0.7,0.7,1.3,1.5,1.2"/>
			<path fill="none" stroke="#231300" stroke-miterlimit="10" d="M293.8,506.2c0,0,0.1,0,0.1,0c3.5-0.4,6-3.6,5.7-7.1
				c-0.3-2.7-2.6-4.7-5.3-4.7c-0.1,0-0.3,0-0.4,0c-2.3,0.2-4,2.3-3.7,4.6c0.2,1.7,1.6,3,3.3,3"/>
			<line fill="none" stroke="#231300" stroke-miterlimit="10" x1="294.3" y1="494.3" x2="275" y2="494.3"/>
			<polyline fill="none" stroke="#231300" stroke-miterlimit="10" points="293.7,502 293.5,502 293.5,502 281.6,501.9 281.4,501.9 
							"/>
		</g>
	</g>
</g>
<g>
	<g>
		<path fill="#231300" d="M290.4,470.6c-6.9,4.5-13.5,10.4-22,11.4c-0.9,0.1-1.6,1.1-0.3,1c9.1-1,16-7.1,23.4-11.9
			C292.7,470.3,291,470.2,290.4,470.6L290.4,470.6z"/>
	</g>
</g>
<g>
	<g>
		<path fill="#231300" d="M225.7,474.3c-1.9-0.2-3.9-0.9-4.6-2.8c-0.7-2,1.1-3.7,2.6-4.6c0.8-0.5-1.1-0.2-1.5,0
			c-1.7,1-3.3,2.5-3.2,4.6c0.2,2.4,3.2,3.3,5.1,3.5C224.6,475.1,226.2,474.4,225.7,474.3L225.7,474.3z"/>
	</g>
</g>
</svg>
