<?xml version="1.0" encoding="utf-8"?>
<!-- Generator: Adobe Illustrator 18.0.0, SVG Export Plug-In . SVG Version: 6.00 Build 0)  -->
<!DOCTYPE svg PUBLIC "-//W3C//DTD SVG 1.1//EN" "http://www.w3.org/Graphics/SVG/1.1/DTD/svg11.dtd">
<svg version="1.1" id="Слой_1" xmlns="http://www.w3.org/2000/svg" xmlns:xlink="http://www.w3.org/1999/xlink" x="0px" y="0px"
	 viewBox="0 0 238 136.8" enable-background="new 0 0 238 136.8" xml:space="preserve">
<g>
	<ellipse fill="#FFFFFF" stroke="#000000" stroke-width="2" stroke-miterlimit="10" cx="172" cy="101" rx="37.4" ry="34.8"/>
	<g>
		<g>
			<path d="M154.4,70.3c0.3-3.3,0.5-7-1.4-9.9c-1.8-2.7-5.3-2.7-8.1-2.1c-0.2,0-1.3,0.3-1.1,0.6c0.9,2.8,2.8,1.6,4.4,0
				c0.4-0.4-0.6-0.3-0.7-0.3c-0.7,0.1-1.3,0.2-1.9,0.3c-0.8,0.1-1.7,0.9-0.3,0.8c0.7-0.1,1.3-0.2,1.9-0.3c-0.2-0.1-0.5-0.2-0.7-0.3
				c-0.7,0.7-0.4,0.4-0.7-0.6c-0.4,0.2-0.8,0.4-1.1,0.6c7.7-1.5,8.5,6.1,7.9,11.8C152.5,71.1,154.4,70.9,154.4,70.3L154.4,70.3z"/>
		</g>
	</g>
	<path fill="#FFFFFF" stroke="#000000" stroke-width="2" stroke-miterlimit="10" d="M168.1,74.1c-4.5,0-8.6,2-11.2,5.2
		c-2-3.1-5.6-5.2-9.7-5.2c-6.3,0-11.4,4.9-11.4,11c0,6,5.1,11,11.4,11c2.9,0,5.6-1.1,7.6-2.8c2.1,5.1,7.3,8.8,13.3,8.8
		c7.9,0,14.3-6.2,14.3-14C182.5,80.3,176.1,74.1,168.1,74.1z"/>
	<ellipse stroke="#000000" stroke-miterlimit="10" cx="149.2" cy="84.8" rx="2.1" ry="2.2"/>
	<ellipse stroke="#000000" stroke-miterlimit="10" cx="163.8" cy="84.8" rx="2.1" ry="2.2"/>
	<g>
		<g>
			<path d="M133.2,76.9c0.4-1.6,1.5-2.7,2.8-3.6c0.3-0.2,0.2-0.5-0.1-0.5c-0.5,0-1,0.1-1.4,0.4c-1.5,1-2.7,2.3-3.2,4.1
				C131.1,77.7,133.1,77.4,133.2,76.9L133.2,76.9z"/>
		</g>
	</g>
	<g>
		<g>
			<path d="M182.4,71.5c1.9,1,3.5,2.4,4.6,4.2c0.4,0.6,2.2-0.1,1.8-0.8c-1.2-1.9-2.9-3.4-4.9-4.4C183.3,70.3,181.5,71.1,182.4,71.5
				L182.4,71.5z"/>
		</g>
	</g>
	<path stroke="#000000" stroke-miterlimit="10" d="M164.7,67.3c-1.7,0-3.4,0.1-5.1,0.4c-4,1.4-7.7,3.4-11,5.9
		c4-2.2,8.7-3.4,13.7-3.4c15.1,0,27.3,11.2,27.3,25.1s-12.2,25.1-27.3,25.1c-14.2,0-25.8-10-27.1-22.7c0,0.1,0,0.2,0,0.3
		c1.2,14.6,13.9,26.1,29.5,26.1c16.3,0,29.6-12.7,29.6-28.4C194.3,80,181.1,67.3,164.7,67.3z"/>
	<g>
		<g>
			<path d="M162.6,69.1c-0.3-2.6-0.3-5.3,0.4-7.8c0.4-1.4,1.3-2.7,2.7-3.4c1-0.5,2.3-0.3,3.4-0.1c0,0.4,0.1,0.6,0.5,0.5
				c-0.3-0.3-0.6-0.6-0.9-0.9c-0.5,0.3-1,0.6-1.5,0.9c0.7,0.1,1.3,0.2,1.9,0.3c0.6,0.1,2.3-0.8,1.2-1c-0.7-0.1-1.3-0.2-1.9-0.3
				c-0.3,0-2,0.3-1.5,0.9c1.8,1.8,3.6,1.9,4.4-0.8c0.1-0.2-0.2-0.3-0.4-0.4c-3.2-0.6-6.7-0.3-8.8,2.5c-2.1,2.7-1.8,7-1.5,10.2
				C160.7,70.2,162.6,69.8,162.6,69.1L162.6,69.1z"/>
		</g>
	</g>
	<path stroke="#000000" stroke-miterlimit="10" d="M207,93.8c0-1-0.8-4.1-0.9-5.1c-2.2-7.3-6.2-11.4-12.5-15.9c5.6,6.1,9,14,9,22.6
		c0,19.2-16.7,34.8-37.4,34.8c-7.6,0-14.6-2.1-20.5-5.7c4.7,4.6,10.7,8,17.4,9.6c1.2,0.1,2.4,0.2,3.6,0.2
		C188.6,134.3,207,116.1,207,93.8z"/>
	<path d="M206.4,39.4c-6.2-6.3-16.2-6.3-22.4,0c-6.2,6.3-6.2,16.5,0,22.8l0.4,0.4l10.8,11l11.2-11.4
		C212.6,55.9,212.6,45.7,206.4,39.4z M205,60.8L205,60.8l-9.8,9.9l-9.4-9.5l-0.4-0.4c-5.4-5.5-5.4-14.4,0-19.9
		c5.4-5.5,14.1-5.5,19.5,0C210.4,46.4,210.4,55.4,205,60.8z"/>
	<path d="M211,41.4c-1.8,0-3.6,0.3-5.2,0.9c0.4,0.5,0.8,1.1,1.2,1.7c1.3-0.4,2.6-0.6,4-0.6c7.6,0,13.8,6.3,13.8,14.1
		c0,7.8-6.2,14.1-13.8,14.1H211h-13.7v-2.4l-2,2l0,0v2.5H211c8.7,0,15.8-7.2,15.8-16.1C226.8,48.6,219.8,41.4,211,41.4z"/>
	<ellipse fill="#FFFFFF" stroke="#000000" stroke-width="2" stroke-miterlimit="10" cx="80.9" cy="82.4" rx="46.4" ry="43.2"/>
	<g>
		<g>
			<path d="M104.9,44.3c-0.3-3.4-0.4-7,0.7-10.3c0.8-2.2,2.4-3.9,4.9-4.2c1-0.1,3.5-0.1,2.8,1.5c0.8,0.1,0.9-0.1,0.3-0.4
				c-0.4-0.3-0.8-0.7-1.1-1.1c-0.5,0.2-1,0.5-1.5,0.7c0.8,0.1,1.6,0.3,2.4,0.4c0.4,0.1,2.2-0.7,1.2-0.8c-0.8-0.1-1.6-0.3-2.4-0.4
				c-0.2,0-1.9,0.3-1.5,0.7c2.1,2.1,4.1,2.2,5.1-0.9c0-0.1,0-0.2-0.2-0.2c-3.7-0.7-7.8-0.5-10.4,2.5c-2.9,3.3-2.5,8.9-2.1,12.9
				C103.1,45.2,105,44.8,104.9,44.3L104.9,44.3z"/>
		</g>
	</g>
	<path fill="#FFFFFF" stroke="#000000" stroke-width="2" stroke-miterlimit="10" d="M85.7,48.9c5.6,0,10.6,2.5,13.9,6.5
		c2.5-3.9,6.9-6.5,12-6.5c7.8,0,14.1,6.1,14.1,13.6c0,7.5-6.3,13.6-14.1,13.6c-3.6,0-6.9-1.3-9.4-3.5c-2.6,6.4-9,10.9-16.5,10.9
		c-9.8,0-17.8-7.8-17.8-17.3S75.9,48.9,85.7,48.9z"/>
	<ellipse stroke="#000000" stroke-miterlimit="10" cx="109.3" cy="62.2" rx="2.6" ry="2.8"/>
	<ellipse stroke="#000000" stroke-miterlimit="10" cx="91.2" cy="62.2" rx="2.6" ry="2.8"/>
	<g>
		<g>
			<path d="M131.3,52.3c-0.6-2.1-2-3.7-3.8-4.9c-0.5-0.3-2.2,0.4-1.8,0.7c1.7,1.2,3.1,2.7,3.7,4.7C129.5,53.4,131.4,52.8,131.3,52.3
				L131.3,52.3z"/>
		</g>
	</g>
	<g>
		<g>
			<path d="M66.7,44.7c-2.6,1.3-4.8,3.2-6.4,5.7c-0.5,0.8,1.5,0.7,1.8,0.1c1.3-2.1,3.1-3.8,5.4-4.9C68.7,45,67.6,44.3,66.7,44.7
				L66.7,44.7z"/>
		</g>
	</g>
	<path stroke="#000000" stroke-miterlimit="10" d="M90,40.5c2.1,0,4.2,0.2,6.3,0.5c5,1.7,9.6,4.2,13.6,7.3c-5-2.7-10.8-4.2-17-4.2
		C74.1,44.1,59,58,59,75.2c0,17.2,15.2,31.1,33.9,31.1c17.6,0,32.1-12.4,33.7-28.2c0,0.1,0,0.3,0,0.4C125.1,96.7,109.3,111,90,111
		c-20.3,0-36.7-15.8-36.7-35.2C53.2,56.3,69.7,40.5,90,40.5z"/>
	<g>
		<g>
			<path d="M94.8,42.9c0.4-4,0.6-8.4-1.4-12c-2.1-3.7-6.5-3.9-10.2-3.2c-0.3,0.1-1.3,0.3-1.1,0.7c1,3.3,2.9,2.3,4.9,0.3
				c0.5-0.5-0.2-0.7-0.6-0.6c-0.8,0.1-1.6,0.3-2.4,0.4c-0.9,0.1-1.6,1.2-0.3,1c0.8-0.1,1.6-0.3,2.4-0.4c-0.2-0.2-0.4-0.4-0.6-0.6
				c-0.4,0.4-0.7,0.7-1.1,1.1c0.1,0,0.2,0,0.3,0.1c-0.3-0.5-0.5-1.1-0.7-1.7c-0.4,0.2-0.7,0.5-1.1,0.7c9.6-1.9,10.7,7.2,10,14.4
				C92.8,43.9,94.8,43.5,94.8,42.9L94.8,42.9z"/>
		</g>
	</g>
	<path stroke="#000000" stroke-miterlimit="10" d="M37.5,73.3c0-1.2,1-5.2,1.1-6.3c2.8-9,7.7-14.1,15.5-19.7
		c-7,7.6-11.2,17.4-11.2,28.1c0,23.9,20.8,43.2,46.4,43.2c9.4,0,18.2-2.6,25.5-7.1c-5.8,5.7-13.3,9.9-21.6,12
		c-1.5,0.1-3,0.2-4.5,0.2C60.4,123.7,37.5,101.2,37.5,73.3z"/>
	<path d="M38.2,34.2l13.9,14.2l13.4-13.6l0.5-0.5c7.7-7.8,7.7-20.5,0-28.3C58.4-2,45.9-2,38.2,5.9C30.6,13.7,30.6,26.4,38.2,34.2z
		 M40,7.7c6.7-6.8,17.5-6.8,24.2,0c6.7,6.8,6.7,17.9,0,24.7L63.7,33L52.1,44.8L40,32.5l0,0C33.3,25.6,33.3,14.6,40,7.7z"/>
	<path d="M32.5,8.3c2.3,0,4.4,0.4,6.4,1.1c-0.5,0.7-1,1.4-1.4,2.1c-1.6-0.5-3.3-0.8-5-0.8c-9.4,0-17.1,7.8-17.1,17.5
		c0,9.7,7.7,17.5,17.1,17.5h0.1h17v-3l2.5,2.5l0,0v3.1H32.5c-10.8,0-19.6-9-19.6-20C12.9,17.2,21.6,8.3,32.5,8.3z"/>
	<g>
		<g>
			<path d="M95.8,84.4c1.8,4,6.8,4.3,10.4,2.9c1.9-0.7,7.4-5.7,4-7.3c-0.4-0.2-2.2,0.3-1.8,0.7c2,1.6,4,1.4,5.9-0.2
				c0.5-0.4-1.4-0.2-1.8,0.1c-0.8-0.2-1.5-0.4-2.3-0.6c-0.6,0.2-1.2,0.5-1.8,0.7c2.3,1.1-0.2,3.7-1.2,4.7c-2.8,2.9-7.9,2-9.5-1.6
				C97.5,83.3,95.6,84,95.8,84.4L95.8,84.4z"/>
		</g>
	</g>
	<g>
		<g>
			<path d="M147.6,101.7c3.5,3.8,10.7,11.3,14,3.2c-0.3,0.1-0.6,0.2-0.9,0.2c1.1,0.6,2.1,1.2,2.9,2.1c0.2,0.2,1.1-0.1,0.9-0.3
				c-0.8-0.9-1.8-1.5-2.9-2.1c-0.2-0.1-0.8,0-0.9,0.2c-2.8,7-9.4-0.6-12.1-3.7C148.3,101.2,147.4,101.5,147.6,101.7L147.6,101.7z"/>
		</g>
	</g>
	<g>
		<g>
			<path d="M216.6,75.9c6.6-2.8,13.5-4.9,17.3-11.6c0.4-0.8-1.5-0.5-1.8,0c-3.6,6.3-10,8.2-16.3,10.8
				C214.6,75.7,215.7,76.2,216.6,75.9L216.6,75.9z"/>
		</g>
	</g>
	<g>
		<g>
			<path d="M217,80.2c7.6-2.8,15.1-5.6,20.5-11.9c0.5-0.6-1.4-0.4-1.8,0c-5.1,6-12.3,8.6-19.5,11.3C215,80.1,216.2,80.5,217,80.2
				L217,80.2z"/>
		</g>
	</g>
	<g>
		<g>
			<path d="M218.8,84.6c7.4-2,13.8-5,19-10.8c0.8-0.9-1-1.3-1.6-0.6c-4.9,5.4-10.8,8.1-17.8,10C217.2,83.5,217.6,84.9,218.8,84.6
				L218.8,84.6z"/>
		</g>
	</g>
	<g>
		<g>
			<path d="M7.6,37.4c2.4,6.5,8,11.7,14.8,13.1c0.7,0.2,2.3-1,1.1-1.2c-6.4-1.4-11.8-6.3-14-12.5C9.2,36,7.3,36.6,7.6,37.4L7.6,37.4
				z"/>
		</g>
	</g>
	<g>
		<g>
			<path d="M3.6,42.3c3.5,5.8,9,8.9,15.7,9.4c0.8,0.1,2-1.1,0.7-1.2C13.8,50,8.7,47,5.4,41.5C5.1,40.9,3.2,41.5,3.6,42.3L3.6,42.3z"
				/>
		</g>
	</g>
	<g>
		<g>
			<path d="M0,47c4.8,4.4,9.1,7.9,15.9,7.7c0.4,0,2.2-0.8,1.3-0.8c-6.6,0.2-10.7-3.3-15.3-7.5C1.5,46-0.2,46.8,0,47L0,47z"/>
		</g>
	</g>
	<g>
		<g>
			<path d="M192,22.3c0.4,0,2.2-0.7,1.3-0.7C192.9,21.5,191,22.3,192,22.3L192,22.3z"/>
		</g>
	</g>
	<g>
		<g>
			<path d="M111.7,108c1.8,3.1,4.2,6.1,7.7,7.3c3.4,1.2,6.5-0.8,8.8-3.1c0.9-0.9-1-1.3-1.6-0.6c-5.3,5.3-10.2,0.4-13.1-4.5
				C113,106.3,111.2,107,111.7,108L111.7,108z"/>
		</g>
	</g>
	<g>
		<g>
			<path d="M140.4,115.9c-3.5,2.9-8.5,3-10.9-1.2c-0.4-0.7-2.2,0-1.8,0.8c2.9,5.2,9.8,4.6,13.9,1.2
				C142.6,115.9,141,115.4,140.4,115.9L140.4,115.9z"/>
		</g>
	</g>
	<g>
		<g>
			<path d="M160.5,127.1c5.9,8.2,17.7,5.5,21.9-2.9c0.2-0.5-1.6-0.3-1.9,0.3c-3.8,7.6-13.1,8.9-18.1,1.9
				C162,125.9,160.1,126.5,160.5,127.1L160.5,127.1z"/>
		</g>
	</g>
	<g>
		<g>
			<path d="M83.2,113.8c2,8.1,11.2,11.2,18.7,11.3c0.4,0,2.2-0.8,1.2-0.8c-7.3-0.1-16.1-3.2-18.1-11.1
				C85,112.8,83.1,113.3,83.2,113.8L83.2,113.8z"/>
		</g>
	</g>
</g>
</svg>
