<?xml version="1.0" encoding="utf-8"?>
<!-- Generator: Adobe Illustrator 18.0.0, SVG Export Plug-In . SVG Version: 6.00 Build 0)  -->
<!DOCTYPE svg PUBLIC "-//W3C//DTD SVG 1.1//EN" "http://www.w3.org/Graphics/SVG/1.1/DTD/svg11.dtd">
<svg version="1.1" id="Слой_1" xmlns="http://www.w3.org/2000/svg" xmlns:xlink="http://www.w3.org/1999/xlink" x="0px" y="0px"
	 viewBox="207.2 323.8 177.2 173.3" enable-background="new 207.2 323.8 177.2 173.3" xml:space="preserve">
<polygon fill="#FFFFFF" stroke="#231300" stroke-miterlimit="10" points="324.2,440.1 311.9,431.7 291.5,434.9 288.9,433.2 
	276.7,426.4 254.9,429.9 245.1,438.5 242,441.4 219.5,445.4 207.7,456.6 208.4,461.1 218.4,465.1 208.4,474.1 209,485.3 222.2,492 
	244.6,488.9 244.8,488.7 255.6,496.6 277.9,493.5 289.1,482.7 311.2,479.6 325.4,467 324.2,458.2 316.4,452.6 325.4,443.6 "/>
<radialGradient id="SVGID_1_" cx="300.8992" cy="462.7604" r="24.7175" gradientTransform="matrix(0.9832 -0.1826 9.638475e-002 0.519 -39.5449 277.5211)" gradientUnits="userSpaceOnUse">
	<stop  offset="0" style="stop-color:#FFFFFF"/>
	<stop  offset="0.1197" style="stop-color:#FBFBFB"/>
	<stop  offset="0.2445" style="stop-color:#EEEEEE"/>
	<stop  offset="0.3718" style="stop-color:#D9D9D9"/>
	<stop  offset="0.5007" style="stop-color:#BCBCBC"/>
	<stop  offset="0.6309" style="stop-color:#969696"/>
	<stop  offset="0.7622" style="stop-color:#686868"/>
	<stop  offset="0.8918" style="stop-color:#333333"/>
	<stop  offset="1" style="stop-color:#000000"/>
</radialGradient>
<polygon fill="url(#SVGID_1_)" stroke="#231300" stroke-miterlimit="10" points="290.3,472.7 279.6,466.2 290.2,456.3 311.5,452.8 
	322.2,459.3 311.6,469.2 "/>
<radialGradient id="SVGID_2_" cx="231.69" cy="453.5134" r="24.7175" gradientTransform="matrix(0.9832 -0.1826 9.638475e-002 0.519 -39.8171 260.4367)" gradientUnits="userSpaceOnUse">
	<stop  offset="0" style="stop-color:#FFFFFF"/>
	<stop  offset="0.1197" style="stop-color:#FBFBFB"/>
	<stop  offset="0.2445" style="stop-color:#EEEEEE"/>
	<stop  offset="0.3718" style="stop-color:#D9D9D9"/>
	<stop  offset="0.5007" style="stop-color:#BCBCBC"/>
	<stop  offset="0.6309" style="stop-color:#969696"/>
	<stop  offset="0.7622" style="stop-color:#686868"/>
	<stop  offset="0.8918" style="stop-color:#333333"/>
	<stop  offset="1" style="stop-color:#000000"/>
</radialGradient>
<polygon fill="url(#SVGID_2_)" stroke="#231300" stroke-miterlimit="10" points="221.1,463.4 210.4,457 221,447 242.3,443.6 
	253,450.1 242.4,460 "/>
<radialGradient id="SVGID_3_" cx="231.69" cy="472.6747" r="24.7175" gradientTransform="matrix(0.9832 -0.1826 9.638475e-002 0.519 -41.6639 269.6531)" gradientUnits="userSpaceOnUse">
	<stop  offset="0" style="stop-color:#FFFFFF"/>
	<stop  offset="0.1197" style="stop-color:#FBFBFB"/>
	<stop  offset="0.2445" style="stop-color:#EEEEEE"/>
	<stop  offset="0.3718" style="stop-color:#D9D9D9"/>
	<stop  offset="0.5007" style="stop-color:#BCBCBC"/>
	<stop  offset="0.6309" style="stop-color:#969696"/>
	<stop  offset="0.7622" style="stop-color:#686868"/>
	<stop  offset="0.8918" style="stop-color:#333333"/>
	<stop  offset="1" style="stop-color:#000000"/>
</radialGradient>
<polygon fill="url(#SVGID_3_)" stroke="#231300" stroke-miterlimit="10" points="221.1,482.6 210.4,476.1 221,466.2 242.3,462.8 
	253,469.2 242.4,479.1 "/>
<radialGradient id="SVGID_4_" cx="266.5473" cy="438.4995" r="24.7176" gradientTransform="matrix(0.9832 -0.1826 9.638475e-002 0.519 -37.784 259.5797)" gradientUnits="userSpaceOnUse">
	<stop  offset="0" style="stop-color:#FFFFFF"/>
	<stop  offset="0.1197" style="stop-color:#FBFBFB"/>
	<stop  offset="0.2445" style="stop-color:#EEEEEE"/>
	<stop  offset="0.3718" style="stop-color:#D9D9D9"/>
	<stop  offset="0.5007" style="stop-color:#BCBCBC"/>
	<stop  offset="0.6309" style="stop-color:#969696"/>
	<stop  offset="0.7622" style="stop-color:#686868"/>
	<stop  offset="0.8918" style="stop-color:#333333"/>
	<stop  offset="1" style="stop-color:#000000"/>
</radialGradient>
<polygon fill="url(#SVGID_4_)" stroke="#231300" stroke-miterlimit="10" points="255.9,448.4 245.3,441.9 255.9,432 277.2,428.6 
	287.8,435.1 277.2,445 "/>
<radialGradient id="SVGID_5_" cx="266.4034" cy="458.2133" r="24.7175" gradientTransform="matrix(0.9832 -0.1826 9.638475e-002 0.519 -39.6865 269.0355)" gradientUnits="userSpaceOnUse">
	<stop  offset="0" style="stop-color:#FFFFFF"/>
	<stop  offset="0.1197" style="stop-color:#FBFBFB"/>
	<stop  offset="0.2445" style="stop-color:#EEEEEE"/>
	<stop  offset="0.3718" style="stop-color:#D9D9D9"/>
	<stop  offset="0.5007" style="stop-color:#BCBCBC"/>
	<stop  offset="0.6309" style="stop-color:#969696"/>
	<stop  offset="0.7622" style="stop-color:#686868"/>
	<stop  offset="0.8918" style="stop-color:#333333"/>
	<stop  offset="1" style="stop-color:#000000"/>
</radialGradient>
<polygon fill="url(#SVGID_5_)" stroke="#231300" stroke-miterlimit="10" points="255.8,468.1 245.1,461.7 255.7,451.7 277,448.3 
	287.7,454.8 277.1,464.7 "/>
<radialGradient id="SVGID_6_" cx="266.5473" cy="476.9569" r="24.7176" gradientTransform="matrix(0.9832 -0.1826 9.638475e-002 0.519 -41.4907 278.0772)" gradientUnits="userSpaceOnUse">
	<stop  offset="0" style="stop-color:#FFFFFF"/>
	<stop  offset="0.1197" style="stop-color:#FBFBFB"/>
	<stop  offset="0.2445" style="stop-color:#EEEEEE"/>
	<stop  offset="0.3718" style="stop-color:#D9D9D9"/>
	<stop  offset="0.5007" style="stop-color:#BCBCBC"/>
	<stop  offset="0.6309" style="stop-color:#969696"/>
	<stop  offset="0.7622" style="stop-color:#686868"/>
	<stop  offset="0.8918" style="stop-color:#333333"/>
	<stop  offset="1" style="stop-color:#000000"/>
</radialGradient>
<polygon fill="url(#SVGID_6_)" stroke="#231300" stroke-miterlimit="10" points="255.9,486.9 245.3,480.4 255.9,470.5 277.2,467 
	287.8,473.5 277.2,483.4 "/>
<radialGradient id="SVGID_7_" cx="300.8992" cy="443.5991" r="24.7175" gradientTransform="matrix(0.9832 -0.1826 9.638475e-002 0.519 -37.6981 268.3047)" gradientUnits="userSpaceOnUse">
	<stop  offset="0" style="stop-color:#FFFFFF"/>
	<stop  offset="0.1197" style="stop-color:#FBFBFB"/>
	<stop  offset="0.2445" style="stop-color:#EEEEEE"/>
	<stop  offset="0.3718" style="stop-color:#D9D9D9"/>
	<stop  offset="0.5007" style="stop-color:#BCBCBC"/>
	<stop  offset="0.6309" style="stop-color:#969696"/>
	<stop  offset="0.7622" style="stop-color:#686868"/>
	<stop  offset="0.8918" style="stop-color:#333333"/>
	<stop  offset="1" style="stop-color:#000000"/>
</radialGradient>
<polygon fill="url(#SVGID_7_)" stroke="#231300" stroke-miterlimit="10" points="290.3,453.5 279.6,447 290.2,437.1 311.5,433.7 
	322.2,440.2 311.6,450.1 "/>
<g>
	<ellipse fill="#FFFFFF" stroke="#231300" stroke-width="2" stroke-miterlimit="10" cx="311.6" cy="412.7" rx="49.7" ry="46.3"/>
	<g>
		<g>
			<path fill="#231300" d="M287.9,371.8c0.4-4.4,0.6-9.3-1.8-13.2c-2.3-3.6-6.8-3.5-10.5-2.8c-0.2,0-1.3,0.3-1.1,0.6
				c1.1,3.5,3.2,2.2,5.3,0.1c0.4-0.4-0.6-0.3-0.7-0.3c-0.9,0.1-1.7,0.3-2.6,0.4c-0.8,0.1-1.7,0.9-0.3,0.8c0.9-0.1,1.7-0.3,2.6-0.4
				c-0.2-0.1-0.5-0.2-0.7-0.3c-1.2,1.2-1.2,0.6-1.6-0.7c-0.4,0.2-0.8,0.4-1.1,0.6c10.4-2.1,11.5,7.9,10.8,15.7
				C286,372.7,287.9,372.5,287.9,371.8L287.9,371.8z"/>
		</g>
	</g>
	<path fill="#FFFFFF" stroke="#231300" stroke-width="2" stroke-miterlimit="10" d="M306.5,376.7c-6,0-11.4,2.7-14.9,7
		c-2.7-4.2-7.4-7-12.9-7c-8.4,0-15.1,6.5-15.1,14.6c0,8,6.8,14.6,15.1,14.6c3.9,0,7.4-1.4,10.1-3.7c2.8,6.9,9.7,11.7,17.7,11.7
		c10.5,0,19.1-8.3,19.1-18.6C325.5,385.1,317,376.7,306.5,376.7z"/>
	<ellipse fill="#231300" stroke="#231300" stroke-miterlimit="10" cx="281.3" cy="391" rx="2.8" ry="2.9"/>
	<ellipse fill="#231300" stroke="#231300" stroke-miterlimit="10" cx="300.7" cy="391" rx="2.8" ry="2.9"/>
	<g>
		<g>
			<path fill="#231300" d="M285.1,412.9c1,2,3.3,2.9,5.4,3.5c0.4,0.1,1,0,1.4-0.2c0.2-0.1,0.7-0.5,0.2-0.6c-1.9-0.5-4.1-1.3-5-3.2
				C286.8,411.9,284.9,412.5,285.1,412.9L285.1,412.9z"/>
		</g>
	</g>
	<g>
		<g>
			<path fill="#231300" d="M259.7,380.6c0.6-2,2-3.5,3.6-4.7c1.1-0.7-0.6-1.2-1.2-0.7c-2,1.4-3.7,3.2-4.4,5.6
				C257.5,381.6,259.5,381.4,259.7,380.6L259.7,380.6z"/>
		</g>
	</g>
	<g>
		<g>
			<path fill="#231300" d="M325.9,373.4c2.5,1.3,4.5,3.1,6,5.5c0.5,0.8,2.3,0,1.8-0.9c-1.6-2.6-3.9-4.6-6.6-6
				C326.2,371.6,324.8,372.9,325.9,373.4L325.9,373.4z"/>
		</g>
	</g>
	<path fill="#231300" stroke="#231300" stroke-miterlimit="10" d="M302,367.8c-2.3,0-4.5,0.2-6.7,0.6c-5.4,1.8-10.3,4.5-14.6,7.8
		c5.4-2.9,11.6-4.5,18.3-4.5c20,0,36.3,14.9,36.3,33.3c0,18.4-16.2,33.3-36.3,33.3c-18.9,0-34.4-13.3-36.1-30.2c0,0.1,0,0.3,0,0.4
		c1.6,19.4,18.5,34.7,39.2,34.7c21.7,0,39.3-16.9,39.3-37.7C341.3,384.7,323.7,367.8,302,367.8z"/>
	<g>
		<g>
			<path fill="#231300" d="M298.8,370.2c-0.3-3.5-0.4-7,0.6-10.4c0.6-2,1.8-3.7,3.8-4.5c1.3-0.6,2.8-0.5,4.1-0.4
				c0.1,0.9,0.5,1.3,1.1,1.1c-0.5-0.4-1-0.9-1.5-1.4c-0.4,0.3-0.8,0.7-1.3,1c0.9,0.1,1.7,0.3,2.6,0.4c0.8,0.1,2-1,0.7-1.2
				c-0.9-0.1-1.7-0.3-2.6-0.4c-0.3,0-1.8,0.4-1.3,1c2.4,2.3,4.2,2.6,5.3-0.9c0.1-0.2-0.2-0.4-0.4-0.5c-4.2-0.8-8.5-0.5-11.2,3.2
				c-2.7,3.6-2.3,9.3-1.9,13.5C296.9,371.5,298.8,371.1,298.8,370.2L298.8,370.2z"/>
		</g>
	</g>
	<path fill="#231300" stroke="#231300" stroke-miterlimit="10" d="M358.2,403c0-1.3-1.1-5.5-1.2-6.8c-3-9.7-8.2-15.1-16.6-21.1
		c7.5,8.1,12,18.6,12,30.1c0,25.6-22.3,46.3-49.7,46.3c-10.1,0-19.4-2.8-27.3-7.6c6.2,6.1,14.2,10.6,23.2,12.8
		c1.6,0.1,3.2,0.2,4.8,0.2C333.6,456.9,358.2,432.7,358.2,403z"/>
	<path fill="#FFFFFF" d="M363.4,332.7c-2.4,0-4.7,0.4-6.9,1.2c0.6,0.7,1.1,1.5,1.6,2.2c1.7-0.5-13,33.4-13,33.4l-2.7,2.7l0,0v3.3h21
		c11.6,0,21-9.6,21-21.5C384.4,342.2,375,332.7,363.4,332.7z"/>
	<path fill="#231300" d="M357.2,330.1c-8.2-8.4-21.6-8.4-29.7,0c-8.2,8.4-8.2,22,0,30.4l0.6,0.5l14.3,14.6l14.9-15.2
		C365.4,352,365.4,338.4,357.2,330.1z M355.3,358.5L355.3,358.5l-13,13.2l-12.5-12.7l-0.5-0.6c-7.2-7.3-7.2-19.2,0-26.5
		c7.2-7.3,18.8-7.3,26,0C362.5,339.4,362.5,351.2,355.3,358.5z"/>
	<path fill="#231300" d="M363.4,332.7c-2.4,0-4.7,0.4-6.9,1.2c0.6,0.7,1.1,1.5,1.6,2.2c1.7-0.5,3.5-0.8,5.4-0.8
		c10.1,0,18.3,8.4,18.3,18.7c0,10.4-8.2,18.7-18.3,18.7h-0.1H345v-3.2l-2.7,2.7l0,0v3.3h21c11.6,0,21-9.6,21-21.5
		C384.4,342.2,375,332.7,363.4,332.7z"/>
	<path fill="#FFFFFF" d="M329.2,358.6L329.2,358.6l13,13.3l12.6-12.7l0.5-0.6c7.3-7.3,7.3-19.2,0.1-26.6c-7.2-7.4-18.9-7.4-26.1-0.1
		C322.1,339.3,322.1,351.2,329.2,358.6z"/>
</g>
<g>
	<g>
		<path fill="#231300" d="M277.2,440.2c-5.2-0.1-10-1-14.2-4.2c-0.6-0.4-2.3,0.4-1.5,1c4.4,3.3,9.5,4.3,15,4.4
			C277.3,441.4,278.5,440.2,277.2,440.2L277.2,440.2z"/>
	</g>
</g>
<g>
	<g>
		<path fill="#231300" d="M308.7,445.8c-3.7,2.8-8,3.7-12.2,1.4c-0.5-0.3-2.3,0.5-1.6,0.9c5.2,2.8,10.8,1.4,15.3-2
			C311.1,445.4,309.1,445.5,308.7,445.8L308.7,445.8z"/>
	</g>
</g>
</svg>
