<?xml version="1.0" encoding="utf-8"?>
<!-- Generator: Adobe Illustrator 18.0.0, SVG Export Plug-In . SVG Version: 6.00 Build 0)  -->
<!DOCTYPE svg PUBLIC "-//W3C//DTD SVG 1.1//EN" "http://www.w3.org/Graphics/SVG/1.1/DTD/svg11.dtd">
<svg version="1.1" id="Слой_1" xmlns="http://www.w3.org/2000/svg" xmlns:xlink="http://www.w3.org/1999/xlink" x="0px" y="0px"
	 viewBox="201.6 335.3 199.3 156.2" enable-background="new 201.6 335.3 199.3 156.2" xml:space="preserve">
<path fill="#FFFFFF" d="M266.1,369.2l0.5,0.5l13.2,13.5h19.5c10.7,0,19.4-8.9,19.4-19.8c0-11-8.7-19.8-19.4-19.8
	c-1.2,0-2.4,0.1-3.5,0.3c-0.7-1-1.4-1.9-2.2-2.7c-7.6-7.7-19.9-7.7-27.5,0C258.5,348.8,258.5,361.4,266.1,369.2z"/>
<g>
	<ellipse fill="#FFFFFF" stroke="#231300" stroke-width="2" stroke-miterlimit="10" cx="251.5" cy="417.1" rx="45.9" ry="42.8"/>
	<g>
		<g>
			<path fill="#231300" d="M229.7,379.4c0.4-4,0.6-8.6-1.7-12.2c-2.1-3.3-6.4-3.3-9.8-2.6c-0.2,0-1.3,0.3-1.1,0.6c1,3.3,3.1,2,5,0.1
				c0.4-0.4-0.6-0.3-0.7-0.3c-0.8,0.1-1.6,0.3-2.4,0.4c-0.8,0.1-1.7,0.9-0.3,0.8c0.8-0.1,1.6-0.3,2.4-0.4c-0.2-0.1-0.5-0.2-0.7-0.3
				c-1.1,1-0.9,0.5-1.3-0.7c-0.4,0.2-0.8,0.4-1.1,0.6c9.6-1.9,10.6,7.4,9.9,14.5C227.7,380.2,229.6,380,229.7,379.4L229.7,379.4z"/>
		</g>
	</g>
	<path fill="#FFFFFF" stroke="#231300" stroke-width="2" stroke-miterlimit="10" d="M246.8,383.9c-5.6,0-10.5,2.5-13.7,6.4
		c-2.5-3.9-6.9-6.4-11.9-6.4c-7.7,0-14,6-14,13.5c0,7.4,6.3,13.5,14,13.5c3.6,0,6.8-1.3,9.3-3.4c2.6,6.3,8.9,10.8,16.4,10.8
		c9.7,0,17.6-7.7,17.6-17.2C264.4,391.6,256.5,383.9,246.8,383.9z"/>
	<ellipse fill="#231300" stroke="#231300" stroke-miterlimit="10" cx="223.5" cy="397.1" rx="2.6" ry="2.7"/>
	<ellipse fill="#231300" stroke="#231300" stroke-miterlimit="10" cx="241.4" cy="397.1" rx="2.6" ry="2.7"/>
	<g>
		<g>
			<path fill="#231300" d="M226.9,417.4c0.9,1.9,3.1,2.7,5,3.2c0.4,0.1,1-0.1,1.4-0.2c0.2-0.1,0.7-0.4,0.2-0.5
				c-1.8-0.5-3.8-1.2-4.7-3C228.6,416.4,226.8,417.1,226.9,417.4L226.9,417.4z"/>
		</g>
	</g>
	<g>
		<g>
			<path fill="#231300" d="M203.6,387.5c0.5-1.9,1.8-3.4,3.5-4.5c0.3-0.2,0.2-0.5-0.1-0.5c-0.5,0-1,0.1-1.4,0.4
				c-1.8,1.2-3.3,2.8-3.9,5C201.5,388.3,203.4,388,203.6,387.5L203.6,387.5z"/>
		</g>
	</g>
	<g>
		<g>
			<path fill="#231300" d="M264.4,380.7c2.4,1.2,4.3,2.9,5.7,5.2c0.4,0.6,2.2-0.1,1.8-0.8c-1.5-2.4-3.5-4.1-5.9-5.4
				C265.4,379.4,263.6,380.3,264.4,380.7L264.4,380.7z"/>
		</g>
	</g>
	<path fill="#231300" stroke="#231300" stroke-miterlimit="10" d="M242.6,375.7c-2.1,0-4.2,0.2-6.2,0.5c-5,1.7-9.5,4.2-13.5,7.2
		c5-2.7,10.7-4.2,16.9-4.2c18.5,0,33.5,13.8,33.5,30.8c0,17-15,30.8-33.5,30.8c-17.5,0-31.8-12.3-33.4-27.9c0,0.1,0,0.3,0,0.4
		c1.5,18,17.1,32.1,36.2,32.1c20.1,0,36.3-15.6,36.3-34.9C278.9,391.3,262.6,375.7,242.6,375.7z"/>
	<g>
		<g>
			<path fill="#231300" d="M239.7,377.9c-0.3-3.2-0.4-6.5,0.5-9.6c0.5-1.8,1.6-3.4,3.4-4.2c1.3-0.6,3-0.4,4.4-0.2
				c0.1,0.3,0.2,0.5,0.3,0.8c-0.4-0.3-0.7-0.7-1.1-1.1c-0.5,0.3-1,0.6-1.5,0.9c0.8,0.1,1.6,0.3,2.4,0.4c0.6,0.1,2.3-0.8,1.2-1
				c-0.8-0.1-1.6-0.3-2.4-0.4c-0.3,0-2,0.3-1.5,0.9c2.2,2.1,4,2.3,5-0.9c0.1-0.2-0.2-0.3-0.4-0.4c-3.9-0.8-8-0.4-10.5,3
				c-2.5,3.4-2.2,8.5-1.8,12.4C237.8,379,239.7,378.6,239.7,377.9L239.7,377.9z"/>
		</g>
	</g>
	<path fill="#231300" stroke="#231300" stroke-miterlimit="10" d="M294.5,408.2c0-1.2-1-5.1-1.1-6.3c-2.7-8.9-7.6-14-15.3-19.5
		c6.9,7.5,11.1,17.2,11.1,27.8c0,23.6-20.6,42.8-45.9,42.8c-9.3,0-18-2.6-25.2-7c5.8,5.6,13.1,9.8,21.4,11.8c1.5,0.1,3,0.2,4.5,0.2
		C271.8,458,294.5,435.7,294.5,408.2z"/>
	<path fill="#231300" d="M293.8,341.4c-7.6-7.7-19.9-7.7-27.5,0c-7.6,7.7-7.6,20.3,0,28.1l0.5,0.5l13.2,13.5l13.7-14
		C301.4,361.7,301.4,349.1,293.8,341.4z M292.1,367.7L292.1,367.7l-12,12.2l-11.5-11.7l-0.5-0.5c-6.6-6.8-6.6-17.7,0-24.5
		c6.6-6.8,17.4-6.8,24,0C298.7,350,298.7,360.9,292.1,367.7z"/>
	<path fill="#231300" d="M299.5,343.8c-2.2,0-4.4,0.4-6.4,1.1c0.5,0.7,1,1.4,1.4,2.1c1.6-0.5,3.2-0.7,5-0.7
		c9.4,0,16.9,7.8,16.9,17.3c0,9.6-7.6,17.3-16.9,17.3h-0.1h-16.9v-3l-2.5,2.5l0,0v3.1h19.5c10.7,0,19.4-8.9,19.4-19.8
		C318.9,352.6,310.2,343.8,299.5,343.8z"/>
</g>
<g>
	<g>
		<path fill="#231300" d="M222.7,444.6c-3.9,3-5.3,7.6-4.8,12.3c0,0.3,2,0,1.9-0.5c-0.4-4.6,0.9-9.1,4.7-12
			C224.9,444.1,223.1,444.3,222.7,444.6L222.7,444.6z"/>
	</g>
</g>
<g>
	<g>
		<path fill="#231300" d="M244.6,450.3c-0.3,5.1-3.3,9.8-7.8,12.3c-1.1,0.6-0.1,1.6,0.8,1.1c5-2.8,8.5-7.8,8.9-13.5
			C246.6,449.2,244.6,449.5,244.6,450.3L244.6,450.3z"/>
	</g>
</g>
<g>
	<g>
		<path fill="#231300" d="M324.1,366.6c-1.8,7.7-6.3,13.6-12.8,18.1c-1.1,0.7,0.6,0.9,1.2,0.5c6.8-4.7,11.7-10.7,13.6-18.9
			C326.2,365.7,324.2,366,324.1,366.6L324.1,366.6z"/>
	</g>
</g>
<g>
	<g>
		<path fill="#231300" d="M328.7,371.3c-2.6,7.5-7.8,12.9-14.7,16.6c-1.1,0.6,0.6,0.8,1.2,0.5c7.2-3.9,12.7-9.5,15.5-17.4
			C330.9,370.4,329,370.7,328.7,371.3L328.7,371.3z"/>
	</g>
</g>
<g>
	<g>
		<path fill="#231300" d="M332.9,378.2c-3.7,7-9.5,11.5-16.9,14.2c-1.3,0.5-0.1,1,0.7,0.7c7.8-2.8,14.1-7.5,18-14.9
			C335.1,377.5,333.2,377.7,332.9,378.2L332.9,378.2z"/>
	</g>
</g>
<g>
	<path fill="#FFFFFF" stroke="#231300" stroke-miterlimit="10" d="M231.7,440.7c0,0,0.3,0.8,0.7,2.2c1.2,9,1.3,17.9,8.3,24.7
		c0.6,1.1,1,2.2,0.5,3.1c-3,5.8-7.8,10.4-12.1,15.5c-0.7,0.8-1.3,1.6-1.8,2.2c-1,1.3-1.6,2-1.6,2s-0.3-0.8-0.7-2.2
		c-5.6-7.6-9.2-15.9-8.5-25.6c-0.4-1.5-0.7-2.3-0.7-2.3L231.7,440.7z"/>
	<g>
		<g>
			<path fill="#231300" d="M225.4,453.6c-0.1,2,0.7,3.7,1.7,5.4c0.1,0.1,0.4,0,0.5-0.1c1.2-1.3,2.6-2.3,4-3.4c0,0,0.1-0.1,0-0.1
				c-1.5-2-1.7-4.2-2-6.7c0-0.1-0.4,0-0.4,0c-1.5,1.3-2.7,2.7-3.6,4.5c-0.1,0.1,0.4,0.1,0.5-0.1c0.8-1.8,2-3.1,3.5-4.4
				c-0.1,0-0.3,0-0.4,0c0.2,2.2,0.4,4.2,1.6,6.1c0.5,0.9-2.9,3.2-3.6,3.9c0.2,0,0.3,0,0.5-0.1c-0.9-1.7-1.8-3.4-1.7-5.4
				C225.9,453.3,225.5,453.5,225.4,453.6L225.4,453.6z"/>
		</g>
	</g>
	<g>
		<g>
			<path fill="#231300" d="M225.7,454.1c1.1,0,1.5-1.3,0.2-1.3C224.9,452.8,224.4,454.1,225.7,454.1L225.7,454.1z"/>
		</g>
	</g>
	<g>
		<g>
			<path fill="#231300" d="M219.1,461.7c1-2.3,4-3.5,5.6-5.3c0.8-0.9-1-1.3-1.6-0.6c-1.8,2-4.7,3.1-5.8,5.7
				C216.8,462.5,218.7,462.5,219.1,461.7L219.1,461.7z"/>
		</g>
	</g>
	<g>
		<g>
			<path fill="#231300" d="M218.5,464.5c1.7-2.5,4.3-4,6.9-5.5c0.3-0.2-0.2-0.2-0.3-0.1c-2.6,1.5-5.3,3.1-7,5.6
				C217.9,464.7,218.4,464.6,218.5,464.5L218.5,464.5z"/>
		</g>
	</g>
	<g>
		<g>
			<path fill="#231300" d="M218.4,467.3c2.7-2.6,5.7-4.6,8.6-7c0.1-0.1-0.3,0-0.4,0c-2.8,2.4-5.9,4.4-8.6,7
				C217.8,467.4,218.3,467.4,218.4,467.3L218.4,467.3z"/>
		</g>
	</g>
	<g>
		<g>
			<path fill="#231300" d="M219.7,470.8c0.7-0.9,1.7-1.6,2.6-2.3c0.3-0.2,0.5-0.7,0.1-1c-0.4-0.3-1-0.2-1.4,0.1
				c-1,0.8-2.1,1.6-2.9,2.6C217.3,471.2,219.2,471.5,219.7,470.8L219.7,470.8z"/>
		</g>
	</g>
	<g>
		<g>
			<path fill="#231300" d="M223.2,467.7c3.8-2.3,7.1-5.3,10.1-8.5c0.2-0.2-0.3-0.3-0.4-0.1c-3,3.2-6.3,6.2-10,8.4
				C222.6,467.6,223,467.8,223.2,467.7L223.2,467.7z"/>
		</g>
	</g>
	<g>
		<g>
			<path fill="#231300" d="M220.2,473.9c0.7-0.9,1.3-1.9,2.3-2.4c0.3-0.2,0.8-0.6,0.5-1c-0.3-0.4-0.9-0.4-1.3-0.2
				c-1.3,0.8-2.2,1.9-3,3C217.8,474.3,219.7,474.6,220.2,473.9L220.2,473.9z"/>
		</g>
	</g>
	<g>
		<g>
			<path fill="#231300" d="M223.2,470.5c1.8-1.2,3.3-2.9,5.1-4.2c1.9-1.4,4-2.5,5.6-4.2c0.2-0.2-0.3-0.3-0.4-0.1
				c-1.6,1.7-3.6,2.8-5.5,4.1c-1.8,1.2-3.3,3-5.1,4.2C222.6,470.5,223,470.6,223.2,470.5L223.2,470.5z"/>
		</g>
	</g>
	<g>
		<g>
			<path fill="#231300" d="M221.3,476.2c1.1-1.6,2.4-3,4-4.1c0.3-0.2,0.3-0.4-0.1-0.5c-0.4,0-1,0.1-1.4,0.4
				c-1.8,1.2-3.2,2.8-4.4,4.5c-0.2,0.3,0.7,0.2,0.8,0.2C220.6,476.7,221.1,476.5,221.3,476.2L221.3,476.2z"/>
		</g>
	</g>
	<g>
		<g>
			<path fill="#231300" d="M225.5,471.5c1.5-1.5,3.3-2.6,5-3.9c1.7-1.3,2.6-3.3,4.5-4.4c0.2-0.1-0.3,0-0.4,0
				c-1.6,0.9-2.6,2.4-3.9,3.7c-1.7,1.8-4.1,2.8-5.8,4.6C225,471.6,225.4,471.5,225.5,471.5L225.5,471.5z"/>
		</g>
	</g>
	<g>
		<g>
			<path fill="#231300" d="M223.1,482.1c-0.5-0.7-0.8-1.5-1.1-2.3c-0.1-0.4-0.4-1.2-0.1-1.6c0.4-0.7,0.9-1.4,1.5-2
				c0.9-0.9,1.6,0.3,2,1c0.4,0.7,0.9,1.5,1.1,2.2c0.2,0.7-0.2,1.2-0.6,1.7c-0.5,0.6-1.1,1.2-1.6,1.8c-0.6,0.6-1.3-0.9-1.6-1.3
				c-0.1-0.1-0.6,0-0.4,0.2c0.4,0.5,0.8,1.5,1.6,1.6c0.6,0.1,1.2-0.8,1.5-1.2c0.6-0.7,1.7-1.5,1.7-2.5c0.1-0.9-0.8-2-1.2-2.8
				c-0.3-0.6-0.9-1.5-1.7-1.5c-0.8,0.1-1.4,0.8-1.9,1.4c-0.5,0.6-1,1.1-0.9,1.9c0.2,1.2,0.6,2.2,1.3,3.3
				C222.8,482.4,223.2,482.3,223.1,482.1L223.1,482.1z"/>
		</g>
	</g>
	<g>
		<g>
			<path fill="#231300" d="M230.7,481.6c-0.7-0.7-1.3-1.5-1.9-2.3c-1.2-1.6,0.7-3.4,1.7-4.5c1.1-1.2,2-2.5,2.9-3.8
				c1-1.3,2.7-3.8,4.3-0.9c0.9,1.7-0.9,3.6-1.9,4.6c-1.9,2.1-3.3,4.6-5.5,6.4c-0.2,0.2,0.3,0.2,0.4,0.1c1.4-1.2,2.5-2.6,3.6-4.1
				c1.3-1.7,3.1-3.1,3.9-5.2c0.6-1.5-0.7-4.3-2.6-3.5c-2.5,1.1-3.9,4.3-5.6,6.2c-1,1.1-2.2,2.2-2.2,3.8c0,1.1,1.7,2.4,2.4,3.2
				C230.4,482,230.9,481.8,230.7,481.6L230.7,481.6z"/>
		</g>
	</g>
	<g>
		<g>
			<path fill="#231300" d="M226.9,475.6c0.8-4.6,6-7.3,9.1-10.3c0.2-0.2-0.3-0.3-0.4-0.1c-3.2,3-8.4,5.7-9.2,10.5
				C226.4,475.9,226.9,475.8,226.9,475.6L226.9,475.6z"/>
		</g>
	</g>
</g>
<circle fill="#231300" stroke="#231300" stroke-miterlimit="10" cx="321" cy="455.2" r="6.3"/>
<circle fill="#231300" stroke="#231300" stroke-miterlimit="10" cx="347.2" cy="438.2" r="6.3"/>
<circle fill="#231300" stroke="#231300" stroke-miterlimit="10" cx="371.9" cy="460.3" r="6.3"/>
<circle fill="#231300" stroke="#231300" stroke-miterlimit="10" cx="394.1" cy="440.7" r="6.3"/>
</svg>
