<?xml version="1.0" encoding="utf-8"?>
<!-- Generator: Adobe Illustrator 18.0.0, SVG Export Plug-In . SVG Version: 6.00 Build 0)  -->
<!DOCTYPE svg PUBLIC "-//W3C//DTD SVG 1.1//EN" "http://www.w3.org/Graphics/SVG/1.1/DTD/svg11.dtd">
<svg version="1.1" id="Слой_1" xmlns="http://www.w3.org/2000/svg" xmlns:xlink="http://www.w3.org/1999/xlink" x="0px" y="0px"
	 viewBox="0 0 198.2 204.6" enable-background="new 0 0 198.2 204.6" xml:space="preserve">
<g>
	<g>
		<ellipse fill="#FFFFFF" stroke="#000000" stroke-width="2" stroke-miterlimit="10" cx="101.5" cy="117.1" rx="65.9" ry="61.4"/>
		<g>
			<g>
				<path d="M69.7,63.1c0.6-5.6,0.8-11.9-2-17c-2.9-5.2-9-5.4-14.1-4.4c-0.3,0.1-1.3,0.3-1.1,0.7c1.4,4.4,3.5,3.2,6.3,0.4
					c0.5-0.5-0.2-0.7-0.6-0.6c-1.1,0.1-2.3,0.4-3.4,0.6c-0.9,0.1-1.6,1.1-0.3,1c1.1-0.1,2.3-0.4,3.4-0.6c-0.2-0.2-0.4-0.4-0.6-0.6
					c-1.9,1.9-2,2.1-2.8-0.7c-0.4,0.2-0.7,0.5-1.1,0.7C67.1,40,68.8,52.9,67.8,63.4C67.7,64.1,69.6,63.7,69.7,63.1L69.7,63.1z"/>
			</g>
		</g>
		<path fill="#FFFFFF" stroke="#000000" stroke-width="2" stroke-miterlimit="10" d="M94.6,69.4c-8,0-15.1,3.6-19.7,9.2
			c-3.5-5.5-9.9-9.2-17.1-9.2c-11.1,0-20.1,8.7-20.1,19.3c0,10.7,9,19.3,20.1,19.3c5.1,0,9.8-1.9,13.4-4.9
			c3.7,9.1,12.8,15.5,23.5,15.5c14,0,25.3-11,25.3-24.6C119.9,80.5,108.6,69.4,94.6,69.4z"/>
		<ellipse stroke="#000000" stroke-miterlimit="10" cx="61.2" cy="88.4" rx="3.7" ry="3.9"/>
		<ellipse stroke="#000000" stroke-miterlimit="10" cx="86.9" cy="88.4" rx="3.7" ry="3.9"/>
		<g>
			<g>
				<path d="M66.7,117.5c1.3,2.7,4.5,3.9,7.3,4.6c0.9,0.2,2.3-1,1.1-1.3c-2.5-0.7-5.4-1.7-6.6-4.2C68,115.8,66.2,116.6,66.7,117.5
					L66.7,117.5z"/>
			</g>
		</g>
		<g>
			<g>
				<path d="M32.2,74.7c0.8-2.7,2.7-4.7,5-6.3c1.1-0.7-0.5-1.5-1.3-0.9c-2.7,1.8-4.8,4.2-5.6,7.4C30,75.8,32,75.5,32.2,74.7
					L32.2,74.7z"/>
			</g>
		</g>
		<g>
			<g>
				<path d="M120.2,64.5c3.4,1.8,6.2,4.2,8.3,7.5c0.3,0.5,2.1-0.3,1.9-0.5c-2.1-3.3-4.9-5.9-8.4-7.7C121.5,63.5,120,64.3,120.2,64.5
					L120.2,64.5z"/>
			</g>
		</g>
		<path stroke="#000000" stroke-miterlimit="10" d="M88.6,57.6c-3,0-6,0.3-8.9,0.7c-7.1,2.4-13.6,6-19.4,10.4c7.1-3.8,15.4-6,24.2-6
			c26.6,0,48.1,19.8,48.1,44.2c0,24.4-21.5,44.2-48.1,44.2c-25,0-45.6-17.6-47.9-40.1c0,0.2,0,0.4,0,0.6c2.1,25.8,24.6,46.1,52,46.1
			c28.8,0,52.2-22.4,52.2-50.1S117.4,57.6,88.6,57.6z"/>
		<g>
			<g>
				<path d="M84.1,60.9c-0.4-4.5-0.6-9.2,0.7-13.6c1.9-6.3,7.4-7.6,13.3-6.4c-0.2-0.3-0.4-0.6-0.6-0.9c-0.7,2.1-1.2,1.8-2.7,0.3
					c-0.4,0.4-0.8,0.8-1.2,1.2c1.2,0.1,2.3,0.4,3.4,0.6c1,0.1,2-1.3,0.7-1.5c-1.2-0.1-2.3-0.4-3.4-0.6c-0.4-0.1-1.8,0.5-1.2,1.2
					c2.9,2.9,5,3.6,6.4-0.9c0.1-0.5-0.1-0.8-0.6-0.9c-5.5-1.1-11.2-0.5-14.5,4.6c-3.2,5-2.7,11.8-2.2,17.4
					C82.2,62.3,84.2,61.9,84.1,60.9L84.1,60.9z"/>
			</g>
		</g>
		<path stroke="#000000" stroke-miterlimit="10" d="M163.2,104.2c0-1.7-1.4-7.3-1.6-9c-3.9-12.8-10.9-20.1-22-28
			c9.9,10.7,15.9,24.7,15.9,39.9c0,33.9-29.5,61.4-65.9,61.4c-13.4,0-25.8-3.7-36.2-10.1c8.3,8.1,18.8,14.1,30.7,17
			c2.1,0.2,4.2,0.3,6.4,0.3C130.6,175.7,163.2,143.7,163.2,104.2z"/>
		<path d="M162.1,8.3c-10.9-11.1-28.6-11.1-39.4,0c-10.9,11.1-10.9,29.1,0,40.3l0.7,0.7l19,19.4l19.7-20.1
			C173,37.5,173,19.4,162.1,8.3z M159.6,46.1L159.6,46.1l-17.2,17.5l-16.5-16.8l-0.7-0.7c-9.5-9.7-9.5-25.4,0-35.1
			c9.5-9.7,24.9-9.7,34.4,0C169.1,20.7,169.1,36.4,159.6,46.1z"/>
		<path d="M170.3,11.8c-3.2,0-6.3,0.6-9.2,1.6c0.8,0.9,1.4,1.9,2.1,3c2.2-0.7,4.6-1.1,7.1-1.1c13.4,0,24.3,11.1,24.3,24.8
			c0,13.7-10.9,24.9-24.3,24.9h-0.1H146v-4.3l-3.5,3.6l0,0v4.4h27.9c15.4,0,27.8-12.8,27.8-28.5C198.2,24.5,185.7,11.8,170.3,11.8z"
			/>
	</g>
	<path fill="none" stroke="#000000" stroke-width="5" stroke-miterlimit="10" d="M76.5,89.7c0,7.5-4.7,13.6-10.5,13.6H38.6
		c-5.8,0-10.5-6.1-10.5-13.6v-2.6c0-7.5,4.7-13.6,10.5-13.6h27.4c5.8,0,10.5,6.1,10.5,13.6V89.7z"/>
	<path fill="none" stroke="#000000" stroke-width="5" stroke-miterlimit="10" d="M129.2,89.7c0,7.5-5.2,13.6-11.7,13.6H86.9
		c-6.4,0-11.7-6.1-11.7-13.6v-2.6c0-7.5,5.2-13.6,11.7-13.6h30.6c6.4,0,11.7,6.1,11.7,13.6V89.7z"/>
	<g>
		<g>
			<path d="M132.8,88c0.3-3,2.3-5.3,5.2-4.8c4.5,0.8,3.5,5,1.6,7.8c-0.6,0.8,2.1,0.5,2.3,0.5c1.1-0.2,2.7-0.6,3.4-1.5
				c1.4-1.9,2.8-4.7,1.2-6.9c-1.3-1.8-3.9-2.2-6-2.2c-5.4-0.1-13,2.6-13.5,8.8C127,90.2,132.7,89.7,132.8,88L132.8,88z"/>
		</g>
	</g>
	<g>
		<g>
			<path d="M32.1,87.8c1.7-1.1,3.4-2.3,5.1-3.4c0.9-0.6,0.8-1.3-0.4-1.3c-1.4-0.1-3,0.3-4.1,1.1c-1.7,1.1-3.4,2.3-5.1,3.4
				c-0.9,0.6-0.8,1.3,0.4,1.3C29.4,88.9,31,88.5,32.1,87.8L32.1,87.8z"/>
		</g>
	</g>
</g>
<g>
	<g id="XMLID_3_">
		<g>
			<path fill="#FFFFFF" d="M83.1,198.8c4.1,3,9,4.8,14.4,5c-0.1,0-0.1,0-0.2,0l-57.6,0.2c-7.1-0.4-14.4-2.3-20.1-6.7
				c-12.9-10.2-7.3-25.6-3.1-38.6c1.2-3.9,2.4-8.3,2.8-12.4h48.3c-4,0-7.2-3.2-7.2-7.2c0-3.9,3.2-7.2,7.1-7.2
				c5.3-1.1,13.3,3.4,13.3,10.2c0,11.4-5.7,19.3-8,30.7c-1.3,6.1-0.3,12,2.4,17C77.2,193.4,79.9,196.5,83.1,198.8z"/>
			<path fill="#FFFFFF" d="M75.3,189.9l22.6,0.1v0.1c-0.2,0-0.4,0-0.5,0c-2.7,0.3-4.6,2.7-4.3,5.4c0.2,2,1.9,3.5,3.9,3.5l-13.8-0.1
				C79.9,196.5,77.2,193.4,75.3,189.9L75.3,189.9z"/>
			<path fill="#FFFFFF" d="M98,190c3.1-0.1,5.9,2.3,6.2,5.5c0.4,4.1-2.5,7.8-6.6,8.4c-5.4-0.2-10.3-2-14.4-5l13.8,0.1
				c-2,0-3.6-1.5-3.9-3.5c-0.3-2.7,1.7-5.1,4.3-5.4C97.6,190,97.8,190,98,190z"/>
			<path fill="#FFFFFF" d="M67.6,146.3H19.4c0.6-7.6-1.6-14.1-11.9-14.4c0.1,0,0.1,0,0.2,0h59.9c-3.9,0-7.1,3.3-7.1,7.2
				C60.4,143.1,63.7,146.3,67.6,146.3z"/>
			<path fill="#FFFFFF" d="M7.5,131.9c10.2,0.3,12.5,6.8,11.9,14.4H7.7c-4,0-7.2-3.2-7.2-7.2C0.5,135.2,3.6,132,7.5,131.9z"/>
		</g>
		<g>
			<path fill="none" stroke="#000000" stroke-miterlimit="10" d="M19.4,146.3c-0.4,4.1-1.6,8.5-2.8,12.4c-4.2,13-9.8,28.4,3.1,38.6
				c5.7,4.5,13,6.3,20.1,6.7"/>
			<path fill="none" stroke="#000000" stroke-miterlimit="10" d="M6.7,131.9c0.3,0,0.5,0,0.8,0"/>
			<path fill="none" stroke="#000000" stroke-miterlimit="10" d="M67.6,131.9C67.6,131.9,67.6,131.9,67.6,131.9h-60
				c-0.1,0-0.1,0-0.2,0c-3.9,0.1-7,3.3-7,7.2c0,4,3.2,7.2,7.2,7.2h11.7h48.3c-4,0-7.2-3.2-7.2-7.2C60.4,135.2,63.6,131.9,67.6,131.9
				"/>
			<path fill="none" stroke="#000000" stroke-miterlimit="10" d="M98.1,203.8c-0.2,0-0.4,0-0.6,0c-5.4-0.2-10.3-2-14.4-5
				c-3.3-2.3-6-5.4-7.8-8.9c-2.7-5-3.7-10.9-2.4-17c2.3-11.4,8-19.3,8-30.7c0-6.8-8-11.4-13.3-10.2"/>
			<polyline fill="none" stroke="#000000" stroke-miterlimit="10" points="39.8,204.1 97.4,203.8 98.1,203.8 			"/>
			<path fill="none" stroke="#000000" stroke-miterlimit="10" d="M97,198.9c0.1,0,0.3,0,0.4,0c1.7-0.2,3-1.7,2.8-3.4
				c-0.1-1.4-1.4-2.4-2.8-2.2c-1.1,0.1-1.9,1.1-1.8,2.2c0.1,0.9,0.9,1.5,1.8,1.4"/>
			<path fill="none" stroke="#000000" stroke-miterlimit="10" d="M97.4,203.8c0.1,0,0.1,0,0.2,0c4.1-0.5,7.1-4.2,6.6-8.4
				c-0.3-3.2-3-5.5-6.2-5.5c-0.2,0-0.4,0-0.5,0c-2.7,0.3-4.6,2.7-4.3,5.4c0.2,2,1.9,3.5,3.9,3.5"/>
			<line fill="none" stroke="#000000" stroke-miterlimit="10" x1="98" y1="189.9" x2="75.3" y2="189.9"/>
			<polyline fill="none" stroke="#000000" stroke-miterlimit="10" points="97.2,198.9 97,198.9 97,198.9 83.1,198.8 82.8,198.8 			
				"/>
		</g>
	</g>
</g>
<g>
	<g>
		<path d="M93.5,162.2c-8.1,5.3-15.8,12.3-25.8,13.4c-0.9,0.1-1.6,1.1-0.3,1c10.6-1.2,18.7-8.3,27.3-13.9
			C95.8,162,94.1,161.8,93.5,162.2L93.5,162.2z"/>
	</g>
</g>
<g>
	<g>
		<path d="M17.6,166.6c-2.2-0.3-4.6-1-5.4-3.3c-0.8-2.3,1.4-4.4,3.1-5.4c0.8-0.5-1.1-0.2-1.5,0c-1.9,1.2-3.9,2.9-3.7,5.4
			c0.2,2.8,3.7,3.8,5.9,4.1C16.5,167.4,18.1,166.7,17.6,166.6L17.6,166.6z"/>
	</g>
</g>
</svg>
