<?xml version="1.0" encoding="utf-8"?>
<!-- Generator: Adobe Illustrator 18.0.0, SVG Export Plug-In . SVG Version: 6.00 Build 0)  -->
<!DOCTYPE svg PUBLIC "-//W3C//DTD SVG 1.1//EN" "http://www.w3.org/Graphics/SVG/1.1/DTD/svg11.dtd">
<svg version="1.1" id="Слой_1" xmlns="http://www.w3.org/2000/svg" xmlns:xlink="http://www.w3.org/1999/xlink" x="0px" y="0px"
	 viewBox="214.4 333.2 160.2 170.1" enable-background="new 214.4 333.2 160.2 170.1" xml:space="preserve">
<g>
	<ellipse fill="#FFFFFF" stroke="#231300" stroke-width="2" stroke-miterlimit="10" cx="284.2" cy="442.6" rx="61.7" ry="57.4"/>
	<g>
		<g>
			<path fill="#231300" d="M254.5,392.1c0.5-5.4,0.8-11.6-2.3-16.4c-2.8-4.4-8.4-4.3-12.9-3.4c-0.2,0-1.3,0.3-1.1,0.6
				c1.3,4.2,3.6,2.7,6.1,0.2c0.3-0.3-0.3-0.3-0.5-0.3c-1.1,0.1-2.1,0.4-3.2,0.5c-0.5,0.1-2.1,0.9-0.8,0.7c-0.7,0.1,2.2-0.3,1.9,0
				c-1.2,1.2-1.3-0.6-1.6-1.7c-0.4,0.2-0.8,0.4-1.1,0.6c13-2.6,14.5,9.8,13.6,19.6C252.6,392.8,254.5,392.7,254.5,392.1L254.5,392.1
				z"/>
		</g>
	</g>
	<path fill="#FFFFFF" stroke="#231300" stroke-width="2" stroke-miterlimit="10" d="M277.8,398.1c-7.5,0-14.1,3.4-18.4,8.6
		c-3.3-5.2-9.2-8.6-16-8.6c-10.4,0-18.8,8.1-18.8,18.1c0,10,8.4,18.1,18.8,18.1c4.8,0,9.2-1.7,12.5-4.6c3.5,8.5,12,14.5,22,14.5
		c13.1,0,23.6-10.3,23.6-23C301.4,408.4,290.8,398.1,277.8,398.1z"/>
	<ellipse fill="#231300" stroke="#231300" stroke-miterlimit="10" cx="246.5" cy="415.8" rx="3.5" ry="3.7"/>
	<ellipse fill="#231300" stroke="#231300" stroke-miterlimit="10" cx="270.6" cy="415.8" rx="3.5" ry="3.7"/>
	<g>
		<g>
			<path fill="#231300" d="M251.5,442.9c1.3,2.6,4.2,3.7,6.9,4.4c0.6,0.2,2.3-0.8,1.2-1c-2.3-0.6-5-1.6-6.1-3.9
				C253.1,441.7,251.2,442.4,251.5,442.9L251.5,442.9z"/>
		</g>
	</g>
	<g>
		<g>
			<path fill="#231300" d="M219.5,402.9c0.7-2.6,2.5-4.5,4.6-6c1.1-0.7-0.6-1.1-1.2-0.6c-2.5,1.7-4.5,3.9-5.3,6.8
				C217.3,403.9,219.3,403.6,219.5,402.9L219.5,402.9z"/>
		</g>
	</g>
	<g>
		<g>
			<path fill="#231300" d="M301.8,393.6c3.2,1.6,5.8,3.9,7.7,7c0.4,0.6,2.2,0,1.8-0.8c-2-3.1-4.6-5.5-7.9-7.2
				C302.7,392.3,300.9,393.2,301.8,393.6L301.8,393.6z"/>
		</g>
	</g>
	<path fill="#231300" stroke="#231300" stroke-miterlimit="10" d="M272.2,387c-2.8,0-5.6,0.2-8.3,0.7c-6.6,2.3-12.8,5.6-18.1,9.7
		c6.7-3.6,14.4-5.6,22.7-5.6c24.8,0,45,18.5,45,41.4c0,22.8-20.1,41.4-45,41.4c-23.4,0-42.6-16.5-44.8-37.5c0,0.2,0,0.4,0,0.6
		c2,24.1,23,43.1,48.6,43.1c26.9,0,48.8-21,48.8-46.8C320.9,408,299.1,387,272.2,387z"/>
	<g>
		<g>
			<path fill="#231300" d="M267.9,390.1c-0.5-4.6-0.6-9.3,0.9-13.7c1.2-3.4,3.7-5.7,7.6-5.8c1.6-0.1,4.1-0.1,3.2,2.2
				c0.1-0.2-1.1-1.2-1.7-1.8c-0.6,0.2-1.1,0.5-1.7,0.7c1.1,0.1,2.1,0.4,3.2,0.5c0.4,0.1,2.1-0.7,1.6-0.7c-1.1-0.1-2.1-0.4-3.2-0.5
				c-0.2,0-2.1,0.3-1.7,0.7c2.7,2.7,4.9,3,6.1-1c0-0.1,0-0.2-0.2-0.2c-4.3-0.8-9.8-0.8-12.9,2.8c-4.1,4.7-3.7,11.8-3.2,17.5
				C266,390.9,268,390.6,267.9,390.1L267.9,390.1z"/>
		</g>
	</g>
	<path fill="#231300" stroke="#231300" stroke-miterlimit="10" d="M341.9,430.6c0-1.6-1.3-6.8-1.4-8.4c-3.7-12-10.2-18.8-20.6-26.2
		c9.3,10,14.9,23.1,14.9,37.3c0,31.7-27.6,57.4-61.7,57.4c-12.5,0-24.1-3.5-33.8-9.4c7.7,7.5,17.6,13.1,28.8,15.9c2,0.2,4,0.3,6,0.3
		C311.4,497.5,341.9,467.6,341.9,430.6z"/>
	<path fill="#FFFFFF" d="M348.6,344.2c-3,0-5.9,0.5-8.6,1.5c0.7,0.9,1.4,1.8,1.9,2.8c2.1-0.7-16.1,41.5-16.1,41.5l-3.3,3.4l0,0v4.1
		h26.1c14.4,0,26-11.9,26-26.6C374.6,356.1,363,344.2,348.6,344.2z"/>
	<path fill="#231300" d="M340.9,341c-10.2-10.4-26.8-10.4-36.9,0c-10.2,10.4-10.2,27.2,0,37.7l0.7,0.6l17.8,18.1l18.4-18.8
		C351.1,368.2,351.1,351.3,340.9,341z M338.6,376.3L338.6,376.3l-16.1,16.4L307,377l-0.7-0.7c-8.9-9.1-8.9-23.8,0-32.9
		c8.9-9.1,23.3-9.1,32.2,0C347.4,352.5,347.4,367.2,338.6,376.3z"/>
	<path fill="#231300" d="M348.6,344.2c-3,0-5.9,0.5-8.6,1.5c0.7,0.9,1.4,1.8,1.9,2.8c2.1-0.7,4.3-1,6.6-1
		c12.6,0,22.7,10.4,22.7,23.2c0,12.8-10.2,23.2-22.7,23.2h-0.1h-22.6v-4l-3.3,3.4l0,0v4.1h26.1c14.4,0,26-11.9,26-26.6
		C374.6,356.1,362.9,344.2,348.6,344.2z"/>
	<path fill="#FFFFFF" d="M306.2,376.3L306.2,376.3l16.1,16.5l15.6-15.7l0.7-0.7c9-9.1,9.1-23.8,0.1-32.9c-8.9-9.1-23.4-9.2-32.4-0.1
		C297.3,352.4,297.3,367.2,306.2,376.3z"/>
</g>
<rect x="221.7" y="462.2" fill="#FFFFFF" stroke="#231300" stroke-miterlimit="10" width="68.5" height="40.6"/>
<ellipse fill="#FFFFFF" stroke="#231300" stroke-miterlimit="10" cx="256.4" cy="483.4" rx="17.3" ry="16.1"/>
<radialGradient id="SVGID_1_" cx="256.3757" cy="483.4363" r="20.0033" gradientUnits="userSpaceOnUse">
	<stop  offset="0" style="stop-color:#FFFFFF"/>
	<stop  offset="0.1024" style="stop-color:#FAFAFA"/>
	<stop  offset="0.2261" style="stop-color:#EBEBEB"/>
	<stop  offset="0.3607" style="stop-color:#D3D3D3"/>
	<stop  offset="0.5033" style="stop-color:#B1B1B1"/>
	<stop  offset="0.652" style="stop-color:#858585"/>
	<stop  offset="0.806" style="stop-color:#4F4F4F"/>
	<stop  offset="0.9614" style="stop-color:#111111"/>
	<stop  offset="1" style="stop-color:#000000"/>
</radialGradient>
<ellipse fill="url(#SVGID_1_)" stroke="#231300" stroke-miterlimit="10" cx="256.4" cy="483.4" rx="15.3" ry="14.2"/>
<g>
	<g>
		<path fill="#231300" d="M304.9,472.2c-1.1,10.3-7.9,19.7-19.5,16.9c-0.5-0.1-2.2,0.6-1.6,0.8c12.6,3.1,21.7-5.9,23-18.2
			C306.9,471.4,305,471.6,304.9,472.2L304.9,472.2z"/>
	</g>
</g>
<g>
	<g>
		<path fill="#231300" d="M221.8,453.5c-9.1,5.7-11.3,24.5,2.4,25c0.9,0,2-1.3,0.7-1.4c-12.5-0.5-9.8-17.9-1.8-22.8
			C224.2,453.6,222.6,453,221.8,453.5L221.8,453.5z"/>
	</g>
</g>
<rect x="276.4" y="455.3" fill="#FFFFFF" stroke="#231300" stroke-miterlimit="10" width="13.3" height="5.9"/>
<path fill="#C9C9C9" stroke="#B1B0B0" stroke-miterlimit="10" d="M286.8,465.3c-3.2-5.5-3.6-5.8-5.6-3.1c1.3-3.2,0.7-3.3-5.6-3.1
	c6.3-0.3,6.9-1.3,3.7-6.8c3.2,5.5,3.6,5.8,5.6,3.1c-1.3,3.2-0.7,3.3,5.6,3.1C284.2,458.8,283.7,459.8,286.8,465.3z"/>
</svg>
