<?xml version="1.0" encoding="utf-8"?>
<!-- Generator: Adobe Illustrator 18.0.0, SVG Export Plug-In . SVG Version: 6.00 Build 0)  -->
<!DOCTYPE svg PUBLIC "-//W3C//DTD SVG 1.1//EN" "http://www.w3.org/Graphics/SVG/1.1/DTD/svg11.dtd">
<svg version="1.1" id="Слой_1" xmlns="http://www.w3.org/2000/svg" xmlns:xlink="http://www.w3.org/1999/xlink" x="0px" y="0px"
	 viewBox="207.7 340.3 180.7 161" enable-background="new 207.7 340.3 180.7 161" xml:space="preserve">
<path fill="#FFFFFF" d="M322,383.1l0.7,0.6l16.7,17h24.6c13.5,0,24.5-11.2,24.5-25c0-13.8-11-25-24.5-25c-1.5,0-3,0.1-4.4,0.4
	c-0.8-1.2-1.7-2.4-2.8-3.4c-9.6-9.8-25.2-9.8-34.7,0C312.4,357.4,312.4,373.3,322,383.1z"/>
<g>
	<path fill="#FFFFFF" stroke="#231300" stroke-miterlimit="10" d="M232.4,390.4l-13.3,9.5c-13.5,10.3-12.4,26.9-7.7,38.4l15.7,37.9
		c4.6,11.1,15.3,19.4,27.3,20l16.2-0.1l-6.6-35.5l-9,5.9c-5.4,3.5-12.7,1.5-15.5-4.4l-12.5-26c-2.9-6.1,0.4-13.3,6.9-15l4.1-1.1
		L232.4,390.4z"/>
	
		<ellipse transform="matrix(0.9832 -0.1827 0.1827 0.9832 -70.0933 49.7912)" fill="#FFFFFF" stroke="#231300" stroke-miterlimit="10" cx="235.1" cy="405.2" rx="11.8" ry="15.1"/>
	
		<ellipse transform="matrix(0.9832 -0.1827 0.1827 0.9832 -82.9323 56.9085)" fill="#FFFFFF" stroke="#231300" stroke-miterlimit="10" cx="267.3" cy="478.5" rx="13.6" ry="18.1"/>
</g>
<g>
	<path fill="#FFFFFF" d="M363.9,350.7c-2.8,0-5.5,0.5-8.1,1.4c0.7,0.8,1.3,1.7,1.8,2.6c2-0.6-15.2,39-15.2,39l-3.1,3.2l0,0v3.9h24.6
		c13.5,0,24.5-11.2,24.5-25C388.4,361.9,377.4,350.7,363.9,350.7z"/>
	<ellipse fill="#FFFFFF" stroke="#231300" stroke-width="2" stroke-miterlimit="10" cx="303.3" cy="443.3" rx="58" ry="54"/>
	<g>
		<g>
			<path fill="#231300" d="M275.5,395.9c0.5-5.1,0.7-10.6-1.9-15.1c-2.6-4.6-8.2-4.7-12.8-3.8c-0.3,0.1-0.9,0.4-0.8,0.8
				c1.2,4,3.2,3,5.8,0.5c0.5-0.5-0.2-0.9-0.7-0.9c-1,0.1-2,0.4-3,0.5c-1,0.1-1.5,1.4-0.2,1.3c1-0.1,2-0.4,3-0.5
				c-0.2-0.3-0.5-0.6-0.7-0.9c-1.1,1.1-1.8,1-2.2-0.5c-0.3,0.3-0.5,0.6-0.8,0.8c12-2.4,13.3,9,12.4,18
				C273.4,397,275.4,396.7,275.5,395.9L275.5,395.9z"/>
		</g>
	</g>
	<path fill="#FFFFFF" stroke="#231300" stroke-width="2" stroke-miterlimit="10" d="M297.3,401.4c-7,0-13.3,3.2-17.3,8.1
		c-3.1-4.9-8.7-8.1-15-8.1c-9.8,0-17.7,7.6-17.7,17c0,9.4,7.9,17,17.7,17c4.5,0,8.6-1.6,11.7-4.3c3.3,8,11.3,13.6,20.6,13.6
		c12.3,0,22.2-9.7,22.2-21.7C319.5,411.1,309.6,401.4,297.3,401.4z"/>
	<ellipse fill="#231300" stroke="#231300" stroke-miterlimit="10" cx="267.9" cy="418.1" rx="3.2" ry="3.4"/>
	<ellipse fill="#231300" stroke="#231300" stroke-miterlimit="10" cx="290.5" cy="418.1" rx="3.2" ry="3.4"/>
	<g>
		<g>
			<path fill="#231300" d="M242.5,406c0.7-2.4,2.3-4.2,4.3-5.5c1.1-0.7-0.5-1.2-1.2-0.8c-2.3,1.6-4.2,3.7-5,6.5
				C240.4,407,242.3,406.8,242.5,406L242.5,406z"/>
		</g>
	</g>
	<g>
		<g>
			<path fill="#231300" d="M319.8,397.2c3,1.5,5.4,3.7,7.2,6.6c0.3,0.5,2.2-0.1,1.8-0.8c-1.8-3-4.4-5.2-7.5-6.8
				C320.8,396,319,396.8,319.8,397.2L319.8,397.2z"/>
		</g>
	</g>
	<path fill="#231300" stroke="#231300" stroke-miterlimit="10" d="M292,391c-2.7,0-5.3,0.2-7.8,0.6c-6.3,2.1-12,5.2-17,9.1
		c6.3-3.4,13.5-5.3,21.3-5.3c23.4,0,42.3,17.4,42.3,38.9c0,21.5-18.9,38.9-42.3,38.9c-22,0-40.1-15.5-42.1-35.3c0,0.2,0,0.3,0,0.5
		c1.9,22.7,21.6,40.5,45.7,40.5c25.3,0,45.9-19.7,45.9-44C337.9,410.7,317.4,391,292,391z"/>
	<g>
		<g>
			<path fill="#231300" d="M288.1,393.9c-0.4-4-0.5-8.1,0.6-11.9c1.6-5.5,6.4-6.6,11.6-5.6c-0.2-0.3-0.4-0.6-0.6-0.8
				c-0.6,1.8-0.8,1.6-2.2,0.2c-0.4,0.4-0.8,0.8-1.2,1.2c1,0.1,2,0.4,3,0.5c1,0.1,2-1.3,0.7-1.5c-1-0.1-2-0.4-3-0.5
				c-0.4-0.1-1.8,0.5-1.2,1.2c2.6,2.6,4.6,3.2,5.8-0.8c0.1-0.5-0.1-0.8-0.6-0.8c-4.9-1-9.9-0.4-12.9,4.1c-2.8,4.4-2.4,10.4-1.9,15.4
				C286.3,395.3,288.2,394.9,288.1,393.9L288.1,393.9z"/>
		</g>
	</g>
	<path fill="#231300" stroke="#231300" stroke-miterlimit="10" d="M357.6,432c0-1.5-1.3-6.4-1.4-7.9c-3.5-11.3-9.6-17.7-19.4-24.6
		c8.7,9.4,14,21.7,14,35.1c0,29.8-26,54-58,54c-11.8,0-22.7-3.3-31.8-8.9c7.3,7.1,16.6,12.4,27,15c1.9,0.2,3.7,0.3,5.6,0.3
		C329,494.9,357.6,466.8,357.6,432z"/>
	<path fill="#231300" d="M356.7,347.7c-9.6-9.8-25.2-9.8-34.7,0c-9.6,9.8-9.6,25.6,0,35.4l0.7,0.6l16.7,17l17.3-17.7
		C366.2,373.3,366.2,357.5,356.7,347.7z M354.5,380.9L354.5,380.9l-15.1,15.4l-14.5-14.8l-0.6-0.7c-8.4-8.5-8.4-22.4,0-30.9
		c8.4-8.5,21.9-8.5,30.3,0C362.8,358.6,362.8,372.4,354.5,380.9z"/>
	<path fill="#231300" d="M363.9,350.7c-2.8,0-4.5,0.5-7.1,1.4c0.7,0.8,1.3,1.7,1.8,2.6c2-0.6,3.1-0.9,5.3-0.9
		c11.8,0,21.4,9.8,21.4,21.8c0,12.1-9.6,21.9-21.4,21.9h-0.1h-21.3v-3.7l-3.1,3.2l0,0v3.9h24.6c13.5,0,24.5-11.2,24.5-25
		C388.4,361.9,377.4,350.7,363.9,350.7z"/>
	<g>
		<g>
			<path fill="#231300" d="M270.6,444.2c1.2,3.3,4.2,6.3,7.5,7.6c1.5,0.6,4.5,0.6,5.6-1c1.5-2.3-0.4-4.2-2.5-4.7
				c-2.9-0.7-6.4,0.3-9.1-1c-0.5-0.3-2.1,0.5-1.8,0.7c3.4,1.7,7.8-0.2,11.1,1.8c0.9,0.6,1,1.9,0.8,2.9c-0.3,1.5-2.3,0.7-3.1,0.3
				c-2.8-1.3-5.4-4.2-6.4-7.1C272.3,443.2,270.4,443.8,270.6,444.2L270.6,444.2z"/>
		</g>
	</g>
</g>
<circle fill="#231300" stroke="#FFFFFF" stroke-miterlimit="10" cx="235.1" cy="396.8" r="1.7"/>
<circle fill="#231300" stroke="#FFFFFF" stroke-miterlimit="10" cx="230.3" cy="400.8" r="1.7"/>
<circle fill="#231300" stroke="#FFFFFF" stroke-miterlimit="10" cx="230.3" cy="407.9" r="1.7"/>
<circle fill="#231300" stroke="#FFFFFF" stroke-miterlimit="10" cx="235.1" cy="412.9" r="1.7"/>
<circle fill="#231300" stroke="#FFFFFF" stroke-miterlimit="10" cx="240.6" cy="409.9" r="1.7"/>
<circle fill="#231300" stroke="#FFFFFF" stroke-miterlimit="10" cx="239.8" cy="400.8" r="1.7"/>
<g>
	<g>
		<path fill="#231300" d="M296,484.4c1.3,4.2-4.3,11.4-8.2,12.5c-1.2,0.3-0.9,1.5,0.3,1.1c2.7-0.8,4.9-3.1,6.6-5.3
			c1.8-2.3,4.2-5.8,3.2-8.9C297.7,483.1,295.8,483.7,296,484.4L296,484.4z"/>
	</g>
</g>
<g>
	<g>
		<path fill="#231300" d="M222.3,469.2c1.3,1.3,3,1.8,4.9,1.9c0.5,0,1-0.1,1.3-0.6c0.2-0.4-0.2-0.8-0.6-0.8
			c-1.4-0.1-2.8-0.4-3.8-1.4C223.5,467.7,221.7,468.5,222.3,469.2L222.3,469.2z"/>
	</g>
</g>
<g>
	<g>
		<path fill="#231300" d="M238.9,458.9c2.4-1.8,5-2.4,8-2.4c0.8,0,2-1.2,0.7-1.2c-3.7,0-7,0.7-10,2.9
			C236.6,459,238.2,459.4,238.9,458.9L238.9,458.9z"/>
	</g>
</g>
<g>
	<g>
		<path fill="#231300" d="M233.1,486.2c-2.8,0.2-8.1,2.2-7.1,6.1c0.6,2.2,3,4.5,5.3,2.9c2.8-2-1.2-5.8-3.1-6.4c-3-1-7.4,0.6-9.6,2.7
			c-2.6,2.4-3.4,6.3-0.5,8.8c1.6,1.4,4.2,1.4,5.5-0.3c2.7-3.4-2.2-7.6-5.2-8.2c-4.8-1.1-7.4,2.8-9.4,6.4c-0.5,0.9,1.5,0.8,1.8,0.2
			c0.7-1.3,1.4-2.6,2.3-3.8c3.6-4.7,7.8-0.2,8.8,2.6c0.7,2-1.1,3.3-2.6,2c-1.1-1-1.2-2.5-1.1-3.8c0.4-3.7,5.1-5.4,8.2-5.3
			c2,0.1,3,1.5,3.5,3.2c-0.4,1.3-1,1.3-1.6,0c-1.4-2.9,0.1-4.8,4.4-5.6C233.9,487.4,234.4,486.1,233.1,486.2L233.1,486.2z"/>
	</g>
</g>
</svg>
