<?xml version="1.0" encoding="utf-8"?>
<!-- Generator: Adobe Illustrator 18.0.0, SVG Export Plug-In . SVG Version: 6.00 Build 0)  -->
<!DOCTYPE svg PUBLIC "-//W3C//DTD SVG 1.1//EN" "http://www.w3.org/Graphics/SVG/1.1/DTD/svg11.dtd">
<svg version="1.1" id="Слой_1" xmlns="http://www.w3.org/2000/svg" xmlns:xlink="http://www.w3.org/1999/xlink" x="0px" y="0px"
	 viewBox="203.5 321 175.7 174.5" enable-background="new 203.5 321 175.7 174.5" xml:space="preserve">
<g>
	<ellipse fill="#FFFFFF" stroke="#231300" stroke-width="2" stroke-miterlimit="10" cx="307" cy="408.3" rx="49.2" ry="45.8"/>
	<g>
		<g>
			<path fill="#231300" d="M283.6,367.9c0.4-4.3,0.6-9.3-1.8-13.1c-2.3-3.5-6.8-3.5-10.4-2.8c-0.2,0-1.3,0.3-1.1,0.6
				c1.1,3.5,3.2,2.2,5.2,0.1c0.4-0.4-0.6-0.3-0.7-0.3c-0.9,0.1-1.7,0.3-2.5,0.4c-0.8,0.1-1.7,0.9-0.3,0.8c0.9-0.1,1.7-0.3,2.5-0.4
				c-0.2-0.1-0.5-0.2-0.7-0.3c-1.2,1.2-1.1,0.6-1.6-0.7c-0.4,0.2-0.8,0.4-1.1,0.6c10.3-2,11.4,7.9,10.7,15.6
				C281.6,368.8,283.5,368.5,283.6,367.9L283.6,367.9z"/>
		</g>
	</g>
	<path fill="#FFFFFF" stroke="#231300" stroke-width="2" stroke-miterlimit="10" d="M301.9,372.8c-6,0-11.3,2.7-14.7,6.9
		c-2.6-4.1-7.4-6.9-12.8-6.9c-8.3,0-15,6.5-15,14.4c0,8,6.7,14.4,15,14.4c3.8,0,7.3-1.4,10-3.7c2.8,6.8,9.6,11.6,17.5,11.6
		c10.4,0,18.9-8.2,18.9-18.4C320.8,381,312.3,372.8,301.9,372.8z"/>
	<ellipse fill="#231300" stroke="#231300" stroke-miterlimit="10" cx="277" cy="386.9" rx="2.8" ry="2.9"/>
	<ellipse fill="#231300" stroke="#231300" stroke-miterlimit="10" cx="296.2" cy="386.9" rx="2.8" ry="2.9"/>
	<g>
		<g>
			<path fill="#231300" d="M280.8,408.6c1,2,3.3,2.9,5.3,3.4c0.4,0.1,1-0.1,1.4-0.2c0.2-0.1,0.7-0.4,0.2-0.5c-1.9-0.5-4.1-1.3-5-3.2
				C282.4,407.6,280.6,408.3,280.8,408.6L280.8,408.6z"/>
		</g>
	</g>
	<g>
		<g>
			<path fill="#231300" d="M255.6,376.6c0.6-2.1,2-3.7,3.8-4.9c0.3-0.2,0.2-0.5-0.1-0.5c-0.5,0-1,0.1-1.4,0.4
				c-1.9,1.3-3.5,3-4.2,5.3C253.5,377.4,255.5,377.1,255.6,376.6L255.6,376.6z"/>
		</g>
	</g>
	<g>
		<g>
			<path fill="#231300" d="M320.9,369.3c2.5,1.3,4.6,3.1,6.1,5.6c0.4,0.6,2.2-0.1,1.8-0.8c-1.6-2.5-3.7-4.4-6.4-5.8
				C321.8,368,320.1,368.9,320.9,369.3L320.9,369.3z"/>
		</g>
	</g>
	<path fill="#231300" stroke="#231300" stroke-miterlimit="10" d="M297.4,363.9c-2.3,0-4.5,0.2-6.7,0.5c-5.3,1.8-10.2,4.4-14.4,7.7
		c5.3-2.9,11.5-4.5,18.1-4.5c19.8,0,35.9,14.8,35.9,33c0,18.2-16.1,33-35.9,33c-18.7,0-34-13.1-35.7-29.9c0,0.1,0,0.3,0,0.4
		c1.6,19.2,18.3,34.4,38.8,34.4c21.5,0,38.9-16.7,38.9-37.4C336.4,380.7,318.9,363.9,297.4,363.9z"/>
	<g>
		<g>
			<path fill="#231300" d="M294.3,366.4c-0.3-3.5-0.4-7,0.6-10.3c0.6-2,1.8-3.7,3.7-4.6c1.5-0.7,3.2-0.4,4.7-0.2
				c0.3,0.3,0.4,0.6,0.2,0.9c-0.4-0.4-0.8-0.8-1.2-1.1c-0.5,0.3-1,0.6-1.5,0.9c0.9,0.1,1.7,0.3,2.5,0.4c0.6,0.1,2.3-0.8,1.2-1
				c-0.9-0.1-1.7-0.3-2.5-0.4c-0.3,0-2,0.3-1.5,0.9c2.3,2.3,4.2,2.5,5.3-0.9c0.1-0.2-0.2-0.3-0.4-0.4c-4.1-0.8-8.4-0.4-11.1,3.1
				c-2.7,3.6-2.3,9.1-1.9,13.3C292.4,367.4,294.3,367,294.3,366.4L294.3,366.4z"/>
		</g>
	</g>
	<path fill="#231300" stroke="#231300" stroke-miterlimit="10" d="M353.1,398.7c0-1.3-1.1-5.5-1.2-6.7c-2.9-9.6-8.1-15-16.4-20.9
		c7.4,8,11.9,18.4,11.9,29.8c0,25.3-22,45.8-49.2,45.8c-10,0-19.2-2.8-27-7.5c6.2,6,14.1,10.5,22.9,12.7c1.6,0.1,3.2,0.2,4.8,0.2
		C328.8,452.1,353.1,428.2,353.1,398.7z"/>
	<path fill="#FFFFFF" d="M358.4,329.8c-2.4,0-4.7,0.4-6.8,1.2c0.6,0.7,1.1,1.5,1.5,2.2c1.7-0.5-12.9,33.1-12.9,33.1l-2.6,2.7l0,0
		v3.3h20.8c11.5,0,20.8-9.5,20.8-21.2C379.2,339.2,369.9,329.8,358.4,329.8z"/>
	<path fill="#231300" d="M352.3,327.2c-8.1-8.3-21.4-8.3-29.4,0c-8.1,8.3-8.1,21.7,0,30.1l0.6,0.5l14.2,14.5l14.7-15
		C360.4,348.9,360.4,335.5,352.3,327.2z M350.4,355.4L350.4,355.4l-12.8,13.1L325.2,356l-0.5-0.6c-7.1-7.2-7.1-19,0-26.2
		c7.1-7.2,18.6-7.2,25.7,0C357.5,336.4,357.5,348.2,350.4,355.4z"/>
	<path fill="#231300" d="M358.4,329.8c-2.4,0-4.7,0.4-6.8,1.2c0.6,0.7,1.1,1.5,1.5,2.2c1.7-0.5,3.5-0.8,5.3-0.8
		c10,0,18.1,8.3,18.1,18.5c0,10.2-8.1,18.5-18.1,18.5h-0.1h-18.1v-3.2l-2.6,2.7l0,0v3.3h20.8c11.5,0,20.8-9.5,20.8-21.2
		C379.2,339.2,369.9,329.8,358.4,329.8z"/>
	<path fill="#FFFFFF" d="M324.6,355.4L324.6,355.4l12.9,13.2l12.5-12.5l0.5-0.6c7.2-7.2,7.2-19,0.1-26.3c-7.1-7.3-18.7-7.3-25.9-0.1
		C317.5,336.3,317.5,348.1,324.6,355.4z"/>
</g>
<g>
	<g>
		<path fill="#231300" d="M276.3,437.8c-4.1,3.2-5.6,8.1-5.2,13.2c0,0.3,2,0,1.9-0.5c-0.4-4.9,1-9.7,5-12.8
			C278.4,437.3,276.6,437.5,276.3,437.8L276.3,437.8z"/>
	</g>
</g>
<g>
	<g>
		<path fill="#231300" d="M289.7,440.5c-5.7,2.1-10,7.2-11.3,13.1c-0.2,0.9,1.8,0.6,2-0.2c1.2-5.4,5-9.9,10.2-11.8
			C291.8,441.1,290.7,440.2,289.7,440.5L289.7,440.5z"/>
	</g>
</g>
<path fill="#FFFFFF" stroke="#231300" stroke-miterlimit="10" d="M325.4,490.3l-8.2-9.6l4.4-8.3l12.6,1.3l4.1,4.8
	c0.6-6.8-2.8-13.6-9.1-16.9c-6.8-3.6-15-2.2-20.4,2.9L238.9,427c1.3-7.3-2.1-14.9-8.9-18.6c-6.4-3.4-14.1-2.4-19.4,2l6.8,0.7
	l8.2,9.6l-4.4,8.3l-12.6-1.3l-4.5-5.3c-0.7,6.9,2.6,13.9,9.1,17.4c6.8,3.6,15,2.2,20.4-2.9l69.8,37.3c-1.3,7.3,2.1,14.9,8.9,18.6
	c6.4,3.4,14,2.4,19.4-2L325.4,490.3z"/>
</svg>
