<?xml version="1.0" encoding="utf-8"?>
<!-- Generator: Adobe Illustrator 18.0.0, SVG Export Plug-In . SVG Version: 6.00 Build 0)  -->
<!DOCTYPE svg PUBLIC "-//W3C//DTD SVG 1.1//EN" "http://www.w3.org/Graphics/SVG/1.1/DTD/svg11.dtd">
<svg version="1.1" id="Слой_1" xmlns="http://www.w3.org/2000/svg" xmlns:xlink="http://www.w3.org/1999/xlink" x="0px" y="0px"
	 viewBox="68.8 368.3 338.4 162" enable-background="new 68.8 368.3 338.4 162" xml:space="preserve">
<g>
	<g>
		<path fill="#FFFFFF" stroke="#231300" stroke-miterlimit="10" d="M318,404l-4,1.4l-18.2,3.8l-17.6-13.6L266,409.2l-10.5-3.8
			l-10,7.7l-9.1-20.7l-5.4,6.9h-6.3l7,33.2l62.9,15.2l24.6-27.1L318,404z M236.3,426.7l-4.6,5.9l-22.3-4.2l-32.8-1.7l-44.9,2.4
			l-28.6-2.4l-11.9-31l-8.6,9.8l3.4,39.4l-16.7,16l13.3,27.6v32.5l28,5l32.7,3.7l12.8-2.3l6.5-1.2l29.1-5.2l53.8,8.7h35.7l69.5-8.7
			l23.7,8.7l20.5-8.7l6.2-9.1l-6.2-21.4l6.2-15.1l-6.2-23.5l11.7-29.8L395,405.4l-9.8-5.1l-14.1,8"/>
	</g>
	<g>
		<polyline fill="#FFFFFF" stroke="#231300" stroke-width="2" stroke-miterlimit="10" points="389.2,445.7 379.4,416 372.8,406.8 
			357.7,396.9 326.7,398.1 321,401.3 311.5,410.4 304.6,424.9 306.5,449.6 318.9,465.8 328.9,471.5 		"/>
		<g>
			<g>
				<path fill="#231300" d="M324.7,399.1c0.1-1.4,0.5-3.3,0.2-4.6c-0.5-1.9-1-3.8-1.5-5.7c-0.4-1.6-0.4-1.5-2-1.9
					c-2-0.5-3.9-1.1-5.9-1.6c-0.5-0.1-1.5,0.1-1.7,0.5c-0.1,0.1-0.1,0.2-0.2,0.3c0,0,0,0.1,0,0.1c1.1,1.8,3.3,0.8,4.5-0.2
					c0.4-0.3-0.3-0.4-0.5-0.3c-0.9,0.1-1.7,0.2-2.6,0.5c-1.1,0.3-1,0.9,0.2,0.6c0.5-0.1,1-0.2,1.6-0.3c-0.2-0.1-0.3-0.2-0.5-0.3
					c-0.5,0.4-0.9-0.3-0.7-0.7c-0.6,0.2-1.2,0.4-1.7,0.5c1.7,0.4,3.3,0.9,5,1.3c2.2,0.6,2.1,0.3,2.7,2.4c0.5,1.8,0.9,3.5,1.4,5.3
					c0.4,1.3-0.1,3.3-0.2,4.6C322.7,399.9,324.7,399.7,324.7,399.1L324.7,399.1z"/>
			</g>
		</g>
		<polygon fill="#FFFFFF" stroke="#231300" stroke-width="2" stroke-miterlimit="10" points="331,406 327.7,409.1 327.3,409.1 
			321.2,404.1 317.1,403.4 309.6,405.9 305.8,411 305.6,420.4 317.1,428.5 320.6,427.9 325,425.5 325.3,425.6 331,432.7 
			350.3,430.9 353.5,426.2 352.3,410.3 348.4,406.3 343.3,403.8 		"/>
		<polygon fill="#231300" stroke="#231300" stroke-miterlimit="10" points="321.4,415.7 319.1,418.2 316.9,415.7 319.1,413.1 		"/>
		<polygon fill="#231300" stroke="#231300" stroke-miterlimit="10" points="337.1,415.7 334.8,418.2 332.6,415.7 334.8,413.1 		"/>
		<g>
			<g>
				<path fill="#231300" d="M301.8,406.8c1.1-1.5,2.2-3,3.2-4.4c0.4-0.6-1.5-0.3-1.8,0.1c-1.1,1.5-2.2,3-3.2,4.4
					C299.6,407.4,301.5,407.2,301.8,406.8L301.8,406.8z"/>
			</g>
		</g>
		<g>
			<g>
				<path fill="#231300" d="M354.8,400.3c1.7,1.6,3.4,3.3,5.1,4.9c0.5,0.5,2.3-0.2,1.8-0.8c-1.7-1.6-3.4-3.3-5.1-4.9
					C356,399,354.2,399.7,354.8,400.3L354.8,400.3z"/>
			</g>
		</g>
		<path fill="#FFFFFF" stroke="#231300" stroke-miterlimit="10" d="M335.9,395.6l-5.4,0.5l0,0l-9.5,5l0.2,0.5l5.9-2l6.4-0.7
			l14.2,3.6l5.5,3.9l8.7,14.4l0.3,12.7l-3.5,8.8l-13.2,11.6l-24.2,0c0,0-16.6-17.7-17.1-23.5c0,0.1,0,0.3,0,0.4
			c0.4,4.8,7.6,18.7,7.6,18.7l12.8,9.2l24-0.6l14.9-13.6l3.1-7.7l0-17L356,403l-7.8-4.8L335.9,395.6z"/>
		<g>
			<g>
				<path fill="#231300" d="M333.5,397.7c-0.1-1.6-0.5-3.8,0-5.3c0.6-2.2,1.3-4.3,1.9-6.5c-0.3,0.2-0.6,0.4-0.8,0.6
					c2.4-0.6,4.8-1.2,7.2-1.8c-0.4-0.1-0.7-0.1-1.1-0.2c0.1,0.1,1.1,1.3-0.6-0.2c-0.5,0.3-1,0.6-1.5,0.9c0.7,0.1,1.4,0.2,2.1,0.4
					c0.6,0.1,2.3-0.7,1.2-1c-0.7-0.2-1.4-0.3-2.1-0.4c-0.2,0-2.1,0.4-1.5,0.9c1.4,1.1,3.4,1.3,4.5-0.5c0.1-0.1,0.1-0.2,0.1-0.3
					c-0.1-0.1-0.1-0.2-0.2-0.3c-0.2-0.4-0.8-0.3-1.1-0.2c-1.9,0.5-3.9,1-5.8,1.5c-1.3,0.3-2.1,0.3-2.5,1.6c-0.6,2-1.2,4.1-1.8,6.1
					c-0.4,1.5,0.1,3.7,0.1,5.2C331.5,398.8,333.5,398.4,333.5,397.7L333.5,397.7z"/>
			</g>
		</g>
		<g>
			<g>
				<path fill="#231300" d="M321,436.2c2.3-0.3,4.6-0.1,6.8,0.7c0.5,0.2,2.3-0.6,1.6-0.9c-2.6-0.9-5.3-1.1-8-0.8
					C320.5,435.3,319.7,436.3,321,436.2L321,436.2z"/>
			</g>
		</g>
	</g>
	<g>
		<polyline fill="#FFFFFF" stroke="#231300" stroke-width="2" stroke-miterlimit="10" points="284.9,481.6 290.7,476.1 297.6,457.3 
			296.7,450 278.4,429.3 268.7,426.7 252.9,428.3 240.4,436 234.9,443.1 231.7,451.7 		"/>
		<g>
			<g>
				<path fill="#231300" d="M281.8,430c-0.1-1.3-0.4-2.7,0-4c0.5-1.7,1-3.3,1.4-5c-0.3,0.2-0.6,0.3-0.9,0.5c2-0.5,4-1,6.1-1.5
					c-0.4,0-0.7,0-1.1-0.1c0.3,0.5,0-0.1-0.2-0.3c-0.5,0.2-1,0.5-1.5,0.7c0.5,0,1,0.1,1.5,0.3c0.5,0.1,2.2-0.6,1.6-0.8
					c-0.6-0.1-1.2-0.3-1.9-0.3c-0.2,0-2,0.4-1.5,0.7c1.2,1,3.2,0.8,4.1-0.6c0,0,0-0.1,0-0.1c-0.1-0.1-0.1-0.2-0.2-0.3
					c-0.2-0.3-0.8-0.1-1.1-0.1c-1.5,0.4-2.9,0.7-4.4,1.1c-0.8,0.2-2.4,0.3-2.6,1.2c-0.5,1.7-1,3.4-1.5,5.1c-0.3,1.1,0.1,2.6,0.1,3.8
					C279.9,430.8,281.9,430.5,281.8,430L281.8,430z"/>
			</g>
		</g>
		<polygon fill="#FFFFFF" stroke="#231300" stroke-width="2" stroke-miterlimit="10" points="267.8,433.3 274.8,435.4 277.6,437.8 
			277.9,437.7 283,433.9 286.4,433.3 295.7,439.3 295.9,446.5 286.4,452.8 283.4,452.4 279.9,450.5 279.6,450.5 274.9,456 
			267.8,458.1 259,454.6 255.4,443.2 257.3,438.7 264.7,433.7 		"/>
		<polygon fill="#231300" stroke="#231300" stroke-miterlimit="10" points="282.8,442.9 284.7,444.8 286.5,442.9 284.7,440.9 		"/>
		<polygon fill="#231300" stroke="#231300" stroke-miterlimit="10" points="269.9,442.9 271.7,444.8 273.6,442.9 271.7,440.9 		"/>
		<g>
			<g>
				<path fill="#231300" d="M300.6,435.6c-0.9-1.1-1.8-2.3-2.7-3.4c-0.3-0.4-2.2,0.2-1.8,0.7c0.9,1.1,1.8,2.3,2.7,3.4
					C299.1,436.7,301,436.1,300.6,435.6L300.6,435.6z"/>
			</g>
		</g>
		<g>
			<g>
				<path fill="#231300" d="M253.7,430.5c-1.4,1.3-2.8,2.5-4.2,3.8c-0.3,0.3-0.2,0.6,0.2,0.7c0.5,0.1,1-0.1,1.4-0.4
					c1.4-1.3,2.8-2.5,4.2-3.8c0.3-0.3,0.2-0.6-0.2-0.7C254.6,430,254.1,430.1,253.7,430.5L253.7,430.5z"/>
			</g>
		</g>
		<path fill="#FFFFFF" stroke="#231300" stroke-miterlimit="10" d="M270.9,427.3l4.5,0.4l0,0l7.9,3.9l-0.2,0.4l-4.9-1.5l-5.3-0.5
			l-11.7,2.8l-4.6,3l-7.2,11.1l-0.2,9.8l2.9,6.8l10.9,9l20,0c0,0,13.7-13.7,14.1-18.2c0,0.1,0,0.2,0,0.3c-0.3,3.7-6.3,14.5-6.3,14.5
			l-3.8,3.5l-6.8,3.7l-19.8-0.5l-12.3-10.5l-2.6-6l0-13.1l8.8-13l6.4-3.7L270.9,427.3z"/>
		<g>
			<g>
				<path fill="#231300" d="M274.6,429c0-1.1,0.5-2.9,0.1-4c-0.5-1.5-1-3-1.4-4.5c-0.4-1.2-0.8-1.1-2.1-1.4c-1.5-0.4-3-0.7-4.5-1.1
					c-0.4-0.1-1.3,0.1-1.5,0.5c-0.1,0.1-0.1,0.2-0.2,0.3c-0.1,0.1-0.1,0.2,0,0.4c0.9,1.4,2.8,0.7,3.9-0.2c0.6-0.5-0.2-0.6-0.6-0.6
					c-0.7,0.1-1.3,0.2-2,0.3c-1.2,0.3-0.9,1.2,0.2,0.9c0.5-0.1,1-0.2,1.5-0.2c-0.2-0.2-0.4-0.4-0.6-0.6c-0.2,0.1-0.3,0.1-0.4-0.1
					c-0.2-0.2-0.1,0.1,0-0.1c-0.5,0.2-1,0.3-1.5,0.5c1.3,0.3,2.5,0.6,3.8,0.9c0.7,0.2,1.4,0.3,2,0.5c0.3,0.1-0.3-0.4-0.2-0.1
					c0.1,0.3,0.2,0.7,0.3,1c0.4,1.4,0.9,2.8,1.3,4.1c0.3,0.9-0.1,2.7-0.1,3.8C272.7,430,274.6,429.6,274.6,429L274.6,429z"/>
			</g>
		</g>
		<g>
			<g>
				<path fill="#231300" d="M277.7,461.3c2.3,0.1,4.5-0.2,6.6-0.8c1.1-0.3,0.9-1.1-0.2-0.7c-1.7,0.5-3.4,0.7-5.2,0.7
					c-0.5,0-1,0.1-1.4,0.4C277.3,461,277.3,461.3,277.7,461.3L277.7,461.3z"/>
			</g>
		</g>
	</g>
	<g>
		<polyline fill="#FFFFFF" stroke="#231300" stroke-width="2" stroke-miterlimit="10" points="231.6,453.2 237.7,443.7 240.5,434.5 
			241,424.6 239.3,416.8 236.6,410.8 231.3,403.8 218.8,395.4 206.5,392.7 200.1,392.9 188.5,395.9 177.8,402.2 172.9,406.9 
			168.9,412.3 164.4,422.3 162.9,433 		"/>
		<g>
			<g>
				<path fill="#231300" d="M222.8,397.7c-0.1-1.5-0.4-3.3,0-4.8c0.6-2,1.2-4,1.7-6c-0.3,0.2-0.6,0.3-0.9,0.5
					c2.4-0.6,4.8-1.2,7.3-1.8c-0.4,0-0.7,0-1.1-0.1c0.4,0.6-0.1,0.2-0.6-0.2c-0.5,0.2-1,0.5-1.5,0.7c0.6,0,1.3,0.2,1.9,0.3
					c0.5,0.1,2.2-0.6,1.6-0.8c-0.7-0.2-1.5-0.3-2.2-0.4c-0.2,0-2,0.4-1.5,0.7c1.4,1.1,3.5,1,4.5-0.6c0,0,0-0.1,0-0.1
					c-0.1-0.1-0.1-0.2-0.2-0.3c-0.2-0.3-0.8-0.1-1.1-0.1c-1.7,0.4-3.5,0.9-5.2,1.3c-0.9,0.2-2.7,0.3-3,1.4c-0.6,2-1.2,4.1-1.8,6.1
					c-0.4,1.3,0.1,3.1,0.1,4.5C220.9,398.6,222.8,398.2,222.8,397.7L222.8,397.7z"/>
			</g>
		</g>
		<polygon fill="#FFFFFF" stroke="#231300" stroke-width="2" stroke-miterlimit="10" points="198.6,402.3 207,404.7 210.3,407.6 
			210.7,407.6 216.7,403 220.8,402.3 232,409.4 232.2,418 230.1,421.5 220.8,425.6 217.3,425.1 213,422.8 212.7,422.9 207.1,429.5 
			188,427.8 184.9,423.5 183.7,414.1 186,408.8 194.9,402.7 		"/>
		<polygon fill="#231300" stroke="#231300" stroke-miterlimit="10" points="216.6,413.7 218.8,416.1 221,413.7 218.8,411.3 		"/>
		<polygon fill="#231300" stroke="#231300" stroke-miterlimit="10" points="201.1,413.7 203.3,416.1 205.5,413.7 203.3,411.3 		"/>
		<g>
			<g>
				<path fill="#231300" d="M245.3,404.5c-1.1-1.4-2.1-2.7-3.2-4.1c-0.3-0.4-2.2,0.2-1.8,0.7c1.1,1.4,2.1,2.7,3.2,4.1
					C243.8,405.6,245.7,404.9,245.3,404.5L245.3,404.5z"/>
			</g>
		</g>
		<g>
			<g>
				<path fill="#231300" d="M189.4,398.3c-1.7,1.5-3.4,3-5,4.6c-0.3,0.3-0.2,0.6,0.2,0.7c0.5,0.1,1-0.1,1.4-0.4c1.7-1.5,3.4-3,5-4.6
					c0.3-0.3,0.2-0.6-0.2-0.7C190.3,397.8,189.8,397.9,189.4,398.3L189.4,398.3z"/>
			</g>
		</g>
		<path fill="#FFFFFF" stroke="#231300" stroke-miterlimit="10" d="M191.1,395.3l4.9-2.3l0,0l10.5-0.6l0,0.5l-6,1.3l-5.8,2.6
			l-10.6,9.8l-3,5.8l-1,15.9l5.6,10.4l7,5.4l37.5-8.8c0,0,6.2-22.3,4-27.3c0.1,0.1,0.1,0.2,0.2,0.3c1.9,4,1.9,18.8,1.9,18.8
			l-1.9,5.8l-4.9,7.8l-39.9,7.4l-6.2-4.7l-7.8-13.7l1.5-18.7l4.5-7.7L191.1,395.3z"/>
		<g>
			<g>
				<path fill="#231300" d="M214.1,396.5c0-1.4,0.6-3.5,0.2-4.8c-0.6-1.8-1.1-3.6-1.7-5.4c-0.5-1.4-0.9-1.3-2.4-1.6
					c-1.8-0.4-3.6-0.9-5.4-1.3c-0.4-0.1-1.3,0.1-1.5,0.5c-0.1,0.1-0.1,0.2-0.2,0.3c-0.1,0.1-0.1,0.2,0,0.4c1.1,1.6,3.1,0.8,4.3-0.2
					c0.6-0.5-0.2-0.6-0.6-0.6c-0.8,0.1-1.6,0.2-2.3,0.4c-1.2,0.3-0.9,1.2,0.2,0.9c0.6-0.1,1.2-0.2,1.8-0.3c-0.2-0.2-0.4-0.4-0.6-0.6
					c-0.6,0.5-0.9-0.2-0.8-0.3c-0.5,0.2-1,0.3-1.5,0.5c1.5,0.4,3,0.7,4.5,1.1c0.8,0.2,1.6,0.4,2.4,0.6c0.4,0.1-0.3-0.4-0.1,0
					c0.1,0.4,0.3,0.8,0.4,1.2c0.5,1.7,1.1,3.3,1.6,5c0.4,1.2-0.1,3.3-0.1,4.6C212.2,397.5,214.1,397.1,214.1,396.5L214.1,396.5z"/>
			</g>
		</g>
		<g>
			<g>
				<path fill="#231300" d="M217,429.9c-2.6,0.9-5.2,1.8-7.8,2.8c-1.1,0.4-0.8,1.7,0.3,1.3c2.6-0.9,5.2-1.8,7.8-2.8
					C218.5,430.8,218.2,429.5,217,429.9L217,429.9z"/>
			</g>
		</g>
	</g>
	<g>
		<path fill="#FFFFFF" stroke="#231300" stroke-width="2" stroke-miterlimit="10" d="M96.7,439c-0.7-0.6-1.5-0.9-2.2-0.9l-2.4-3.9
			l-2.6-8.2l0.5-16.5l7.3-14.5l10.2-9.1l6-3.2l12.5-3.4l20.5,2.1l6.6,2.9l16.6,16.2l4.1,11.1l-0.3,21"/>
		<g>
			<g>
				<path fill="#231300" d="M111.4,383.7c0.1-1.3,0.6-3.3,0.2-4.6c-0.6-2-1.2-4.1-1.8-6.1c-0.4-1.5-1.1-1.3-2.7-1.7
					c-1.9-0.5-3.8-1-5.7-1.4c-0.5-0.1-1.5,0.1-1.7,0.5c-0.1,0.1-0.1,0.2-0.2,0.3c0,0,0,0.1,0,0.1c1.2,1.8,3.4,0.8,4.7-0.2
					c0.4-0.3-0.3-0.4-0.5-0.3c-0.9,0.1-1.8,0.2-2.7,0.5c-1.1,0.3-1,0.9,0.2,0.6c0.6-0.1,1.1-0.2,1.7-0.3c-0.2-0.1-0.3-0.2-0.5-0.3
					c-0.5,0.4-1.1-0.2-0.8-0.7c-0.6,0.2-1.2,0.4-1.7,0.5c1.7,0.4,3.4,0.9,5.2,1.3c2.1,0.5,2.4,0.2,2.9,2c0.5,1.9,1.1,3.8,1.6,5.7
					c0.4,1.3-0.1,3.3-0.2,4.6C109.5,384.6,111.4,384.3,111.4,383.7L111.4,383.7z"/>
			</g>
		</g>
		<polygon fill="#FFFFFF" stroke="#231300" stroke-width="2" stroke-miterlimit="10" points="127.3,388 118.3,390.6 114.7,393.7 
			114.3,393.7 107.8,388.7 103.4,388 91.3,395.7 91.1,405 93.4,408.7 107.2,412.6 111.8,410.1 112.2,410.2 118.2,417.3 127.3,420 
			138.8,415.5 142.2,410.9 143.4,400.7 136.8,390.9 		"/>
		<polygon fill="#231300" stroke="#231300" stroke-miterlimit="10" points="108,400.3 105.6,402.8 103.2,400.3 105.6,397.8 		"/>
		<polygon fill="#231300" stroke="#231300" stroke-miterlimit="10" points="124.7,400.3 122.3,402.8 119.9,400.3 122.3,397.8 		"/>
		<g>
			<g>
				<path fill="#231300" d="M87,391.4c1.2-1.5,2.3-3,3.5-4.4c0.4-0.6-1.5-0.3-1.8,0.1c-1.2,1.5-2.3,3-3.5,4.4
					C84.8,392,86.7,391.8,87,391.4L87,391.4z"/>
			</g>
		</g>
		<g>
			<g>
				<path fill="#231300" d="M143.6,384.9c1.8,1.6,3.6,3.3,5.4,4.9c0.5,0.5,2.4-0.3,1.8-0.8c-1.8-1.6-3.6-3.3-5.4-4.9
					C144.9,383.7,143.1,384.4,143.6,384.9L143.6,384.9z"/>
			</g>
		</g>
		<path fill="#FFFFFF" stroke="#231300" stroke-miterlimit="10" d="M123.4,380.3l-5.8,0.5l-0.1,0l-10.1,5l0.2,0.5l6.3-2l6.8-0.7
			l15.2,3.6l5.9,3.9l9.3,14.4l0.3,12.7l-3.7,8.8l-14.1,11.6l-25.8,0c0,0-17.7-17.7-18.3-23.5c0,0.1,0,0.3,0,0.4
			c0.4,4.8,8.1,18.7,8.1,18.7l4.9,4.5l8.8,4.7l25.6-0.6l15.9-13.6l3.3-7.7l0-17l-11.3-16.8l-8.3-4.8L123.4,380.3z"/>
		<g>
			<g>
				<path fill="#231300" d="M120.8,382.3c-0.1-1.6-0.5-3.8,0-5.3c0.7-2.2,1.4-4.3,2.1-6.5c-0.3,0.2-0.6,0.4-0.8,0.6
					c2.6-0.6,5.1-1.2,7.7-1.8c-0.4-0.1-0.7-0.1-1.1-0.2c0,0.1,1.5,1.7-0.8-0.2c-0.5,0.3-1,0.6-1.5,0.9c0.8,0.1,1.5,0.2,2.2,0.4
					c0.6,0.1,2.3-0.7,1.2-1c-0.7-0.2-1.5-0.3-2.2-0.4c-0.2,0-2.1,0.4-1.5,0.9c1.4,1.1,3.5,1.3,4.7-0.5c0.1-0.1,0.1-0.2,0.1-0.3
					c-0.1-0.1-0.1-0.2-0.2-0.3c-0.2-0.4-0.7-0.3-1.1-0.2c-1.9,0.5-3.9,0.9-5.8,1.4c-1.4,0.3-2.5,0.3-2.9,1.7c-0.6,2-1.3,4.1-1.9,6.1
					c-0.5,1.4,0.1,3.7,0.2,5.2C118.9,383.4,120.8,383,120.8,382.3L120.8,382.3z"/>
			</g>
		</g>
		<g>
			<g>
				<path fill="#231300" d="M116.8,419.7c-2.2,1.1-4.4,2.2-6.7,3.3c-1.1,0.6,0.7,0.5,1.1,0.2c2.2-1.1,4.4-2.2,6.7-3.3
					C119.1,419.4,117.3,419.5,116.8,419.7L116.8,419.7z"/>
			</g>
		</g>
	</g>
	<polygon fill="none" stroke="#000000" stroke-miterlimit="10" points="373,490.4 366.6,481.6 366.6,466 379.4,462.5 386.3,471.5 
		386.3,481.6 	"/>
	<polyline fill="none" stroke="#000000" stroke-miterlimit="10" points="389.2,505.6 395,490.4 386.3,481.6 373,490.4 373.6,517.8 
		379.4,510.4 389.2,505.6 395,520.9 374.4,529.6 373,507.4 373,490.4 366.6,481.6 355.7,490.4 350.8,500.8 350.8,520.9 	"/>
	<polygon fill="none" stroke="#000000" stroke-miterlimit="10" points="389.2,445.7 395,451.7 395,490.4 386.3,481.6 386.3,471.5 
		379.4,462.5 	"/>
	<line fill="#FFFFFF" stroke="#231300" stroke-miterlimit="10" x1="372.8" y1="406.8" x2="379.4" y2="462.5"/>
	<polyline fill="#FFFFFF" stroke="#231300" stroke-miterlimit="10" points="366.6,466 363.5,444.4 366.6,436.7 376.1,435.5 	"/>
	<polygon fill="#FFFFFF" stroke="#231300" stroke-miterlimit="10" points="350.8,500.8 324.9,494.9 334.8,481.6 346.3,476.1 
		355.7,490.4 	"/>
	<polygon fill="#FFFFFF" stroke="#231300" stroke-miterlimit="10" points="366.6,481.6 365.5,458.1 348.6,458.1 346.3,476.1 
		355.7,490.4 	"/>
	<polyline fill="#FFFFFF" stroke="#231300" stroke-miterlimit="10" points="324.9,494.9 319.1,505.6 302.5,508.9 302.5,527 	"/>
	<polygon fill="#FFFFFF" stroke="#231300" stroke-miterlimit="10" points="110.7,525.9 110.7,490.4 97.5,466 87.8,468 82.7,481.6 
		82.7,520.9 	"/>
	<polygon fill="#FFFFFF" stroke="#231300" stroke-miterlimit="10" points="137.8,529.6 110.7,525.9 110.7,490.4 97.5,466 
		111.4,443.3 137,442.7 143.4,468 129.7,496 137.8,510.9 	"/>
	<polygon fill="none" stroke="#000000" stroke-miterlimit="10" points="162.9,510.9 156.2,496 143.4,496 137.8,510.9 137.8,529.6 
		147.3,525.9 	"/>
	<polygon fill="none" stroke="#000000" stroke-miterlimit="10" points="143.4,468 162.9,470.1 174.1,488.4 170.3,500.8 156.2,496 
		143.4,496 	"/>
	<polyline fill="none" stroke="#000000" stroke-miterlimit="10" points="162.9,470.1 169.6,460.1 166.2,445.7 152.8,429.1 
		137,442.7 	"/>
	<polyline fill="none" stroke="#000000" stroke-miterlimit="10" points="194,510.9 203.3,496 198.6,481.6 183.7,471.5 174.1,488.4 
		183.7,505.6 194,510.9 201.1,522.4 	"/>
	<polyline fill="none" stroke="#000000" stroke-miterlimit="10" points="169.6,460.1 179.9,458.1 183.7,471.5 	"/>
	<polyline fill="#FFFFFF" stroke="#231300" stroke-miterlimit="10" points="110.7,490.4 108,468 120.4,460.1 143.4,468 	"/>
	<polyline fill="#FFFFFF" stroke="#231300" stroke-miterlimit="10" points="170.3,500.8 176.6,512.8 176.6,523.6 	"/>
	<polyline fill="none" stroke="#000000" stroke-miterlimit="10" points="227.2,500.8 235,492 245.6,500.8 245.6,512.8 245.6,529.6 
		226.5,525.9 221.6,512.8 227.2,500.8 213.3,490.4 203.3,496 198.6,481.6 201.1,461 217.2,458.1 224.4,481.6 213.3,490.4 	"/>
	<polyline fill="none" stroke="#000000" stroke-miterlimit="10" points="271.2,529.6 273.6,512.2 266,490.4 250.3,481.6 
		245.6,500.8 	"/>
	<polyline fill="none" stroke="#000000" stroke-miterlimit="10" points="273.6,519.3 282.8,505.6 295.1,505.6 302.5,508.9 
		300.9,488.4 309.4,475.2 334.8,481.6 	"/>
	<polyline fill="#FFFFFF" stroke="#231300" stroke-miterlimit="10" points="266,409.2 278.3,418.3 288.4,419.6 295.9,409.2 	"/>
	<polyline fill="#FFFFFF" stroke="#231300" stroke-miterlimit="10" points="288.4,419.6 295.7,439.3 306.5,449.6 	"/>
	<polyline fill="#FFFFFF" stroke="#231300" stroke-miterlimit="10" points="245.5,413.1 245.6,424.9 252.9,428.3 	"/>
</g>
<line fill="none" stroke="#000000" stroke-miterlimit="10" x1="88.9" y1="430.9" x2="111.5" y2="438.9"/>
</svg>
