<?xml version="1.0" encoding="utf-8"?>
<!-- Generator: Adobe Illustrator 18.0.0, SVG Export Plug-In . SVG Version: 6.00 Build 0)  -->
<!DOCTYPE svg PUBLIC "-//W3C//DTD SVG 1.1//EN" "http://www.w3.org/Graphics/SVG/1.1/DTD/svg11.dtd">
<svg version="1.1" id="Слой_1" xmlns="http://www.w3.org/2000/svg" xmlns:xlink="http://www.w3.org/1999/xlink" x="0px" y="0px"
	 viewBox="226.4 343.5 144.1 158" enable-background="new 226.4 343.5 144.1 158" xml:space="preserve">
<g>
	<g>
		<path fill="#FFFFFF" d="M346,353.8c-2.8,0-5.5,0.5-8.1,1.4c0.7,0.8,1.3,1.7,1.8,2.6c2-0.6-15.2,39-15.2,39l-3.1,3.2l0,0v3.9H346
			c13.5,0,24.5-11.2,24.5-25C370.4,365,359.5,353.8,346,353.8z"/>
		<path fill="#231300" d="M338.7,350.8c-9.6-9.8-25.2-9.8-34.7,0c-9.6,9.8-9.6,25.6,0,35.4l0.7,0.6l16.7,17l17.3-17.7
			C348.3,376.4,348.3,360.6,338.7,350.8z M336.5,384L336.5,384l-15.1,15.4l-14.5-14.8l-0.6-0.7c-8.4-8.5-8.4-22.4,0-30.9
			c8.4-8.5,21.9-8.5,30.3,0C344.9,361.7,344.9,375.5,336.5,384z"/>
		<path fill="#231300" d="M346,353.8c-2.8,0-5.5,0.5-8.1,1.4c0.7,0.8,1.3,1.7,1.8,2.6c2-0.6,4.1-0.9,6.3-0.9
			c11.8,0,21.4,9.8,21.4,21.8c0,12.1-9.6,21.9-21.4,21.9h-0.1h-21.3v-3.7l-3.1,3.2l0,0v3.9H346c13.5,0,24.5-11.2,24.5-25
			C370.4,365,359.5,353.8,346,353.8z"/>
		<path fill="#FFFFFF" d="M306.1,384L306.1,384l15.2,15.5l14.7-14.8l0.6-0.7c8.5-8.5,8.5-22.4,0.1-31c-8.4-8.6-22-8.6-30.5-0.1
			C297.8,361.6,297.7,375.5,306.1,384z"/>
		<ellipse fill="#FFFFFF" stroke="#231300" stroke-width="2" stroke-miterlimit="10" cx="285.4" cy="446.4" rx="58" ry="54"/>
		<g>
			<g>
				<path fill="#231300" d="M260.8,397.1c0.5-5.1,0.7-10.9-2.1-15.4c-2.7-4.1-7.9-4.1-12.1-3.2c-0.2,0-1.3,0.3-1.1,0.6
					c1.2,4,3.4,2.6,5.8,0.2c0.4-0.4-0.6-0.3-0.7-0.3c-1,0.1-2,0.4-3,0.5c-0.8,0.1-1.7,0.9-0.3,0.8c-0.9,0.1,1.8-0.3,1.5-0.1
					c-1,1-1.3-1.2-1.4-1.6c-0.4,0.2-0.8,0.4-1.1,0.6c12.2-2.4,13.6,9.2,12.7,18.4C258.8,397.9,260.7,397.7,260.8,397.1L260.8,397.1z
					"/>
			</g>
		</g>
		<path fill="#FFFFFF" stroke="#231300" stroke-width="2" stroke-miterlimit="10" d="M279.4,404.5c-7,0-13.3,3.2-17.3,8.1
			c-3.1-4.9-8.7-8.1-15-8.1c-9.8,0-17.7,7.6-17.7,17s7.9,17,17.7,17c4.5,0,8.6-1.6,11.7-4.3c3.3,8,11.3,13.6,20.6,13.6
			c12.3,0,22.2-9.7,22.2-21.7S291.6,404.5,279.4,404.5z"/>
		<ellipse fill="#231300" stroke="#231300" stroke-miterlimit="10" cx="250" cy="421.2" rx="3.2" ry="3.4"/>
		<ellipse fill="#231300" stroke="#231300" stroke-miterlimit="10" cx="272.6" cy="421.2" rx="3.2" ry="3.4"/>
		<path fill="#231300" stroke="#231300" stroke-miterlimit="10" d="M274.1,394.1c-2.7,0-5.3,0.2-7.8,0.6c-6.3,2.1-12,5.2-17,9.1
			c6.3-3.4,13.5-5.3,21.3-5.3c23.4,0,42.3,17.4,42.3,38.9c0,21.5-18.9,38.9-42.3,38.9c-22,0-40.1-15.5-42.1-35.3c0,0.2,0,0.3,0,0.5
			c1.9,22.7,21.6,40.5,45.7,40.5c25.3,0,45.9-19.7,45.9-44C320,413.8,299.4,394.1,274.1,394.1z"/>
		<path fill="#231300" stroke="#231300" stroke-miterlimit="10" d="M339.6,435.1c0-1.5-1.3-6.4-1.4-7.9
			c-3.5-11.3-9.6-17.7-19.4-24.6c8.7,9.4,14,21.7,14,35.1c0,29.8-26,54-58,54c-11.8,0-22.7-3.3-31.8-8.9c7.3,7.1,16.6,12.4,27,15
			c1.9,0.2,3.7,0.3,5.6,0.3C311,498,339.6,469.9,339.6,435.1z"/>
		<path fill="#E3E3E3" stroke="#231300" stroke-miterlimit="10" d="M315.5,375l-11.6,11l6.3-20.7l-13,17.8l1.3-23l-9.1,19.8
			l-2.9-22.3l-5.3,22.2l-6.7-20.2l-2,19.8l-6.7-16.1l-0.4,25.8l0.1,0c0.1,5,8.1,10.6,18.8,12.8c10.9,2.2,20.6,0.1,22.4-4.6
			L315.5,375z"/>
		<g>
			<g>
				<path fill="#231300" d="M271.5,396.1c1-3.6,2.3-7,4.4-10.1c1.7-2.6,4.2-4.4,7.5-4.1c1.3,0.1,2.5,0.7,3.7,1.2
					c0.4,0.7,0.8,1.3,1.2,2c-0.5-0.8-0.9-1.6-1.2-2.4c-0.6,0.2-1.2,0.5-1.7,0.7c0.9,0.5,1.7,1.1,2.6,1.6c0.5,0.3,2.3-0.5,1.6-0.9
					c-0.9-0.5-1.7-1.1-2.6-1.6c-0.3-0.2-2,0.1-1.7,0.7c1.6,3.6,3.2,3.8,5.8,0.8c0.1-0.1,0.1-0.3,0-0.4c-4.1-2.6-8.4-3.8-12.9-1.4
					c-4.8,2.7-6.9,9.2-8.3,14.1C269.4,397,271.4,396.7,271.5,396.1L271.5,396.1z"/>
			</g>
		</g>
		<g>
			<g>
				<path fill="#231300" d="M287.2,398.7c2.4,1.9,5.1,3.3,7.1,5.6c0.5,0.6,2.4-0.1,1.8-0.8c-2.1-2.5-4.9-3.9-7.4-5.9
					C288.1,397.2,286.4,398.1,287.2,398.7L287.2,398.7z"/>
			</g>
		</g>
		<g>
			<g>
				<path fill="#231300" d="M248.2,399.2c-1-2.3-1.9-4.5-4.8-4.4c-4.2,0.1-8.2,4.1-11.6,6.1c-1.1,0.7,0.5,1.2,1.2,0.8
					c2.4-1.4,4.7-3.2,7.1-4.5c3.5-1.8,4.6-0.5,6,2.6C246.6,400.5,248.5,399.9,248.2,399.2L248.2,399.2z"/>
			</g>
		</g>
		<g>
			<g>
				<path fill="#231300" d="M251.5,447.5c1.4,5.3,8.1,4.8,11.6,1.9c-0.6,0.1-1.2,0.2-1.8,0.3c0.4,0.7,0.9,1.3,1.3,2
					c0.2,0.5,2.1-0.1,1.9-0.5c-0.3-0.7-0.8-1.3-1.3-2c-0.3-0.5-1.5,0-1.8,0.3c-2.9,2.4-7,0.9-7.9-2.6
					C253.3,446.5,251.4,447,251.5,447.5L251.5,447.5z"/>
			</g>
		</g>
	</g>
	<g>
		<g>
			<path fill="#231300" d="M262.2,413.1c-8-5-23.6-7-31.2,0.2c-0.8,0.8,1.1,0.7,1.5,0.3c6.9-6.4,21.1-3.9,28.1,0.5
				C261.2,414.3,263,413.6,262.2,413.1L262.2,413.1z"/>
		</g>
	</g>
	<g>
		<g>
			<path fill="#231300" d="M262.1,413.3c13-2.8,30.8-7.5,36.9,8.6c0.3,0.8,2.2,0.3,1.9-0.5c-6.4-17-25.3-12.3-39.1-9.4
				C260.6,412.3,261,413.6,262.1,413.3L262.1,413.3z"/>
		</g>
	</g>
</g>
</svg>
