<?xml version="1.0" encoding="utf-8"?>
<!-- Generator: Adobe Illustrator 18.0.0, SVG Export Plug-In . SVG Version: 6.00 Build 0)  -->
<!DOCTYPE svg PUBLIC "-//W3C//DTD SVG 1.1//EN" "http://www.w3.org/Graphics/SVG/1.1/DTD/svg11.dtd">
<svg version="1.1" id="Слой_1" xmlns="http://www.w3.org/2000/svg" xmlns:xlink="http://www.w3.org/1999/xlink" x="0px" y="0px"
	 viewBox="169 368.2 225.9 129.8" enable-background="new 169 368.2 225.9 129.8" xml:space="preserve">
<g>
	<ellipse fill="#FFFFFF" stroke="#231300" stroke-width="2" stroke-miterlimit="10" cx="332.2" cy="464.1" rx="35.4" ry="33"/>
	<g>
		<g>
			<path fill="#231300" d="M315.6,434.9c0.3-3.1,0.5-6.7-1.3-9.4c-1.7-2.6-5-2.6-7.7-2c-0.2,0-1.3,0.3-1.1,0.6
				c0.8,2.7,2.7,1.5,4.3,0c0.4-0.4-0.6-0.3-0.7-0.3c-0.6,0.1-1.2,0.2-1.8,0.3c-0.8,0.1-1.7,0.9-0.3,0.8c0.6-0.1,1.2-0.2,1.8-0.3
				c-0.2-0.1-0.5-0.2-0.7-0.3c-0.6,0.4-0.7,0.5-0.2,0.5c-0.2-0.3-0.3-0.7-0.4-1.1c-0.4,0.2-0.8,0.4-1.1,0.6c7.3-1.4,8,5.8,7.5,11.2
				C313.6,435.7,315.5,435.5,315.6,434.9L315.6,434.9z"/>
		</g>
	</g>
	<path fill="#FFFFFF" stroke="#231300" stroke-width="2" stroke-miterlimit="10" d="M328.5,438.4c-4.3,0-8.1,1.9-10.6,5
		c-1.9-3-5.3-5-9.2-5c-6,0-10.8,4.7-10.8,10.4c0,5.7,4.8,10.4,10.8,10.4c2.8,0,5.3-1,7.2-2.6c2,4.9,6.9,8.3,12.6,8.3
		c7.5,0,13.6-5.9,13.6-13.2C342.1,444.4,336,438.4,328.5,438.4z"/>
	<ellipse fill="#231300" stroke="#231300" stroke-miterlimit="10" cx="310.6" cy="448.6" rx="2" ry="2.1"/>
	<ellipse fill="#231300" stroke="#231300" stroke-miterlimit="10" cx="324.4" cy="448.6" rx="2" ry="2.1"/>
	<g>
		<g>
			<path fill="#231300" d="M295.4,441.1c0.4-1.5,1.4-2.6,2.6-3.4c0.3-0.2,0.2-0.5-0.1-0.5c-0.5,0-1,0.1-1.4,0.4
				c-1.4,1-2.6,2.2-3.1,3.9C293.4,441.9,295.3,441.7,295.4,441.1L295.4,441.1z"/>
		</g>
	</g>
	<g>
		<g>
			<path fill="#231300" d="M342,436.1c1.8,0.9,3.3,2.2,4.4,4c0.4,0.6,2.2-0.1,1.8-0.8c-1.1-1.8-2.7-3.2-4.6-4.2
				C342.9,434.8,341.1,435.7,342,436.1L342,436.1z"/>
		</g>
	</g>
	<path fill="#231300" stroke="#231300" stroke-miterlimit="10" d="M325.3,432.1c-1.6,0-3.2,0.1-4.8,0.4c-3.8,1.3-7.3,3.2-10.4,5.6
		c3.8-2.1,8.3-3.2,13-3.2c14.3,0,25.9,10.6,25.9,23.8c0,13.1-11.6,23.8-25.9,23.8c-13.5,0-24.5-9.5-25.7-21.5c0,0.1,0,0.2,0,0.3
		c1.1,13.9,13.2,24.8,27.9,24.8c15.5,0,28-12,28-26.9C353.3,444.1,340.8,432.1,325.3,432.1z"/>
	<g>
		<g>
			<path fill="#231300" d="M323.3,433.7c-0.2-2.5-0.3-5,0.4-7.4c0.4-1.3,1.2-2.6,2.5-3.2c1-0.4,2.1-0.3,3.1-0.1
				c0,0.4,0.2,0.5,0.6,0.4c-0.3-0.3-0.6-0.5-0.9-0.8c-0.5,0.3-1,0.6-1.5,0.9c0.6,0.1,1.2,0.2,1.8,0.3c0.6,0.1,2.3-0.8,1.2-1
				c-0.6-0.1-1.2-0.2-1.8-0.3c-0.3,0-2,0.3-1.5,0.9c1.8,1.7,3.5,1.8,4.3-0.8c0.1-0.2-0.2-0.3-0.4-0.4c-3.1-0.6-6.4-0.3-8.4,2.4
				c-2,2.6-1.7,6.6-1.4,9.7C321.4,434.8,323.4,434.4,323.3,433.7L323.3,433.7z"/>
		</g>
	</g>
	<path fill="#231300" stroke="#231300" stroke-miterlimit="10" d="M365.4,457.1c0-0.9-0.8-3.9-0.8-4.8c-2.1-6.9-5.9-10.8-11.8-15
		c5.3,5.8,8.5,13.3,8.5,21.5c0,18.2-15.9,33-35.4,33c-7.2,0-13.9-2-19.4-5.4c4.4,4.3,10.1,7.6,16.5,9.1c1.1,0.1,2.3,0.2,3.4,0.2
		C347.9,495.6,365.4,478.4,365.4,457.1z"/>
	<ellipse fill="#FFFFFF" stroke="#231300" stroke-width="2" stroke-miterlimit="10" cx="245.8" cy="446.4" rx="44" ry="41"/>
	<g>
		<g>
			<path fill="#231300" d="M268.6,410.2c-0.3-3.3-0.4-6.6,0.7-9.8c0.7-2.1,2.2-3.7,4.5-3.9c1-0.1,3.3-0.1,2.6,1.4
				c0.9,0,1-0.1,0.4-0.4c-0.4-0.3-0.7-0.7-1.1-1c-0.5,0.2-1,0.5-1.5,0.7c0.8,0.1,1.5,0.3,2.3,0.4c0.4,0.1,2.2-0.7,1.2-0.8
				c-0.8-0.1-1.5-0.3-2.3-0.4c-0.2,0-1.9,0.3-1.5,0.7c2,2,4,2.1,4.9-0.9c0-0.1,0-0.2-0.2-0.2c-3.5-0.7-7.5-0.5-10,2.4
				c-2.8,3.1-2.4,8.4-2,12.3C266.7,411.1,268.7,410.7,268.6,410.2L268.6,410.2z"/>
		</g>
	</g>
	<path fill="#FFFFFF" stroke="#231300" stroke-width="2" stroke-miterlimit="10" d="M250.4,414.6c5.3,0,10.1,2.4,13.2,6.2
		c2.4-3.7,6.6-6.2,11.4-6.2c7.4,0,13.4,5.8,13.4,12.9c0,7.1-6,12.9-13.4,12.9c-3.4,0-6.5-1.2-8.9-3.3c-2.5,6.1-8.6,10.4-15.7,10.4
		c-9.3,0-16.9-7.4-16.9-16.4S241,414.6,250.4,414.6z"/>
	<ellipse fill="#231300" stroke="#231300" stroke-miterlimit="10" cx="272.7" cy="427.2" rx="2.5" ry="2.6"/>
	<ellipse fill="#231300" stroke="#231300" stroke-miterlimit="10" cx="255.5" cy="427.2" rx="2.5" ry="2.6"/>
	<g>
		<g>
			<path fill="#231300" d="M293.6,417.8c-0.5-2-1.9-3.5-3.6-4.6c-0.5-0.3-2.2,0.4-1.8,0.7c1.6,1.1,2.9,2.5,3.5,4.5
				C291.8,418.9,293.8,418.3,293.6,417.8L293.6,417.8z"/>
		</g>
	</g>
	<g>
		<g>
			<path fill="#231300" d="M232.3,410.6c-2.5,1.3-4.6,3-6.1,5.5c-0.5,0.8,1.5,0.7,1.8,0.1c1.3-2,2.9-3.6,5.1-4.7
				C234.3,410.8,233.2,410.1,232.3,410.6L232.3,410.6z"/>
		</g>
	</g>
	<path fill="#231300" stroke="#231300" stroke-miterlimit="10" d="M254.4,406.6c2,0,4,0.2,6,0.5c4.7,1.6,9.1,4,12.9,6.9
		c-4.8-2.6-10.3-4-16.2-4c-17.7,0-32.1,13.2-32.1,29.5c0,16.3,14.4,29.5,32.1,29.5c16.7,0,30.4-11.8,32-26.8c0,0.1,0,0.3,0,0.4
		c-1.4,17.2-16.4,30.8-34.7,30.8c-19.2,0-34.8-15-34.8-33.4C219.5,421.6,235.1,406.6,254.4,406.6z"/>
	<g>
		<g>
			<path fill="#231300" d="M259,408.9c0.4-3.8,0.5-8-1.4-11.4c-2-3.5-6.2-3.7-9.7-3c-0.3,0.1-1.3,0.3-1.1,0.7c1,3.1,2.8,2.2,4.8,0.2
				c0.5-0.5-0.2-0.7-0.6-0.6c-0.8,0.1-1.5,0.3-2.3,0.4c-0.9,0.1-1.6,1.2-0.3,1c0.8-0.1,1.5-0.3,2.3-0.4c-0.2-0.2-0.4-0.4-0.6-0.6
				c-0.3,0.4-0.7,0.7-1.1,1c0.1,0,0.3,0,0.4,0.1c-0.3-0.5-0.5-1-0.6-1.6c-0.4,0.2-0.7,0.5-1.1,0.7c9.1-1.8,10.1,6.8,9.4,13.7
				C257,409.9,259,409.5,259,408.9L259,408.9z"/>
		</g>
	</g>
	<path fill="#231300" stroke="#231300" stroke-miterlimit="10" d="M204.6,437.8c0-1.2,1-4.9,1-6c2.6-8.6,7.3-13.4,14.7-18.7
		c-6.6,7.2-10.6,16.5-10.6,26.7c0,22.6,19.7,41,44,41c8.9,0,17.2-2.5,24.2-6.7c-5.5,5.4-12.6,9.4-20.5,11.4
		c-1.4,0.1-2.8,0.2-4.3,0.2C226.3,485.5,204.6,464.2,204.6,437.8z"/>
	<g>
		<g>
			<path fill="#231300" d="M259.8,448.2c1.8,4,7.1,4.4,10.6,2.6c1.8-0.9,6.3-5.4,3.1-6.9c-0.4-0.2-2.3,0.4-1.7,0.9
				c1.9,1.5,3.7,1.5,5.5-0.1c0.9-0.7-1.1-0.7-1.6-0.3c-0.7-0.1-1.5-0.2-2.2-0.4c-0.6,0.3-1.1,0.6-1.7,0.9c2.2,1.1-1.1,4.1-2,4.9
				c-2.5,2.2-6.9,0.7-8.2-2.1C261.4,447,259.5,447.6,259.8,448.2L259.8,448.2z"/>
		</g>
	</g>
	<g>
		<g>
			<path fill="#231300" d="M309,464.7c3.3,3.6,10.2,10.7,13.3,3c-0.3,0.1-0.6,0.2-0.9,0.2c1.1,0.6,2,1.1,2.8,2
				c0.2,0.2,1.1-0.1,0.9-0.3c-0.8-0.9-1.7-1.5-2.8-2c-0.2-0.1-0.8,0-0.9,0.2c-2.7,6.6-8.8-0.6-11.5-3.5
				C309.7,464.1,308.8,464.5,309,464.7L309,464.7z"/>
		</g>
	</g>
	<g>
		<g>
			<path fill="#231300" d="M374.5,440.2c6.3-2.7,12.9-4.7,16.5-11c0.4-0.8-1.5-0.5-1.8,0c-3.4,5.9-9.5,7.7-15.4,10.3
				C372.5,440,373.6,440.6,374.5,440.2L374.5,440.2z"/>
		</g>
	</g>
	<g>
		<g>
			<path fill="#231300" d="M374.8,444.3c7.3-2.7,14.4-5.3,19.5-11.3c0.5-0.6-1.4-0.4-1.8,0c-4.9,5.7-11.6,8.2-18.4,10.7
				C372.8,444.2,374,444.6,374.8,444.3L374.8,444.3z"/>
		</g>
	</g>
	<g>
		<g>
			<path fill="#231300" d="M376.6,448.5c7.1-1.9,13.1-4.7,18.1-10.3c0.8-0.9-1-1.3-1.6-0.6c-4.6,5.1-10.3,7.7-16.8,9.5
				C375,447.4,375.4,448.8,376.6,448.5L376.6,448.5z"/>
		</g>
	</g>
	<g>
		<g>
			<path fill="#231300" d="M176.2,403.6c2.2,6.2,7.6,11.1,14.1,12.5c0.7,0.2,2.3-1,1.1-1.2c-6.1-1.3-11.2-6-13.3-11.8
				C177.8,402.3,175.9,402.9,176.2,403.6L176.2,403.6z"/>
		</g>
	</g>
	<g>
		<g>
			<path fill="#231300" d="M172.4,408.3c3.3,5.5,8.6,8.4,15,8.9c0.8,0.1,2-1.1,0.7-1.2c-6-0.5-10.8-3.3-13.9-8.5
				C173.8,406.9,172,407.6,172.4,408.3L172.4,408.3z"/>
		</g>
	</g>
	<g>
		<g>
			<path fill="#231300" d="M169,412.8c4.6,4.2,8.6,7.5,15.1,7.3c0.4,0,2.2-0.8,1.3-0.8c-6.3,0.2-10.2-3.1-14.5-7.2
				C170.5,411.8,168.7,412.6,169,412.8L169,412.8z"/>
		</g>
	</g>
	<g>
		<g>
			<path fill="#231300" d="M351.1,389.3c0.4,0,2.2-0.7,1.3-0.7C352,388.6,350.2,389.3,351.1,389.3L351.1,389.3z"/>
		</g>
	</g>
	<g>
		<g>
			<path fill="#231300" d="M274.9,470.6c1.8,3,4,5.8,7.3,7c3.2,1.1,6.2-0.7,8.4-2.9c0.9-0.9-1-1.3-1.6-0.6c-5,5-9.6,0.4-12.3-4.3
				C276.2,469,274.4,469.7,274.9,470.6L274.9,470.6z"/>
		</g>
	</g>
	<g>
		<g>
			<path fill="#231300" d="M302.1,478.2c-3.3,2.7-8,2.8-10.3-1.2c-0.4-0.7-2.2,0-1.8,0.8c2.8,5,9.4,4.3,13.3,1.1
				C304.4,478.1,302.8,477.6,302.1,478.2L302.1,478.2z"/>
		</g>
	</g>
	<g>
		<g>
			<path fill="#231300" d="M321.2,488.8c5.6,7.8,16.9,5.2,20.8-2.8c0.2-0.5-1.6-0.3-1.9,0.3c-3.6,7.1-12.4,8.4-17.1,1.8
				C322.7,487.6,320.8,488.2,321.2,488.8L321.2,488.8z"/>
		</g>
	</g>
	<g>
		<g>
			<path fill="#231300" d="M247.9,476.1c1.9,7.7,10.7,10.6,17.8,10.8c0.4,0,2.2-0.8,1.2-0.8c-6.9-0.1-15.3-3-17.1-10.5
				C249.7,475.2,247.8,475.7,247.9,476.1L247.9,476.1z"/>
		</g>
	</g>
	<path fill="#FFFFFF" d="M199.8,376.1c2.1,0,4.2,0.4,6.1,1c-0.5,0.6-1,1.3-1.4,2c-1.5-0.5,11.5,29.6,11.5,29.6l2.4,2.4l0,0v2.9
		h-18.6c-10.3,0-18.6-8.5-18.6-19C181.2,384.5,189.5,376.1,199.8,376.1z"/>
	<path fill="#231300" d="M205.3,400.6l13.2,13.4l12.7-12.9l0.5-0.5c7.3-7.4,7.3-19.5,0-26.9c-7.2-7.4-19-7.4-26.3,0
		C198,381.2,198,393.2,205.3,400.6z M207,375.5c6.4-6.5,16.6-6.5,23,0c6.4,6.5,6.4,17,0,23.5l-0.5,0.5l-11,11.2L207,399l0,0
		C200.6,392.5,200.6,382,207,375.5z"/>
	<path fill="#231300" d="M199.8,376.1c2.1,0,4.2,0.4,6.1,1c-0.5,0.6-1,1.3-1.4,2c-1.5-0.5-3.1-0.7-4.7-0.7c-9,0-16.2,7.4-16.2,16.6
		c0,9.2,7.3,16.6,16.2,16.6h0.1h16.2v-2.8l2.4,2.4l0,0v2.9h-18.6c-10.3,0-18.6-8.5-18.6-19C181.2,384.5,189.6,376.1,199.8,376.1z"/>
	<path fill="#FFFFFF" d="M230.1,399L230.1,399l-11.5,11.8l-11.1-11.2l-0.5-0.5c-6.4-6.5-6.5-17-0.1-23.5c6.4-6.5,16.7-6.5,23.1-0.1
		C236.4,381.9,236.4,392.5,230.1,399z"/>
	<path fill="#FFFFFF" d="M369.5,407.4c-1.7,0-3.4,0.3-4.9,0.8c0.4,0.5,0.8,1,1.1,1.6c1.2-0.4-9.3,23.9-9.3,23.9l-1.9,1.9l0,0v2.4h15
		c8.3,0,15-6.9,15-15.3C384.4,414.3,377.7,407.4,369.5,407.4z"/>
	<path fill="#231300" d="M365,405.6c-5.9-6-15.4-6-21.2,0c-5.9,6-5.9,15.7,0,21.7l0.4,0.4l10.2,10.4l10.6-10.8
		C370.9,421.3,370.9,411.6,365,405.6z M363.7,425.9L363.7,425.9l-9.3,9.4l-8.9-9l-0.4-0.4c-5.1-5.2-5.1-13.7,0-18.9
		c5.1-5.2,13.4-5.2,18.5,0C368.8,412.2,368.8,420.7,363.7,425.9z"/>
	<path fill="#231300" d="M369.4,407.4c-1.7,0-3.4,0.3-4.9,0.8c0.4,0.5,0.8,1,1.1,1.6c1.2-0.4,2.5-0.6,3.8-0.6
		c7.2,0,13.1,6,13.1,13.4c0,7.4-5.9,13.4-13.1,13.4h-0.1h-13v-2.3l-1.9,1.9l0,0v2.4h15c8.3,0,15-6.9,15-15.3
		C384.4,414.3,377.7,407.4,369.4,407.4z"/>
	<path fill="#FFFFFF" d="M345.1,425.9L345.1,425.9l9.3,9.5l9-9l0.4-0.4c5.2-5.2,5.2-13.7,0.1-19c-5.1-5.2-13.5-5.3-18.6-0.1
		C340,412.2,340,420.7,345.1,425.9z"/>
</g>
</svg>
