<?xml version="1.0" encoding="utf-8"?>
<!-- Generator: Adobe Illustrator 18.0.0, SVG Export Plug-In . SVG Version: 6.00 Build 0)  -->
<!DOCTYPE svg PUBLIC "-//W3C//DTD SVG 1.1//EN" "http://www.w3.org/Graphics/SVG/1.1/DTD/svg11.dtd">
<svg version="1.1" id="Слой_1" xmlns="http://www.w3.org/2000/svg" xmlns:xlink="http://www.w3.org/1999/xlink" x="0px" y="0px"
	 viewBox="0 0 149.4 171" enable-background="new 0 0 149.4 171" xml:space="preserve">
<polygon fill="#FFFFFF" stroke="#000000" stroke-miterlimit="10" points="9.7,158.2 3.1,161.9 0.7,170.4 9.6,169.4 14.1,163.3 "/>
<line fill="none" stroke="#000000" stroke-miterlimit="10" x1="6.3" y1="165.6" x2="0.7" y2="170.4"/>
<circle fill="#432918" stroke="#000000" stroke-miterlimit="10" cx="6.4" cy="165.7" r="0.8"/>
<g>
	<ellipse fill="#FFFFFF" stroke="#000000" stroke-width="2" stroke-miterlimit="10" cx="64.3" cy="103" rx="58" ry="54"/>
	<g>
		<g>
			<path d="M36.5,55.5c0.5-5,0.7-10.4-1.8-14.9c-2.5-4.6-8-4.8-12.5-3.9c-0.2,0-1.3,0.3-1.1,0.7c1.3,4.1,3.4,2.6,5.9,0.2
				c0.4-0.4-0.6-0.4-0.7-0.4c-1,0.1-2,0.4-3,0.5c-0.9,0.1-1.7,1.1-0.3,0.9c1-0.1,2-0.4,3-0.5c-0.2-0.1-0.5-0.3-0.7-0.4
				c-1.5,1.4-1.6,0.9-2.1-0.8c-0.4,0.2-0.7,0.5-1.1,0.7c12.2-2.4,13.6,9,12.7,18.2C34.5,56.5,36.4,56.1,36.5,55.5L36.5,55.5z"/>
		</g>
	</g>
	<path fill="#FFFFFF" stroke="#000000" stroke-width="2" stroke-miterlimit="10" d="M58.3,61.1c-7,0-13.3,3.2-17.3,8.1
		c-3.1-4.9-8.7-8.1-15-8.1c-9.8,0-17.7,7.6-17.7,17c0,9.4,7.9,17,17.7,17c4.5,0,8.6-1.6,11.7-4.3c3.3,8,11.3,13.6,20.6,13.6
		c12.3,0,22.2-9.7,22.2-21.7C80.5,70.8,70.6,61.1,58.3,61.1z"/>
	<ellipse stroke="#000000" stroke-miterlimit="10" cx="28.9" cy="77.7" rx="3.2" ry="3.4"/>
	<ellipse stroke="#000000" stroke-miterlimit="10" cx="51.5" cy="77.7" rx="3.2" ry="3.4"/>
	<g>
		<g>
			<path d="M33.5,103.2c1.2,2.4,4,3.5,6.5,4.2c0.7,0.2,2.3-0.9,1.2-1.1c-2.1-0.5-4.7-1.5-5.7-3.6C35.1,102,33.2,102.6,33.5,103.2
				L33.5,103.2z"/>
		</g>
	</g>
	<g>
		<g>
			<path d="M3.5,65.6c0.7-2.5,2.4-4.4,4.5-5.8c0.8-0.5-1.1-0.2-1.5,0c-2.2,1.5-4.1,3.5-4.9,6.2C1.5,66.3,3.4,66,3.5,65.6L3.5,65.6z"
				/>
		</g>
	</g>
	<g>
		<g>
			<path d="M80.8,56.9c3,1.5,5.4,3.7,7.2,6.6c0.4,0.6,2.3,0,1.8-0.8c-1.8-3-4.4-5.2-7.5-6.8C81.7,55.5,79.9,56.5,80.8,56.9
				L80.8,56.9z"/>
		</g>
	</g>
	<path stroke="#000000" stroke-miterlimit="10" d="M53,50.6c-2.7,0-5.3,0.2-7.8,0.6c-6.3,2.1-12,5.2-17,9.1
		c6.3-3.4,13.5-5.3,21.3-5.3c23.4,0,42.3,17.4,42.3,38.9c0,21.5-18.9,38.9-42.3,38.9c-22,0-40.1-15.5-42.1-35.3c0,0.2,0,0.3,0,0.5
		c1.9,22.7,21.6,40.5,45.7,40.5c25.3,0,45.9-19.7,45.9-44C98.9,70.3,78.4,50.6,53,50.6z"/>
	<g>
		<g>
			<path d="M49.1,53.5c-0.4-4.3-0.5-8.7,0.9-12.9c1-2.9,3.2-5,6.4-5.4c1.3-0.1,4.5-0.1,3.7,2c0.6,0.1,0.6-0.1-0.1-0.4
				c-0.5-0.4-0.9-0.9-1.4-1.3c-0.5,0.2-1,0.5-1.5,0.7c1,0.1,2,0.4,3,0.5c0.4,0.1,2.2-0.7,1.2-0.8c-1-0.1-2-0.4-3-0.5
				c-0.2,0-1.9,0.3-1.5,0.7c2.6,2.6,4.7,2.8,5.9-1c0-0.1,0-0.2-0.2-0.2c-4.5-0.9-9.4-0.7-12.6,3C46.2,42,46.7,49,47.2,54
				C47.2,54.5,49.2,54.1,49.1,53.5L49.1,53.5z"/>
		</g>
	</g>
	<path stroke="#000000" stroke-miterlimit="10" d="M118.6,91.7c0-1.5-1.3-6.4-1.4-7.9c-3.5-11.3-9.6-17.7-19.4-24.6
		c8.7,9.4,14,21.7,14,35.1c0,29.8-26,54-58,54c-11.8,0-22.7-3.3-31.8-8.9c7.3,7.1,16.6,12.4,27,15c1.9,0.2,3.7,0.3,5.6,0.3
		C90,154.6,118.6,126.4,118.6,91.7z"/>
	<path d="M117.7,7.3c-9.6-9.8-25.2-9.8-34.7,0c-9.6,9.8-9.6,25.6,0,35.4l0.7,0.6l16.7,17l17.3-17.7C127.2,33,127.2,17.1,117.7,7.3z
		 M115.5,40.6L115.5,40.6L100.3,56L85.8,41.2l-0.6-0.7c-8.4-8.5-8.4-22.4,0-30.9c8.4-8.5,21.9-8.5,30.3,0
		C123.8,18.2,123.8,32,115.5,40.6z"/>
	<path d="M124.9,10.4c-2.8,0-5.5,0.5-8.1,1.4c0.7,0.8,1.3,1.7,1.8,2.6c2-0.6,4.1-0.9,6.3-0.9c11.8,0,21.4,9.8,21.4,21.8
		c0,12.1-9.6,21.9-21.4,21.9h-0.1h-21.3v-3.7l-3.1,3.2l0,0v3.9h24.6c13.5,0,24.5-11.2,24.5-25C149.4,21.5,138.4,10.4,124.9,10.4z"/>
</g>
<path fill="#FFFFFF" stroke="#000000" stroke-miterlimit="10" d="M18.1,160c6.7-4.7,15.4-11.5,24.6-19.4
	c19.1-16.4,33.2-31.4,31.5-33.4c-1.7-2-18.7,9.7-37.8,26.1c-9.2,7.9-17.2,15.5-22.9,21.4L18.1,160z"/>
<rect x="9.5" y="156.6" transform="matrix(0.6514 0.7587 -0.7587 0.6514 125.8186 45.9707)" stroke="#000000" stroke-miterlimit="10" width="6.7" height="6.7"/>
<g>
	<g>
		<path d="M21.2,125.5c0.6,0,2.1-1,0.8-1C21.3,124.6,19.9,125.5,21.2,125.5L21.2,125.5z"/>
	</g>
</g>
<g>
	<g>
		<path d="M19.3,131.6c0.7,6,2.7,11.2,7.1,15.4c0.4,0.4,2.1-0.4,1.8-0.7c-4.4-4.2-6.2-9.3-6.9-15.3
			C21.2,130.7,19.2,131.1,19.3,131.6L19.3,131.6z"/>
	</g>
</g>
<g>
	<g>
		<path d="M51.6,142.7c-5.6,3-12.8,7.3-18.5,2.2c-0.5-0.5-2.3,0.3-1.8,0.8c6.5,5.8,15.1,1.1,21.5-2.4
			C54,142.7,52.3,142.4,51.6,142.7L51.6,142.7z"/>
	</g>
</g>
</svg>
