<?xml version="1.0" encoding="utf-8"?>
<!-- Generator: Adobe Illustrator 18.0.0, SVG Export Plug-In . SVG Version: 6.00 Build 0)  -->
<!DOCTYPE svg PUBLIC "-//W3C//DTD SVG 1.1//EN" "http://www.w3.org/Graphics/SVG/1.1/DTD/svg11.dtd">
<svg version="1.1" id="Слой_1" xmlns="http://www.w3.org/2000/svg" xmlns:xlink="http://www.w3.org/1999/xlink" x="0px" y="0px"
	 viewBox="0 0 178.4 189.5" enable-background="new 0 0 178.4 189.5" xml:space="preserve">
<g>
	<ellipse fill="#FFFFFF" stroke="#000000" stroke-width="2" stroke-miterlimit="10" cx="77.6" cy="122" rx="68.7" ry="64"/>
	<g>
		<g>
			<path d="M44.5,65.9c0.6-6,0.8-12.5-2.2-17.9c-3-5.4-9.6-5.6-14.9-4.6c-0.3,0.1-0.9,0.4-0.8,0.9c1.4,4.6,3.6,3.5,6.5,0.6
				c0.5-0.5-0.2-1-0.7-0.9c-1.2,0.2-2.4,0.4-3.6,0.6c-1,0.1-1.5,1.5-0.2,1.3c1.2-0.2,2.4-0.4,3.6-0.6c-0.2-0.3-0.5-0.6-0.7-0.9
				c-1.3,1.3-2.4,1.3-3-0.6c-0.3,0.3-0.5,0.6-0.8,0.9C41.9,41.8,43.6,55.2,42.5,66C42.4,67,44.4,66.7,44.5,65.9L44.5,65.9z"/>
		</g>
	</g>
	<path fill="#FFFFFF" stroke="#000000" stroke-width="2" stroke-miterlimit="10" d="M70.5,72.4c-8.3,0-15.7,3.8-20.6,9.6
		c-3.7-5.8-10.3-9.6-17.8-9.6c-11.6,0-20.9,9-20.9,20.1c0,11.1,9.4,20.1,20.9,20.1c5.3,0,10.2-1.9,13.9-5.1
		c3.9,9.5,13.4,16.2,24.5,16.2c14.5,0,26.3-11.5,26.3-25.7S85,72.4,70.5,72.4z"/>
	<ellipse stroke="#000000" stroke-miterlimit="10" cx="35.7" cy="92.1" rx="3.8" ry="4.1"/>
	<ellipse stroke="#000000" stroke-miterlimit="10" cx="62.5" cy="92.1" rx="3.8" ry="4.1"/>
	<g>
		<g>
			<path d="M41.3,122.3c1.4,2.8,4.7,4.1,7.6,4.9c0.6,0.2,2.3-0.8,1.2-1c-2.6-0.7-5.6-1.8-6.9-4.3C42.9,121.1,41.1,121.7,41.3,122.3
				L41.3,122.3z"/>
		</g>
	</g>
	<g>
		<g>
			<path d="M5.4,77.8c0.8-2.9,2.7-5.1,5.2-6.7c1.1-0.7-0.6-1-1.2-0.6c-2.7,1.9-5,4.3-5.9,7.5C3.3,78.7,5.2,78.4,5.4,77.8L5.4,77.8z"
				/>
		</g>
	</g>
	<g>
		<g>
			<path d="M97.2,67.2c3.6,1.8,6.5,4.4,8.6,7.8c0.3,0.5,2.1-0.2,1.9-0.5c-2.2-3.5-5.1-6.1-8.7-8C98.5,66.2,96.8,67,97.2,67.2
				L97.2,67.2z"/>
		</g>
	</g>
	<path stroke="#000000" stroke-miterlimit="10" d="M64.2,60c-3.2,0-6.3,0.3-9.3,0.8c-7.4,2.5-14.2,6.2-20.2,10.8
		c7.4-4,16-6.3,25.2-6.3c27.7,0,50.1,20.6,50.1,46.1c0,25.5-22.4,46.1-50.1,46.1c-26.1,0-47.5-18.3-49.9-41.8c0,0.2,0,0.4,0,0.6
		c2.2,26.9,25.6,48,54.2,48c30,0,54.4-23.4,54.4-52.2C118.6,83.3,94.3,60,64.2,60z"/>
	<g>
		<g>
			<path d="M59.4,63.5c-0.5-4.8-0.6-9.7,0.8-14.4c0.8-2.9,2.7-5.3,5.4-6.5c1.8-0.8,4-0.7,6-0.5c1.1,0.6,1.5,1.3,1.1,2
				c-0.8-0.6-1.5-1.3-2.1-2c-0.4,0.3-0.8,0.7-1.3,1c1.2,0.2,2.4,0.4,3.6,0.6c0.8,0.1,2-1.1,0.7-1.2c-1.2-0.2-2.4-0.4-3.6-0.6
				c-0.3,0-1.8,0.5-1.3,1c3.1,3.1,5.2,3.5,6.6-1.1c0.1-0.2-0.2-0.4-0.4-0.5c-5.6-1.1-11.3-0.7-14.9,4.2c-3.8,5-3.2,12.7-2.6,18.6
				C57.6,64.7,59.5,64.3,59.4,63.5L59.4,63.5z"/>
		</g>
	</g>
	<path stroke="#000000" stroke-miterlimit="10" d="M141.9,108.6c0-1.8-1.5-7.6-1.6-9.4c-4.1-13.4-11.4-20.9-22.9-29.2
		c10.3,11.2,16.6,25.7,16.6,41.6c0,35.3-30.8,64-68.7,64c-13.9,0-26.9-3.9-37.7-10.5c8.6,8.4,19.6,14.6,32,17.7
		c2.2,0.2,4.4,0.3,6.7,0.3C108,183.2,141.9,149.8,141.9,108.6z"/>
	<path d="M140.8,8.7C129.5-2.9,111-2.9,99.7,8.7c-11.3,11.6-11.3,30.4,0,42l0.8,0.7l19.8,20.2l20.5-21
		C152.2,39,152.2,20.2,140.8,8.7z M138.2,48.1L138.2,48.1l-17.9,18.3l-17.2-17.5l-0.7-0.8c-9.9-10.1-9.9-26.5,0-36.6
		c9.9-10.1,26-10.1,35.9,0C148.1,21.6,148.1,38,138.2,48.1z"/>
	<path d="M149.4,12.3c-3.3,0-6.6,0.6-9.5,1.6c0.8,1,1.5,2,2.1,3.1c2.3-0.7,4.8-1.1,7.4-1.1c14,0,25.3,11.6,25.3,25.9
		c0,14.3-11.3,25.9-25.3,25.9h-0.1H124v-4.4l-3.7,3.8l0,0v4.6h29.1c16,0,29-13.3,29-29.7C178.4,25.5,165.4,12.3,149.4,12.3z"/>
</g>
<rect x="8" y="143.8" fill="#FFFFFF" stroke="#000000" stroke-miterlimit="10" width="76.3" height="45.2"/>
<ellipse fill="#FFFFFF" stroke="#000000" stroke-miterlimit="10" cx="46.7" cy="167.5" rx="19.3" ry="18"/>
<radialGradient id="SVGID_1_" cx="46.6549" cy="167.4625" r="22.2919" gradientUnits="userSpaceOnUse">
	<stop  offset="0" style="stop-color:#FFFFFF"/>
	<stop  offset="0.1024" style="stop-color:#FAFAFA"/>
	<stop  offset="0.2261" style="stop-color:#EBEBEB"/>
	<stop  offset="0.3607" style="stop-color:#D3D3D3"/>
	<stop  offset="0.5033" style="stop-color:#B1B1B1"/>
	<stop  offset="0.652" style="stop-color:#858585"/>
	<stop  offset="0.806" style="stop-color:#4F4F4F"/>
	<stop  offset="0.9614" style="stop-color:#111111"/>
	<stop  offset="1" style="stop-color:#000000"/>
</radialGradient>
<ellipse fill="url(#SVGID_1_)" stroke="#000000" stroke-miterlimit="10" cx="46.7" cy="167.5" rx="17" ry="15.8"/>
<g>
	<g>
		<path d="M100.9,154.9c-1.3,11.6-8.9,22.1-21.9,18.9c-0.5-0.1-2.2,0.6-1.6,0.8c14,3.4,24-6.6,25.5-20.2
			C102.8,154.1,100.9,154.3,100.9,154.9L100.9,154.9z"/>
	</g>
</g>
<g>
	<g>
		<path d="M8.2,134.1c-10.1,6.2-12.6,27.2,2.7,27.8c0.9,0,2-1.3,0.7-1.4c-14-0.5-11-20-2.1-25.5C10.6,134.3,9,133.6,8.2,134.1
			L8.2,134.1z"/>
	</g>
</g>
<rect x="69" y="136.2" fill="#FFFFFF" stroke="#000000" stroke-miterlimit="10" width="14.8" height="6.6"/>
<path fill="#DADADA" stroke="#C6C6C6" stroke-miterlimit="10" d="M80.6,147.3c-3.5-6.1-4-6.5-6.2-3.4c1.4-3.5,0.8-3.7-6.2-3.4
	c7.1-0.3,7.7-1.4,4.2-7.6c3.5,6.1,4,6.5,6.2,3.4c-1.4,3.5-0.8,3.7,6.2,3.4C77.7,140,77.1,141.2,80.6,147.3z"/>
</svg>
