<?xml version="1.0" encoding="utf-8"?>
<!-- Generator: Adobe Illustrator 18.0.0, SVG Export Plug-In . SVG Version: 6.00 Build 0)  -->
<!DOCTYPE svg PUBLIC "-//W3C//DTD SVG 1.1//EN" "http://www.w3.org/Graphics/SVG/1.1/DTD/svg11.dtd">
<svg version="1.1" id="Слой_1" xmlns="http://www.w3.org/2000/svg" xmlns:xlink="http://www.w3.org/1999/xlink" x="0px" y="0px"
	 viewBox="0 0 155.2 170.1" enable-background="new 0 0 155.2 170.1" xml:space="preserve">
<g>
	<g>
		<ellipse fill="#FFFFFF" stroke="#000000" stroke-width="2" stroke-miterlimit="10" cx="63.5" cy="111" rx="62.5" ry="58.2"/>
		<g>
			<g>
				<path d="M36.9,57.8c0.5-5.5,0.8-11.8-2.3-16.6c-2.8-4.4-8.5-4.4-13-3.5c-0.2,0-1.3,0.3-1.1,0.6c1.3,4.3,3.6,2.8,6.2,0.2
					c0.4-0.4-0.6-0.3-0.7-0.3c-1.1,0.1-2.1,0.4-3.2,0.5c-0.8,0.1-1.7,0.9-0.3,0.8c-1,0.1,2-0.3,1.7,0c-1.2,1.2-1.5-1.1-1.6-1.7
					c-0.4,0.2-0.8,0.4-1.1,0.6C34.5,35.9,36,48.4,35,58.3C35,58.6,36.9,58.4,36.9,57.8L36.9,57.8z"/>
			</g>
		</g>
		<path fill="#FFFFFF" stroke="#000000" stroke-width="2" stroke-miterlimit="10" d="M57,65.8c-7.6,0-14.3,3.4-18.7,8.8
			c-3.3-5.2-9.3-8.8-16.2-8.8c-10.5,0-19,8.2-19,18.3s8.5,18.3,19,18.3c4.9,0,9.3-1.8,12.7-4.7c3.5,8.6,12.2,14.7,22.3,14.7
			c13.2,0,24-10.5,24-23.3S70.3,65.8,57,65.8z"/>
		<ellipse stroke="#000000" stroke-miterlimit="10" cx="25.4" cy="83.8" rx="3.5" ry="3.7"/>
		<ellipse stroke="#000000" stroke-miterlimit="10" cx="49.7" cy="83.8" rx="3.5" ry="3.7"/>
		<path stroke="#000000" stroke-miterlimit="10" d="M51.4,54.6c-2.9,0-5.7,0.2-8.5,0.7c-6.7,2.3-12.9,5.6-18.4,9.8
			c6.7-3.6,14.6-5.7,23-5.7c25.2,0,45.6,18.8,45.6,41.9c0,23.2-20.4,41.9-45.6,41.9c-23.7,0-43.2-16.7-45.4-38c0,0.2,0,0.4,0,0.6
			c2,24.4,23.3,43.7,49.3,43.7c27.3,0,49.4-21.2,49.4-47.5C100.8,75.8,78.7,54.6,51.4,54.6z"/>
		<path stroke="#000000" stroke-miterlimit="10" d="M122,98.8c0-1.6-1.4-6.9-1.5-8.5c-3.7-12.2-10.3-19-20.9-26.5
			c9.4,10.2,15.1,23.4,15.1,37.8c0,32.1-28,58.2-62.5,58.2c-12.7,0-24.4-3.5-34.3-9.5c7.8,7.6,17.9,13.3,29.1,16.1
			c2,0.2,4,0.3,6.1,0.3C91.2,166.6,122,136.2,122,98.8z"/>
		<path d="M121,7.9c-10.4-10.5-27.1-10.5-37.4,0c-10.3,10.5-10.3,27.6,0,38.2l0.7,0.7l18,18.4L121,46C131.3,35.5,131.3,18.4,121,7.9
			z M118.7,43.7L118.7,43.7l-16.3,16.6L86.7,44.4L86,43.7c-9-9.2-9-24.1,0-33.3c9-9.2,23.6-9.2,32.6,0
			C127.7,19.6,127.7,34.5,118.7,43.7z"/>
		<path d="M128.8,11.2c-3,0-6,0.5-8.7,1.5c0.7,0.9,1.4,1.8,2,2.8c2.1-0.7,4.4-1,6.7-1c12.7,0,23,10.6,23,23.5
			c0,13-10.3,23.6-23,23.6h-0.1h-23v-4l-3.4,3.4l0,0v4.2h26.5c14.6,0,26.4-12.1,26.4-27C155.2,23.2,143.4,11.2,128.8,11.2z"/>
		<path fill="#EDEDED" stroke="#000000" stroke-miterlimit="10" d="M95.9,33.9L83.4,45.8l6.8-22.3l-14,19.1l1.4-24.8l-9.8,21.3
			l-3.1-24L59,39.1l-7.2-21.8l-2.1,21.3l-7.2-17.3L42,49.1l0.1,0c0.1,5.4,8.7,11.4,20.3,13.8c11.7,2.4,22.2,0.2,24.1-5L95.9,33.9z"
			/>
		<g>
			<g>
				<path d="M48.5,56.8c1.1-3.8,2.5-7.6,4.7-10.9c1.9-2.8,4.6-4.8,8.2-4.4c1.4,0.1,2.7,0.8,4,1.3c0.4,0.7,0.8,1.5,1.1,2.2
					c-0.5-0.8-0.9-1.7-1.3-2.6c-0.6,0.2-1.2,0.5-1.7,0.7c1,0.5,1.8,1.2,2.8,1.7c0.5,0.3,2.3-0.5,1.6-0.9c-1-0.5-1.8-1.2-2.8-1.7
					c-0.3-0.2-2,0.1-1.7,0.7c1.7,3.8,3.4,4.1,6.1,0.8c0.1-0.1,0.1-0.3,0-0.4c-4.4-2.8-9-4.1-13.8-1.5c-5.2,2.9-7.4,9.9-8.9,15.1
					C46.4,57.6,48.4,57.4,48.5,56.8L48.5,56.8z"/>
			</g>
		</g>
		<g>
			<g>
				<path d="M65.6,59.5c2.6,2,5.5,3.5,7.7,6.1c0.5,0.6,2.4-0.1,1.8-0.8c-2.2-2.6-5.3-4.2-7.9-6.3C66.4,58,64.7,58.9,65.6,59.5
					L65.6,59.5z"/>
			</g>
		</g>
		<g>
			<g>
				<path d="M23.4,60.1c-1.1-2.5-2.1-4.8-5.1-4.8c-4.5,0.1-8.7,4.4-12.4,6.5c-1.1,0.7,0.5,1.2,1.2,0.8c2.6-1.5,5-3.4,7.7-4.8
					c1.2-0.7,3.3-1.8,4.6-0.7c1,0.8,1.5,2.3,2,3.5C21.8,61.4,23.7,60.8,23.4,60.1L23.4,60.1z"/>
			</g>
		</g>
		<g>
			<g>
				<path d="M27.1,112c1.5,5.6,8.7,5.2,12.4,2.1c-0.6,0.1-1.2,0.2-1.8,0.3c0.5,0.7,1,1.4,1.3,2.2c0.2,0.5,2.1-0.1,1.9-0.5
					c-0.4-0.8-0.9-1.4-1.3-2.2c-0.3-0.5-1.5,0-1.8,0.3c-3.1,2.6-7.7,1.1-8.7-2.7C28.9,111,27,111.5,27.1,112L27.1,112z"/>
			</g>
		</g>
	</g>
	<g>
		<g>
			<path d="M38.5,75.1c-6-3.8-12.1-4.9-19.1-4.4C14.5,71,8.8,71.7,5,75.2c-0.8,0.8,1.1,0.7,1.5,0.3c3.7-3.5,9.8-3.7,14.7-3.9
				C27,71.3,32.1,72.9,37,76C37.5,76.3,39.3,75.5,38.5,75.1L38.5,75.1z"/>
		</g>
	</g>
	<g>
		<g>
			<path d="M38.5,75.2c14.1-3,33.3-8.1,39.8,9.3c0.3,0.8,2.2,0.3,1.9-0.5C73.4,65.7,53,70.8,38.1,74C36.9,74.2,37.3,75.5,38.5,75.2
				L38.5,75.2z"/>
		</g>
	</g>
</g>
</svg>
