<?xml version="1.0" encoding="utf-8"?>
<!-- Generator: Adobe Illustrator 18.0.0, SVG Export Plug-In . SVG Version: 6.00 Build 0)  -->
<!DOCTYPE svg PUBLIC "-//W3C//DTD SVG 1.1//EN" "http://www.w3.org/Graphics/SVG/1.1/DTD/svg11.dtd">
<svg version="1.1" id="Слой_1" xmlns="http://www.w3.org/2000/svg" xmlns:xlink="http://www.w3.org/1999/xlink" x="0px" y="0px"
	 viewBox="0 0 207 205.5" enable-background="new 0 0 207 205.5" xml:space="preserve">
<g>
	<ellipse fill="#FFFFFF" stroke="#000000" stroke-width="2" stroke-miterlimit="10" cx="121.9" cy="103" rx="58" ry="54"/>
	<g>
		<g>
			<path d="M94.1,55.4c0.5-5.1,0.7-10.9-2.1-15.4c-2.7-4.1-7.9-4.1-12.1-3.2c-0.2,0-1.3,0.3-1.1,0.6c1.2,4,3.4,2.6,5.8,0.2
				c0.4-0.4-0.6-0.3-0.7-0.3c-1,0.1-2,0.4-3,0.5c-0.8,0.1-1.7,0.9-0.3,0.8c-0.9,0.1,1.8-0.3,1.5-0.1c-1,1-1.3-1.2-1.4-1.6
				c-0.4,0.2-0.8,0.4-1.1,0.6c12.2-2.4,13.6,9.2,12.7,18.4C92.1,56.2,94,56,94.1,55.4L94.1,55.4z"/>
		</g>
	</g>
	<path fill="#FFFFFF" stroke="#000000" stroke-width="2" stroke-miterlimit="10" d="M115.9,61.1c-7,0-13.3,3.2-17.3,8.1
		c-3.1-4.9-8.7-8.1-15-8.1c-9.8,0-17.7,7.6-17.7,17c0,9.4,7.9,17,17.7,17c4.5,0,8.6-1.6,11.7-4.3c3.3,8,11.3,13.6,20.6,13.6
		c12.3,0,22.2-9.7,22.2-21.7S128.2,61.1,115.9,61.1z"/>
	<ellipse stroke="#000000" stroke-miterlimit="10" cx="86.5" cy="77.7" rx="3.2" ry="3.4"/>
	<ellipse stroke="#000000" stroke-miterlimit="10" cx="109.1" cy="77.7" rx="3.2" ry="3.4"/>
	<g>
		<g>
			<path d="M91.1,103.2c1.2,2.3,3.9,3.4,6.3,4c0.5,0.1,2.2-0.6,1.6-0.8c-2.2-0.6-4.8-1.6-5.9-3.8C92.8,102.2,91,102.9,91.1,103.2
				L91.1,103.2z"/>
		</g>
	</g>
	<g>
		<g>
			<path d="M61.1,65.6c0.7-2.5,2.4-4.3,4.5-5.8c0.3-0.2,0.2-0.5-0.1-0.5c-0.5,0-1,0.1-1.4,0.4c-2.2,1.5-4.1,3.6-4.9,6.2
				C59.1,66.4,61,66.1,61.1,65.6L61.1,65.6z"/>
		</g>
	</g>
	<g>
		<g>
			<path d="M138.4,56.9c3,1.5,5.4,3.7,7.2,6.6c0.4,0.6,2.2-0.1,1.8-0.8c-1.8-3-4.4-5.2-7.5-6.8C139.4,55.6,137.6,56.5,138.4,56.9
				L138.4,56.9z"/>
		</g>
	</g>
	<path stroke="#000000" stroke-miterlimit="10" d="M110.6,50.6c-2.7,0-5.3,0.2-7.8,0.6c-6.3,2.1-12,5.2-17,9.1
		c6.3-3.4,13.5-5.3,21.3-5.3c23.4,0,42.3,17.4,42.3,38.9c0,21.5-18.9,38.9-42.3,38.9c-22,0-40.1-15.5-42.1-35.3c0,0.2,0,0.3,0,0.5
		c1.9,22.7,21.6,40.5,45.7,40.5c25.3,0,45.9-19.7,45.9-44C156.5,70.3,136,50.6,110.6,50.6z"/>
	<g>
		<g>
			<path d="M106.7,53.5c-0.4-4.1-0.5-8.2,0.7-12.2c0.7-2.4,2.2-4.4,4.4-5.5c1.8-0.8,3.9-0.6,5.7-0.3c0.6,0.5,0.6,1,0,1.2
				c-0.5-0.4-0.9-0.9-1.4-1.3c-0.5,0.3-1,0.6-1.5,0.9c1,0.1,2,0.4,3,0.5c0.6,0.1,2.3-0.8,1.2-1c-1-0.1-2-0.4-3-0.5
				c-0.3,0-2,0.3-1.5,0.9c2.6,2.6,4.7,2.9,5.9-1c0.1-0.2-0.2-0.3-0.4-0.4c-4.8-0.9-9.7-0.5-12.8,3.6c-3.2,4.2-2.7,10.7-2.2,15.6
				C104.9,54.6,106.8,54.2,106.7,53.5L106.7,53.5z"/>
		</g>
	</g>
	<path stroke="#000000" stroke-miterlimit="10" d="M176.2,91.7c0-1.5-1.3-6.4-1.4-7.9c-3.5-11.3-9.6-17.7-19.4-24.6
		c8.7,9.4,14,21.7,14,35.1c0,29.8-26,54-58,54c-11.8,0-22.7-3.3-31.8-8.9c7.3,7.1,16.6,12.4,27,15c1.9,0.2,3.7,0.3,5.6,0.3
		C147.6,154.6,176.2,126.4,176.2,91.7z"/>
	<path d="M175.3,7.3c-9.6-9.8-25.2-9.8-34.7,0c-9.6,9.8-9.6,25.6,0,35.4l0.7,0.6l16.7,17l17.3-17.7C184.9,33,184.9,17.1,175.3,7.3z
		 M173.1,40.6L173.1,40.6L158,56l-14.5-14.8l-0.6-0.7c-8.4-8.5-8.4-22.4,0-30.9c8.4-8.5,21.9-8.5,30.3,0
		C181.4,18.2,181.4,32,173.1,40.6z"/>
	<path d="M182.5,10.4c-2.8,0-5.5,0.5-8.1,1.4c0.7,0.8,1.3,1.7,1.8,2.6c2-0.6,4.1-0.9,6.3-0.9c11.8,0,21.4,9.8,21.4,21.8
		c0,12.1-9.6,21.9-21.4,21.9h-0.1h-21.3v-3.7l-3.1,3.2l0,0v3.9h24.6c13.5,0,24.5-11.2,24.5-25C207,21.5,196,10.4,182.5,10.4z"/>
</g>
<g>
	<g>
		<path d="M85.8,137.6c-4.9,3.7-6.6,9.6-6.1,15.5c0,0.3,2,0,1.9-0.5c-0.5-5.8,1.1-11.5,5.9-15.2C88,137.2,86.2,137.4,85.8,137.6
			L85.8,137.6z"/>
	</g>
</g>
<g>
	<g>
		<path d="M101.6,141c-6.7,2.4-11.7,8.4-13.2,15.3c-0.2,0.9,1.8,0.6,2-0.2c1.4-6.4,5.9-11.8,12.1-14
			C103.7,141.6,102.6,140.7,101.6,141L101.6,141z"/>
	</g>
</g>
<path fill="none" stroke="#000000" stroke-miterlimit="10" d="M143.6,199.6l-9.7-11.3l5.1-9.8l14.8,1.5l4.8,5.6
	c0.7-8-3.3-16-10.8-20c-8-4.3-17.7-2.6-24,3.4l-82.3-44c1.5-8.6-2.5-17.6-10.5-21.9c-7.6-4.1-16.6-2.8-22.9,2.4l8,0.8l9.7,11.3
	l-5.2,9.8L6,126l-5.4-6.3c-0.9,8.2,3.1,16.4,10.7,20.5c8,4.3,17.7,2.6,24-3.4l82.3,44c-1.5,8.6,2.5,17.6,10.5,21.9
	c7.5,4,16.5,2.8,22.8-2.3L143.6,199.6z"/>
</svg>
